<svg id="Best_seller" data-name="Best seller" xmlns="http://www.w3.org/2000/svg" width="175.412" height="34.972" viewBox="0 0 175.412 34.972">
  <g id="Group_8048-3" data-name="Group 8048-3">
    <path id="Path_6427-3" data-name="Path 6427-3" d="M43.491,119.6H218.9l-16,28.111H43.491Z" transform="translate(-43.491 -119.601)" fill="#8bc540"/>
    <text id="BEST_SELLER-2" data-name="BEST SELLER" transform="translate(17.057 19.556)" fill="#fff" font-size="17" font-family="Poppins-SemiBold, Poppins" font-weight="600" letter-spacing="-0.009em" style="isolation: isolate"><tspan x="0" y="0">BEST SELLER</tspan></text>
    <g id="flame-3" transform="translate(145.152 3.144)">
      <path id="Path_6413-3" data-name="Path 6413-3" d="M105.543,138.967a.191.191,0,0,0,.256-.089.2.2,0,0,0-.008-.186,4.455,4.455,0,0,1-.252-4.37c1.438-3.258,2.314-4.944,2.314-4.944a11.8,11.8,0,0,0,1.725,3.717c1.214,1.686,1.881,3.8.807,5.568a.2.2,0,0,0,.07.265.189.189,0,0,0,.18.008,5.45,5.45,0,0,0,2.983-4.81,9.486,9.486,0,0,0-.5-3.488,6.872,6.872,0,0,0-1.755-3.131.193.193,0,0,0-.272.026.2.2,0,0,0-.044.133c.124,2.025-.629,2.539-1.052,1.38a7.171,7.171,0,0,1-.272-2.237,7.711,7.711,0,0,0-1.49-4.653,5.32,5.32,0,0,0-.936-.964.194.194,0,0,0-.27.04.2.2,0,0,0-.036.125c.078,1.1.008,4.252-2.726,8.018-2.478,3.49-1.516,6.176-1.176,6.9A5.658,5.658,0,0,0,105.543,138.967Z" transform="translate(-102.625 -121.157)" fill="#fff"/>
    </g>
  </g>
  <path id="Path_7465" data-name="Path 7465" d="M11.087,133.51l9.7,6.861V133.51Z" transform="translate(-11.087 -105.399)" fill="#75a537"/>
</svg>
