<svg id="Group_9239" data-name="Group 9239" xmlns="http://www.w3.org/2000/svg" width="45.165" height="44.183" viewBox="0 0 45.165 44.183">
  <g id="Add_to_cart" data-name="Add to cart">
    <g id="Group_8475" data-name="Group 8475">
      <g id="Group_7767-4" data-name="Group 7767-4">
        <rect id="Rectangle_4631-5" data-name="Rectangle 4631-5" width="45.165" height="44.183" rx="3.98" fill="#1169d2"/>
      </g>
      <g id="Component_299_2" data-name="Component 299 2" transform="translate(12.753 12.928)">
        <path id="icon" d="M1653.734-171.456a1.607,1.607,0,0,1,1.595-1.62,1.607,1.607,0,0,1,1.62,1.595,1.607,1.607,0,0,1-1.595,1.619h-.012A1.6,1.6,0,0,1,1653.734-171.456Zm-6.429,0a1.607,1.607,0,0,1,1.6-1.62,1.607,1.607,0,0,1,1.62,1.595,1.607,1.607,0,0,1-1.6,1.619h-.012A1.6,1.6,0,0,1,1647.306-171.456Zm1.069-3.721a1.068,1.068,0,0,1-1.069-1.062.412.412,0,0,1,.02-.109c.006-.021.012-.044.016-.065l-2.093-8.33h-.621v-.165a1.041,1.041,0,0,1-.536.165h-1.073a1.065,1.065,0,0,1-1.064-1.064,1.064,1.064,0,0,1,1.063-1.064h1.07a1.025,1.025,0,0,1,.535.165v-.165h5.887v2.127h-3.149l1.069,4.253h4.038a5.293,5.293,0,0,0,3.318,1.175h1.234l-.15.419h-.073a1,1,0,0,1-.865.532h-6.968l.267,1.063h6.645a1.063,1.063,0,0,1,1.063,1.062,1.063,1.063,0,0,1-1.063,1.063h-7.5Zm8.616-6.979a.749.749,0,0,1-.749-.749v-2.082h-2.119a.749.749,0,0,1-.749-.749v-.387a.748.748,0,0,1,.749-.749h2.116v-2.09a.749.749,0,0,1,.748-.75h.406a.75.75,0,0,1,.749.749v2.09h2.106a.749.749,0,0,1,.748.749v.387a.749.749,0,0,1-.748.749h-2.106v2.082a.749.749,0,0,1-.749.749Z" transform="translate(-1641.954 189.711)" fill="#fff"/>
      </g>
    </g>
  </g>
</svg>
