<svg id="icon_email_message-circle" data-name="icon / email / message-circle" xmlns="http://www.w3.org/2000/svg" xmlns:xlink="http://www.w3.org/1999/xlink" width="24" height="24" viewBox="0 0 24 24">
  <defs>
    <clipPath id="clip-path">
      <path id="icon_message-circle" data-name="icon / message-circle" d="M1.037,20a1.323,1.323,0,0,1-.8-.3,1.1,1.1,0,0,1-.2-1l1.8-5.3a10.4,10.4,0,0,1-.8-3.9A9.369,9.369,0,0,1,6.327,1a8.6,8.6,0,0,1,4.191-1h.5A9.416,9.416,0,0,1,20,8.9v.5a9.1,9.1,0,0,1-1,4.3,9.34,9.34,0,0,1-3.493,3.8,9.562,9.562,0,0,1-4.99,1.4,10.061,10.061,0,0,1-3.892-.8L1.337,19.9A.369.369,0,0,1,1.037,20ZM10.518,2a7.623,7.623,0,0,0-3.293.8A7.389,7.389,0,0,0,3.033,9.5a7.66,7.66,0,0,0,.8,3.3.784.784,0,0,1,.1.8l-1.3,3.8,3.793-1.3a1.956,1.956,0,0,1,.8.1,7.611,7.611,0,0,0,3.293.8,7.319,7.319,0,0,0,6.687-4.1A8.018,8.018,0,0,0,18,9.5V9a7.675,7.675,0,0,0-2.233-4.85A7.438,7.438,0,0,0,10.918,2Z" transform="translate(2 2)" fill="#1169d2"/>
    </clipPath>
  </defs>
  <path id="icon_message-circle-2" data-name="icon / message-circle" d="M1.037,20a1.323,1.323,0,0,1-.8-.3,1.1,1.1,0,0,1-.2-1l1.8-5.3a10.4,10.4,0,0,1-.8-3.9A9.369,9.369,0,0,1,6.327,1a8.6,8.6,0,0,1,4.191-1h.5A9.416,9.416,0,0,1,20,8.9v.5a9.1,9.1,0,0,1-1,4.3,9.34,9.34,0,0,1-3.493,3.8,9.562,9.562,0,0,1-4.99,1.4,10.061,10.061,0,0,1-3.892-.8L1.337,19.9A.369.369,0,0,1,1.037,20ZM10.518,2a7.623,7.623,0,0,0-3.293.8A7.389,7.389,0,0,0,3.033,9.5a7.66,7.66,0,0,0,.8,3.3.784.784,0,0,1,.1.8l-1.3,3.8,3.793-1.3a1.956,1.956,0,0,1,.8.1,7.611,7.611,0,0,0,3.293.8,7.319,7.319,0,0,0,6.687-4.1A8.018,8.018,0,0,0,18,9.5V9a7.675,7.675,0,0,0-2.233-4.85A7.438,7.438,0,0,0,10.918,2Z" transform="translate(2 2)" fill="#1169d2"/>
</svg>
