<svg xmlns="http://www.w3.org/2000/svg" xmlns:xlink="http://www.w3.org/1999/xlink" width="145.211" height="90.184" viewBox="0 0 145.211 90.184">
  <defs>
    <radialGradient id="radial-gradient" cx="0.5" cy="0.5" r="0.414" gradientTransform="translate(-0.321) scale(1.643 1)" gradientUnits="objectBoundingBox">
      <stop offset="0" stop-color="#e10717"/>
      <stop offset="0.135" stop-color="#b30f2f"/>
      <stop offset="0.359" stop-color="#6c1b54"/>
      <stop offset="0.521" stop-color="#40236c"/>
      <stop offset="0.603" stop-color="#2f2775"/>
      <stop offset="0.693" stop-color="#2d2571"/>
      <stop offset="0.78" stop-color="#291f65"/>
      <stop offset="0.867" stop-color="#211551"/>
      <stop offset="0.953" stop-color="#160836"/>
      <stop offset="0.993" stop-color="#110127"/>
    </radialGradient>
    <radialGradient id="radial-gradient-2" cx="0.5" r="0.559" gradientTransform="translate(0.091) scale(0.818 1)" xlink:href="#radial-gradient"/>
    <radialGradient id="radial-gradient-3" cx="0.5" r="0.619" gradientTransform="translate(0.152) scale(0.696 1)" xlink:href="#radial-gradient"/>
    <radialGradient id="radial-gradient-4" cx="0.5" r="1.134" gradientTransform="translate(0.336) scale(0.328 1)" xlink:href="#radial-gradient"/>
  </defs>
  <g id="Group_8402" data-name="Group 8402" transform="translate(-158.886 -277.436)">
    <g id="Layer_5" data-name="Layer 5" transform="translate(278.26 277.436)">
      <g id="Group_8411" data-name="Group 8411" transform="translate(0)">
        <path id="Path_6820" data-name="Path 6820" d="M735.12,328.825l24.305-4.467-8.317-20.792,8.317-14.663-24.305,4.246Z" transform="translate(-733.588 -286.496)" opacity="0.5" fill="url(#radial-gradient)"/>
        <path id="Path_6821" data-name="Path 6821" d="M727.817,317.359l24.305-4.467L743.806,292.1l8.317-14.663-24.305,4.246Z" transform="translate(-727.817 -277.436)" fill="#e20917"/>
        <g id="Group_8410" data-name="Group 8410" transform="translate(0.18 5.065)" opacity="0.5" style="mix-blend-mode: multiply;isolation: isolate">
          <path id="Path_6822" data-name="Path 6822" d="M731.07,301.614s15.315,4.755,14.833,20.092-16,17.064-16,17.064l-1.228-.04,1.164-37.154Z" transform="translate(-728.675 -301.576)" fill="#686867" opacity="0"/>
          <path id="Path_6823" data-name="Path 6823" d="M731.059,301.9s14.9,4.7,14.423,19.96S729.9,338.871,729.9,338.871l-1.2-.039,1.158-36.973Z" transform="translate(-728.694 -301.8)" fill="#656564" opacity="0.028"/>
          <path id="Path_6824" data-name="Path 6824" d="M731.049,302.178s14.489,4.64,14.012,19.828-15.167,16.966-15.167,16.966l-1.171-.038,1.152-36.792Z" transform="translate(-728.713 -302.023)" fill="#626261" opacity="0.056"/>
          <path id="Path_6825" data-name="Path 6825" d="M731.039,302.46s14.076,4.583,13.6,19.7-14.751,16.918-14.751,16.918l-1.143-.037,1.147-36.611Z" transform="translate(-728.732 -302.247)" fill="#5f5f5e" opacity="0.083"/>
          <path id="Path_6826" data-name="Path 6826" d="M731.029,302.742s13.663,4.525,13.191,19.563-14.335,16.869-14.335,16.869l-1.114-.036,1.141-36.431Z" transform="translate(-728.751 -302.47)" fill="#5d5d5c" opacity="0.111"/>
          <path id="Path_6827" data-name="Path 6827" d="M731.018,303.024s13.251,4.468,12.781,19.431-13.919,16.82-13.919,16.82l-1.085-.035,1.135-36.25Z" transform="translate(-728.77 -302.693)" fill="#5a5a59" opacity="0.139"/>
          <path id="Path_6828" data-name="Path 6828" d="M731.008,303.306a19.558,19.558,0,0,1,12.37,19.3c-.465,14.889-13.5,16.771-13.5,16.771l-1.057-.035,1.13-36.069Z" transform="translate(-728.789 -302.917)" fill="#575756" opacity="0.167"/>
          <path id="Path_6829" data-name="Path 6829" d="M731,303.588s12.425,4.353,11.96,19.167-13.086,16.722-13.086,16.722l-1.028-.034,1.124-35.888Z" transform="translate(-728.808 -303.141)" fill="#545453" opacity="0.194"/>
          <path id="Path_6830" data-name="Path 6830" d="M730.988,303.869s12.012,4.3,11.549,19.035-12.67,16.673-12.67,16.673l-1-.033,1.118-35.707Z" transform="translate(-728.827 -303.363)" fill="#515150" opacity="0.222"/>
          <path id="Path_6831" data-name="Path 6831" d="M730.978,304.151s11.6,4.238,11.139,18.9-12.253,16.625-12.253,16.625l-.971-.032L730,304.121Z" transform="translate(-728.846 -303.587)" fill="#4e4e4d" opacity="0.25"/>
          <path id="Path_6832" data-name="Path 6832" d="M730.968,304.433s11.186,4.181,10.728,18.771-11.837,16.576-11.837,16.576l-.943-.031,1.107-35.345Z" transform="translate(-728.865 -303.811)" fill="#4b4b4b" opacity="0.278"/>
          <path id="Path_6833" data-name="Path 6833" d="M730.957,304.715s10.773,4.124,10.318,18.639-11.421,16.527-11.421,16.527l-.914-.03,1.1-35.164Z" transform="translate(-728.884 -304.034)" fill="#494948" opacity="0.306"/>
          <path id="Path_6834" data-name="Path 6834" d="M730.947,305s10.361,4.066,9.907,18.507-11,16.478-11,16.478l-.885-.029,1.1-34.983Z" transform="translate(-728.903 -304.257)" fill="#464645" opacity="0.333"/>
          <path id="Path_6835" data-name="Path 6835" d="M730.937,305.278s9.948,4.009,9.5,18.375-10.588,16.429-10.588,16.429l-.857-.028,1.09-34.8Z" transform="translate(-728.922 -304.481)" fill="#434342" opacity="0.361"/>
          <path id="Path_6836" data-name="Path 6836" d="M730.927,305.561s9.534,3.951,9.086,18.242-10.172,16.381-10.172,16.381l-.828-.027,1.084-34.622Z" transform="translate(-728.942 -304.704)" fill="#40403f" opacity="0.389"/>
          <path id="Path_6837" data-name="Path 6837" d="M730.917,305.843s9.122,3.894,8.675,18.111-9.756,16.332-9.756,16.332l-.8-.026,1.078-34.441Z" transform="translate(-728.961 -304.928)" fill="#3d3d3c" opacity="0.417"/>
          <path id="Path_6838" data-name="Path 6838" d="M730.907,306.124s8.709,3.836,8.265,17.978-9.34,16.283-9.34,16.283l-.771-.025,1.073-34.26Z" transform="translate(-728.98 -305.151)" fill="#3a3a3a" opacity="0.444"/>
          <path id="Path_6839" data-name="Path 6839" d="M730.9,306.406s8.3,3.779,7.854,17.846-8.923,16.234-8.923,16.234l-.743-.024,1.067-34.079Z" transform="translate(-728.999 -305.374)" fill="#373737" opacity="0.472"/>
          <path id="Path_6840" data-name="Path 6840" d="M730.886,306.688s7.883,3.721,7.444,17.714-8.507,16.186-8.507,16.186l-.714-.024,1.062-33.9Z" transform="translate(-729.018 -305.598)" fill="#353534" opacity="0.5"/>
          <path id="Path_6841" data-name="Path 6841" d="M730.876,306.97s7.47,3.664,7.033,17.582-8.091,16.137-8.091,16.137l-.686-.023,1.056-33.717Z" transform="translate(-729.037 -305.822)" fill="#323231" opacity="0.528"/>
          <path id="Path_6842" data-name="Path 6842" d="M730.866,307.251s7.057,3.607,6.623,17.45-7.674,16.088-7.674,16.088l-.657-.022,1.05-33.536Z" transform="translate(-729.056 -306.044)" fill="#2f2f2e" opacity="0.556"/>
          <path id="Path_6843" data-name="Path 6843" d="M730.856,307.533s6.644,3.549,6.212,17.318-7.258,16.039-7.258,16.039l-.628-.021,1.044-33.355Z" transform="translate(-729.076 -306.268)" fill="#2c2c2c" opacity="0.583"/>
          <path id="Path_6844" data-name="Path 6844" d="M730.846,307.815s6.231,3.492,5.8,17.186-6.842,15.99-6.842,15.99l-.6-.02,1.039-33.174Z" transform="translate(-729.094 -306.492)" fill="#292929" opacity="0.611"/>
          <path id="Path_6845" data-name="Path 6845" d="M730.836,308.1s5.819,3.434,5.391,17.053-6.426,15.942-6.426,15.942l-.571-.019,1.033-32.993Z" transform="translate(-729.114 -306.715)" fill="#262626" opacity="0.639"/>
          <path id="Path_6846" data-name="Path 6846" d="M730.825,308.379s5.406,3.377,4.981,16.921-6.009,15.893-6.009,15.893l-.543-.018,1.027-32.813Z" transform="translate(-729.133 -306.938)" fill="#232323" opacity="0.667"/>
          <path id="Path_6847" data-name="Path 6847" d="M730.815,308.661s4.993,3.32,4.57,16.789-5.593,15.844-5.593,15.844l-.514-.017,1.022-32.632Z" transform="translate(-729.152 -307.162)" fill="#202020" opacity="0.694"/>
          <path id="Path_6848" data-name="Path 6848" d="M730.8,308.943s4.58,3.262,4.159,16.657-5.177,15.795-5.177,15.795l-.486-.016,1.016-32.451Z" transform="translate(-729.17 -307.385)" fill="#1e1e1d" opacity="0.722"/>
          <path id="Path_6849" data-name="Path 6849" d="M730.8,309.225s4.167,3.2,3.749,16.525-4.761,15.746-4.761,15.746l-.457-.015,1.01-32.27Z" transform="translate(-729.19 -307.609)" fill="#1b1b1b" opacity="0.75"/>
          <path id="Path_6850" data-name="Path 6850" d="M730.785,309.506s3.754,3.147,3.339,16.393-4.344,15.7-4.344,15.7l-.428-.014,1-32.089Z" transform="translate(-729.209 -307.832)" fill="#181818" opacity="0.778"/>
          <path id="Path_6851" data-name="Path 6851" d="M730.775,309.788s3.341,3.09,2.928,16.261-3.928,15.648-3.928,15.648l-.4-.013,1-31.908Z" transform="translate(-729.228 -308.055)" fill="#151515" opacity="0.806"/>
          <path id="Path_6852" data-name="Path 6852" d="M730.764,310.07s2.928,3.032,2.517,16.129-3.512,15.6-3.512,15.6l-.371-.013.993-31.727Z" transform="translate(-729.247 -308.279)" fill="#121212" opacity="0.833"/>
          <path id="Path_6853" data-name="Path 6853" d="M730.754,310.352s2.516,2.975,2.107,16-3.1,15.551-3.1,15.551l-.343-.012.987-31.546Z" transform="translate(-729.266 -308.503)" fill="#0f0f0f" opacity="0.861"/>
          <path id="Path_6854" data-name="Path 6854" d="M730.744,310.634s2.1,2.918,1.7,15.864-2.679,15.5-2.679,15.5l-.314-.011.982-31.366Z" transform="translate(-729.285 -308.726)" fill="#0c0c0c" opacity="0.889"/>
          <path id="Path_6855" data-name="Path 6855" d="M730.734,310.916s1.69,2.86,1.286,15.732-2.263,15.453-2.263,15.453l-.286-.01.976-31.184Z" transform="translate(-729.304 -308.949)" fill="#0a0a0a" opacity="0.917"/>
          <path id="Path_6856" data-name="Path 6856" d="M730.724,311.2s1.277,2.8.875,15.6-1.847,15.4-1.847,15.4l-.257-.009.97-31Z" transform="translate(-729.324 -309.173)" fill="#070707" opacity="0.944"/>
          <path id="Path_6857" data-name="Path 6857" d="M730.714,311.48s.864,2.745.465,15.468-1.43,15.355-1.43,15.355l-.228-.008.965-30.823Z" transform="translate(-729.343 -309.396)" fill="#040404" opacity="0.972"/>
          <path id="Path_6858" data-name="Path 6858" d="M730.7,311.761s.451,2.688.054,15.336-1.014,15.307-1.014,15.307l-.2-.007.959-30.642Z" transform="translate(-729.362 -309.619)" fill="#010101"/>
        </g>
      </g>
    </g>
    <g id="Layer_4" data-name="Layer 4" transform="translate(278.26 281.683)">
      <path id="Path_6859" data-name="Path 6859" d="M736.868,306.866l-9.05-9.192V333.35l9.05,9.3Z" transform="translate(-727.817 -297.674)" fill="#090a0d" opacity="0.941"/>
    </g>
    <g id="Group_9299" data-name="Group 9299">
      <g id="Layer_3" data-name="Layer 3" transform="translate(158.886 290.906)">
        <g id="Group_8417" data-name="Group 8417" transform="translate(0 0)">
          <path id="Path_6860" data-name="Path 6860" d="M167.9,459.209l55.906-9.443.119-36.366-55.887,9.335Z" transform="translate(-166.008 -398.341)" opacity="0.5" fill="url(#radial-gradient-2)"/>
          <path id="Path_6861" data-name="Path 6861" d="M434.639,406.166l69.239-11.919L504,357.881l-69.22,11.81Z" transform="translate(-376.78 -354.472)" opacity="0.5" fill="url(#radial-gradient-3)"/>
          <g id="Group_8412" data-name="Group 8412" transform="translate(56.53 29.938)" opacity="0.3" style="mix-blend-mode: multiply;isolation: isolate">
            <path id="Path_6862" data-name="Path 6862" d="M492.073,489.193s-4.023-.1-22.232-4.245-41.535,13.467-41.535,13.467l.066-.287,63.765-9.224Z" transform="translate(-428.306 -484.318)" fill="#010101"/>
          </g>
          <path id="Path_6863" data-name="Path 6863" d="M499.428,341.633l-72.137,12.376.241,36.66L499.422,378.3Z" transform="translate(-370.975 -341.633)" fill="#e20917"/>
          <g id="Group_8413" data-name="Group 8413" transform="translate(55.822 12.971)" opacity="0.8" style="mix-blend-mode: multiply;isolation: isolate">
            <path id="Path_6864" data-name="Path 6864" d="M427.515,403.455s14.037,3.294,14.037,19.353-14.04,19.551-14.04,19.551h-2.582v-38.9Z" transform="translate(-424.931 -403.455)" fill="#e4e4e3" opacity="0"/>
            <path id="Path_6865" data-name="Path 6865" d="M427.481,403.455s13.784,3.291,13.784,19.326-13.786,19.52-13.786,19.52h-2.54V403.455Z" transform="translate(-424.937 -403.455)" fill="#e0e0df" opacity="0.02"/>
            <path id="Path_6866" data-name="Path 6866" d="M427.448,403.455s13.531,3.288,13.531,19.3-13.533,19.489-13.533,19.489h-2.5V403.455Z" transform="translate(-424.944 -403.455)" fill="#dbdbda" opacity="0.039"/>
            <path id="Path_6867" data-name="Path 6867" d="M427.414,403.455s13.278,3.285,13.278,19.272-13.28,19.458-13.28,19.458h-2.455v-38.73Z" transform="translate(-424.952 -403.455)" fill="#d7d7d6" opacity="0.059"/>
            <path id="Path_6868" data-name="Path 6868" d="M427.38,403.455S440.4,406.737,440.4,422.7s-13.026,19.427-13.026,19.427h-2.413V403.455Z" transform="translate(-424.958 -403.455)" fill="#d2d2d1" opacity="0.078"/>
            <path id="Path_6869" data-name="Path 6869" d="M427.346,403.455s12.771,3.279,12.771,19.218-12.773,19.4-12.773,19.4h-2.371V403.455Z" transform="translate(-424.965 -403.455)" fill="#cececd" opacity="0.098"/>
            <path id="Path_6870" data-name="Path 6870" d="M427.313,403.455s12.518,3.276,12.518,19.191-12.52,19.365-12.52,19.365h-2.328V403.455Z" transform="translate(-424.972 -403.455)" fill="#c9c9c8" opacity="0.118"/>
            <path id="Path_6871" data-name="Path 6871" d="M427.278,403.455s12.265,3.273,12.265,19.164-12.267,19.334-12.267,19.334h-2.286v-38.5Z" transform="translate(-424.978 -403.455)" fill="#c5c5c4" opacity="0.137"/>
            <path id="Path_6872" data-name="Path 6872" d="M427.245,403.455s12.012,3.269,12.012,19.137-12.013,19.3-12.013,19.3H425v-38.44Z" transform="translate(-424.986 -403.455)" fill="silver" opacity="0.157"/>
            <path id="Path_6873" data-name="Path 6873" d="M427.211,403.455s11.758,3.266,11.758,19.11-11.76,19.272-11.76,19.272h-2.2V403.455Z" transform="translate(-424.993 -403.455)" fill="#bcbcbb" opacity="0.176"/>
            <path id="Path_6874" data-name="Path 6874" d="M427.178,403.455s11.505,3.263,11.505,19.083-11.507,19.241-11.507,19.241h-2.158V403.455Z" transform="translate(-425 -403.455)" fill="#b7b7b7" opacity="0.196"/>
            <path id="Path_6875" data-name="Path 6875" d="M427.144,403.455s11.252,3.26,11.252,19.055-11.254,19.21-11.254,19.21h-2.116V403.455Z" transform="translate(-425.006 -403.455)" fill="#b3b3b2" opacity="0.216"/>
            <path id="Path_6876" data-name="Path 6876" d="M427.11,403.455s11,3.257,11,19.028-11,19.18-11,19.18h-2.074V403.455Z" transform="translate(-425.013 -403.455)" fill="#afafae" opacity="0.235"/>
            <path id="Path_6877" data-name="Path 6877" d="M427.077,403.455s10.745,3.254,10.745,19S427.075,441.6,427.075,441.6h-2.031v-38.15Z" transform="translate(-425.02 -403.455)" fill="#aaaaa9" opacity="0.255"/>
            <path id="Path_6878" data-name="Path 6878" d="M427.043,403.455s10.492,3.251,10.492,18.974-10.494,19.118-10.494,19.118h-1.989V403.455Z" transform="translate(-425.027 -403.455)" fill="#a6a6a5" opacity="0.275"/>
            <path id="Path_6879" data-name="Path 6879" d="M427.009,403.455s10.239,3.248,10.239,18.947-10.24,19.087-10.24,19.087h-1.947V403.455Z" transform="translate(-425.034 -403.455)" fill="#a1a1a1" opacity="0.294"/>
            <path id="Path_6880" data-name="Path 6880" d="M426.975,403.455s9.986,3.244,9.986,18.92-9.987,19.056-9.987,19.056h-1.9V403.455Z" transform="translate(-425.041 -403.455)" fill="#9d9d9c" opacity="0.314"/>
            <path id="Path_6881" data-name="Path 6881" d="M426.941,403.455s9.733,3.241,9.733,18.893-9.734,19.025-9.734,19.025h-1.862V403.455Z" transform="translate(-425.047 -403.455)" fill="#989898" opacity="0.333"/>
            <path id="Path_6882" data-name="Path 6882" d="M426.908,403.455s9.479,3.238,9.479,18.866-9.481,18.994-9.481,18.994h-1.819v-37.86Z" transform="translate(-425.054 -403.455)" fill="#949493" opacity="0.353"/>
            <path id="Path_6883" data-name="Path 6883" d="M426.874,403.455s9.226,3.235,9.226,18.839-9.227,18.963-9.227,18.963H425.1v-37.8Z" transform="translate(-425.061 -403.455)" fill="#8f8f8f" opacity="0.373"/>
            <path id="Path_6884" data-name="Path 6884" d="M426.84,403.455s8.973,3.232,8.973,18.812-8.974,18.932-8.974,18.932H425.1V403.455Z" transform="translate(-425.068 -403.455)" fill="#8b8b8a" opacity="0.392"/>
            <path id="Path_6885" data-name="Path 6885" d="M426.806,403.455s8.72,3.229,8.72,18.785-8.721,18.9-8.721,18.9h-1.692V403.455Z" transform="translate(-425.075 -403.455)" fill="#878786" opacity="0.412"/>
            <path id="Path_6886" data-name="Path 6886" d="M426.773,403.455s8.466,3.226,8.466,18.758-8.468,18.87-8.468,18.87h-1.65V403.455Z" transform="translate(-425.082 -403.455)" fill="#828282" opacity="0.431"/>
            <path id="Path_6887" data-name="Path 6887" d="M426.739,403.455s8.213,3.223,8.213,18.731-8.214,18.839-8.214,18.839h-1.607v-37.57Z" transform="translate(-425.089 -403.455)" fill="#7e7e7d" opacity="0.451"/>
            <path id="Path_6888" data-name="Path 6888" d="M426.705,403.455s7.96,3.219,7.96,18.7-7.961,18.808-7.961,18.808h-1.565V403.455Z" transform="translate(-425.095 -403.455)" fill="#797979" opacity="0.471"/>
            <path id="Path_6889" data-name="Path 6889" d="M426.672,403.455s7.707,3.216,7.707,18.677-7.708,18.777-7.708,18.777h-1.522V403.455Z" transform="translate(-425.103 -403.455)" fill="#757574" opacity="0.49"/>
            <path id="Path_6890" data-name="Path 6890" d="M426.638,403.455s7.453,3.213,7.453,18.649-7.454,18.746-7.454,18.746h-1.48v-37.4Z" transform="translate(-425.11 -403.455)" fill="#707070" opacity="0.51"/>
            <path id="Path_6891" data-name="Path 6891" d="M426.6,403.455s7.2,3.21,7.2,18.622-7.2,18.715-7.2,18.715h-1.438V403.455Z" transform="translate(-425.116 -403.455)" fill="#6c6c6b" opacity="0.529"/>
            <path id="Path_6892" data-name="Path 6892" d="M426.57,403.455s6.947,3.207,6.947,18.6-6.948,18.685-6.948,18.685h-1.4v-37.28Z" transform="translate(-425.123 -403.455)" fill="#676767" opacity="0.549"/>
            <path id="Path_6893" data-name="Path 6893" d="M426.537,403.455s6.694,3.2,6.694,18.568-6.695,18.654-6.695,18.654h-1.353V403.455Z" transform="translate(-425.13 -403.455)" fill="#636362" opacity="0.569"/>
            <path id="Path_6894" data-name="Path 6894" d="M426.5,403.455s6.44,3.2,6.44,18.541-6.441,18.623-6.441,18.623h-1.311V403.455Z" transform="translate(-425.136 -403.455)" fill="#5e5e5e" opacity="0.588"/>
            <path id="Path_6895" data-name="Path 6895" d="M426.469,403.455s6.187,3.2,6.187,18.514-6.188,18.592-6.188,18.592H425.2V403.455Z" transform="translate(-425.144 -403.455)" fill="#5a5a5a" opacity="0.608"/>
            <path id="Path_6896" data-name="Path 6896" d="M426.436,403.455s5.934,3.195,5.934,18.487-5.935,18.561-5.935,18.561h-1.226V403.455Z" transform="translate(-425.151 -403.455)" fill="#565655" opacity="0.627"/>
            <path id="Path_6897" data-name="Path 6897" d="M426.4,403.455s5.681,3.191,5.681,18.46-5.682,18.53-5.682,18.53h-1.183v-36.99Z" transform="translate(-425.158 -403.455)" fill="#515151" opacity="0.647"/>
            <path id="Path_6898" data-name="Path 6898" d="M426.368,403.455s5.428,3.188,5.428,18.433-5.428,18.5-5.428,18.5h-1.141V403.455Z" transform="translate(-425.164 -403.455)" fill="#4d4d4c" opacity="0.667"/>
            <path id="Path_6899" data-name="Path 6899" d="M426.334,403.455s5.174,3.185,5.174,18.406-5.175,18.468-5.175,18.468h-1.1V403.455Z" transform="translate(-425.171 -403.455)" fill="#484848" opacity="0.686"/>
            <path id="Path_6900" data-name="Path 6900" d="M426.3,403.455s4.921,3.182,4.921,18.379-4.922,18.437-4.922,18.437h-1.056V403.455Z" transform="translate(-425.178 -403.455)" fill="#444443" opacity="0.706"/>
            <path id="Path_6901" data-name="Path 6901" d="M426.266,403.455s4.668,3.179,4.668,18.352-4.669,18.406-4.669,18.406h-1.014V403.455Z" transform="translate(-425.185 -403.455)" fill="#3f3f3f" opacity="0.725"/>
            <path id="Path_6902" data-name="Path 6902" d="M426.233,403.455s4.415,3.176,4.415,18.324-4.415,18.375-4.415,18.375h-.971v-36.7Z" transform="translate(-425.192 -403.455)" fill="#3b3b3b" opacity="0.745"/>
            <path id="Path_6903" data-name="Path 6903" d="M426.2,403.455s4.161,3.173,4.161,18.3S426.2,440.1,426.2,440.1h-.929V403.455Z" transform="translate(-425.199 -403.455)" fill="#363636" opacity="0.765"/>
            <path id="Path_6904" data-name="Path 6904" d="M426.165,403.455s3.908,3.169,3.908,18.27-3.909,18.313-3.909,18.313h-.887V403.455Z" transform="translate(-425.205 -403.455)" fill="#323232" opacity="0.784"/>
            <path id="Path_6905" data-name="Path 6905" d="M426.132,403.455s3.655,3.167,3.655,18.243-3.655,18.282-3.655,18.282h-.844V403.455Z" transform="translate(-425.212 -403.455)" fill="#2e2e2d" opacity="0.804"/>
            <path id="Path_6906" data-name="Path 6906" d="M426.1,403.455s3.4,3.163,3.4,18.216-3.4,18.251-3.4,18.251h-.8V403.455Z" transform="translate(-425.219 -403.455)" fill="#292929" opacity="0.824"/>
            <path id="Path_6907" data-name="Path 6907" d="M426.064,403.455s3.149,3.16,3.149,18.189-3.149,18.22-3.149,18.22h-.76V403.455Z" transform="translate(-425.226 -403.455)" fill="#252524" opacity="0.843"/>
            <path id="Path_6908" data-name="Path 6908" d="M426.03,403.455s2.9,3.157,2.9,18.162-2.9,18.19-2.9,18.19h-.717V403.455Z" transform="translate(-425.233 -403.455)" fill="#202020" opacity="0.863"/>
            <path id="Path_6909" data-name="Path 6909" d="M426,403.455s2.642,3.154,2.642,18.135S426,439.748,426,439.748h-.675V403.455Z" transform="translate(-425.24 -403.455)" fill="#1c1c1c" opacity="0.882"/>
            <path id="Path_6910" data-name="Path 6910" d="M425.963,403.455s2.389,3.151,2.389,18.108-2.389,18.128-2.389,18.128h-.632V403.455Z" transform="translate(-425.247 -403.455)" fill="#171717" opacity="0.902"/>
            <path id="Path_6911" data-name="Path 6911" d="M425.929,403.455s2.136,3.148,2.136,18.081-2.136,18.1-2.136,18.1h-.59V403.455Z" transform="translate(-425.253 -403.455)" fill="#131313" opacity="0.922"/>
            <path id="Path_6912" data-name="Path 6912" d="M425.9,403.455s1.882,3.145,1.882,18.054-1.883,18.066-1.883,18.066h-.547V403.455Z" transform="translate(-425.26 -403.455)" fill="#0e0e0e" opacity="0.941"/>
            <path id="Path_6913" data-name="Path 6913" d="M425.862,403.455s1.629,3.142,1.629,18.027-1.629,18.035-1.629,18.035h-.505V403.455Z" transform="translate(-425.268 -403.455)" fill="#0a0a0a" opacity="0.961"/>
            <path id="Path_6914" data-name="Path 6914" d="M425.828,403.455s1.376,3.138,1.376,18-1.376,18-1.376,18h-.463v-36Z" transform="translate(-425.274 -403.455)" fill="#050505" opacity="0.98"/>
            <path id="Path_6915" data-name="Path 6915" d="M425.794,403.455s1.123,3.135,1.123,17.972-1.123,17.973-1.123,17.973h-.42V403.455Z" transform="translate(-425.281 -403.455)" fill="#010101"/>
          </g>
          <g id="Group_8414" data-name="Group 8414" transform="translate(64.674 11.849)">
            <path id="Path_6916" data-name="Path 6916" d="M467.819,437.2l6.074-1c4.837-.8,4.918,3.2,4.736,7.642s-.6,8.523-5.433,9.322l-6.074,1Zm3.619,13.088.832-.137c1.62-.268,1.852-1.014,2.04-5.6s.015-5.265-1.6-5l-.832.138Z" transform="translate(-467.122 -428.119)" fill="#fff"/>
            <path id="Path_6917" data-name="Path 6917" d="M529.362,425.268l9.516-1.573-.148,3.611-5.332.881-.119,2.9,4.994-.825-.142,3.469-4.994.825L533,437.929l5.534-.915-.148,3.611-9.718,1.606Z" transform="translate(-515.752 -418.325)" fill="#fff"/>
            <path id="Path_6918" data-name="Path 6918" d="M580.774,416.981l5.264-.87,3.218,16.316-4.454.736-.305-2.9-3.329.55-.549,3.041-4.455.736Zm2.512,3.03-.045.007-1.443,7.389,2.34-.387Z" transform="translate(-553.284 -412.333)" fill="#fff"/>
            <path id="Path_6919" data-name="Path 6919" d="M642.586,409.874l4.185-.692-.548,13.352,5.152-.851-.148,3.611-9.336,1.543Z" transform="translate(-605.219 -406.857)" fill="#fff"/>
            <path id="Path_6920" data-name="Path 6920" d="M697.076,403.259l.017-.4c.042-1.022-.308-1.766-1.117-1.632a1.707,1.707,0,0,0-1.367,1.712c-.137,3.35,6.769.58,6.514,6.781-.148,3.611-2.217,5.558-5.906,6.168-3.465.573-5.348-.367-5.2-3.883l.024-.594,4.05-.669-.017.4c-.06,1.449.481,1.879,1.291,1.745a1.812,1.812,0,0,0,1.417-1.862c.138-3.35-6.5-.6-6.253-6.612.142-3.445,1.95-5.584,5.482-6.168,3.667-.606,5.131.733,4.982,4.368Z" transform="translate(-643.24 -398.103)" fill="#fff"/>
          </g>
          <g id="Group_8416" data-name="Group 8416" transform="translate(0 12.971)">
            <path id="Path_6921" data-name="Path 6921" d="M158.886,449.264l55.906-9.443.119-36.366-55.887,9.335Z" transform="translate(-158.886 -403.455)" fill="#e20917"/>
            <g id="Group_8415" data-name="Group 8415" transform="translate(11.18 11.456)">
              <path id="Path_6922" data-name="Path 6922" d="M212.842,480.553l6.073-1.013c4.836-.806,4.923,3.192,4.747,7.635s-.583,8.524-5.419,9.33l-6.073,1.013Zm3.637,13.083.832-.139c1.619-.27,1.85-1.017,2.032-5.6s.008-5.265-1.612-4.995l-.832.139Z" transform="translate(-212.17 -474.95)" fill="#fff"/>
              <path id="Path_6923" data-name="Path 6923" d="M277.058,473.8l.016-.4c.04-1.022-.31-1.766-1.119-1.631a1.707,1.707,0,0,0-1.364,1.715c-.133,3.35,6.77.57,6.524,6.772-.143,3.611-2.209,5.561-5.9,6.176-3.464.578-5.348-.359-5.209-3.876l.023-.594,4.048-.675-.016.4c-.057,1.449.484,1.878,1.294,1.743a1.811,1.811,0,0,0,1.414-1.864c.133-3.35-6.5-.592-6.263-6.6.137-3.445,1.942-5.587,5.473-6.176,3.666-.611,5.132.726,4.988,4.361Z" transform="translate(-257.867 -466.42)" fill="#fff"/>
              <path id="Path_6924" data-name="Path 6924" d="M327.645,459.64l9.514-1.586-.143,3.612-5.33.889-.115,2.9,4.993-.833-.138,3.469-4.993.833-.277,6.986-4.184.7Z" transform="translate(-302.885 -458.054)" fill="#fff"/>
            </g>
          </g>
        </g>
      </g>
      <g id="Layer_2" data-name="Layer 2" transform="translate(174.643 325.806)">
        <g id="Group_8422" data-name="Group 8422" transform="translate(0)">
          <path id="Path_6925" data-name="Path 6925" d="M365.618,516.317,243.542,537.162v19.217l122.077-20.844Z" transform="translate(-241.536 -514.565)" opacity="0.5" fill="url(#radial-gradient-4)"/>
          <path id="Path_6926" data-name="Path 6926" d="M356.057,507.967,233.981,528.811v19.217l122.077-20.845Z" transform="translate(-233.981 -507.967)" fill="#273683"/>
          <g id="Group_8419" data-name="Group 8419" transform="translate(9.443 7.938)">
            <g id="Group_8418" data-name="Group 8418">
              <path id="Path_6927" data-name="Path 6927" d="M281.658,623.7c1.884-.324,2.49.656,2.393,3.455s-.779,4-2.663,4.325-2.49-.656-2.393-3.456S279.774,624.022,281.658,623.7Zm-.225,6.459c.555-.1.644-.652.714-2.677s.02-2.556-.535-2.461-.644.652-.714,2.676S280.878,630.253,281.433,630.158Z" transform="translate(-278.985 -607.307)" fill="#1d1d1b"/>
              <path id="Path_6928" data-name="Path 6928" d="M305.5,628.064l1.725-.3-.024.692.02,0a1.679,1.679,0,0,1,1.328-1.062c.783-.135,1.387.085,1.344,1.3l-.149,4.278-1.785.307.13-3.743c.016-.472-.1-.65-.413-.6s-.443.274-.46.746l-.13,3.743-1.785.307Z" transform="translate(-299.778 -610.246)" fill="#1d1d1b"/>
              <path id="Path_6929" data-name="Path 6929" d="M341.64,627.707a1.656,1.656,0,0,0,.4-.026.7.7,0,0,0,.61-.532,2.114,2.114,0,0,0-.065-.406l-1.232-5.1,1.844-.317.413,3.733.02,0,.649-3.916,1.785-.307-1.641,6.108c-.363,1.365-.861,1.795-1.823,1.96a9.783,9.783,0,0,1-1,.13Z" transform="translate(-328.263 -605.087)" fill="#1d1d1b"/>
              <path id="Path_6930" data-name="Path 6930" d="M365.891,623.933c-2.092.359-2.233-.961-2.176-2.6.051-1.479.371-3.024,2.384-3.37,2.092-.359,2.233.961,2.176,2.6C368.223,622.041,367.9,623.587,365.891,623.933Zm.042-1.216c.406-.07.507-.421.557-1.847s-.028-1.757-.435-1.687-.507.421-.557,1.857S365.537,622.784,365.933,622.716Z" transform="translate(-345.929 -602.777)" fill="#1d1d1b"/>
              <path id="Path_6931" data-name="Path 6931" d="M388.035,613.695l1.785-.307-.13,3.743c-.016.472.1.651.413.6s.443-.274.46-.746l.13-3.743,1.785-.307-.2,5.672-1.725.3.024-.692-.02,0a1.68,1.68,0,0,1-1.328,1.062c-.783.135-1.387-.085-1.345-1.3Z" transform="translate(-365.035 -598.846)" fill="#1d1d1b"/>
              <path id="Path_6932" data-name="Path 6932" d="M412.2,609.743l1.725-.3-.031.9.02,0a1.689,1.689,0,0,1,1.236-1.255l.287-.049-.061,1.762a2.194,2.194,0,0,0-.445.035,1.094,1.094,0,0,0-1.036,1.179l-.107,3.093-1.785.307Z" transform="translate(-384.09 -595.771)" fill="#1d1d1b"/>
              <path id="Path_6933" data-name="Path 6933" d="M441.791,595.956l4.194-.721-.055,1.594-2.35.4-.044,1.279,2.2-.378-.053,1.531-2.2.378-.107,3.083-1.844.317Z" transform="translate(-407.425 -584.862)" fill="#1d1d1b"/>
              <path id="Path_6934" data-name="Path 6934" d="M465.859,606.555a2.763,2.763,0,0,1-.087-.621l-.02,0a1.624,1.624,0,0,1-1.237.994c-1.08.186-1.462-.447-1.429-1.412a2.046,2.046,0,0,1,1.55-2.08l.71-.3a.723.723,0,0,0,.547-.709c.012-.346-.13-.5-.438-.446-.347.06-.5.242-.532.842l-1.547.266a2.3,2.3,0,0,1,2.119-2.261c1.249-.215,2.109-.008,2.058,1.46l-.1,2.768a2.6,2.6,0,0,0,.126,1.2Zm-.038-2.036.024-.682-.02,0c-.114.176-.342.194-.614.366a.864.864,0,0,0-.392.8c-.013.377.147.59.415.544C465.631,605.479,465.8,605.148,465.822,604.519Z" transform="translate(-424.456 -589.229)" fill="#1d1d1b"/>
              <path id="Path_6935" data-name="Path 6935" d="M486.463,596.709l1.844-.317.364,3.992.02,0,.638-4.164,1.844-.317-1.506,5.9-2.1.361Z" transform="translate(-442.93 -585.388)" fill="#1d1d1b"/>
              <path id="Path_6936" data-name="Path 6936" d="M511.245,598.962c-2.092.359-2.233-.961-2.176-2.6.051-1.479.371-3.024,2.383-3.37,2.092-.359,2.233.961,2.177,2.6C513.577,597.071,513.257,598.617,511.245,598.962Zm.042-1.217c.406-.07.507-.42.557-1.846s-.028-1.757-.434-1.687-.507.42-.557,1.857S510.89,597.814,511.287,597.746Z" transform="translate(-460.785 -583.046)" fill="#1d1d1b"/>
              <path id="Path_6937" data-name="Path 6937" d="M533.387,588.725l1.784-.307-.13,3.743c-.016.472.1.651.413.6s.443-.274.459-.746l.13-3.743,1.785-.307-.2,5.673-1.725.3.024-.692-.02,0a1.678,1.678,0,0,1-1.328,1.062c-.783.135-1.387-.085-1.344-1.3Z" transform="translate(-479.889 -579.115)" fill="#1d1d1b"/>
              <path id="Path_6938" data-name="Path 6938" d="M557.549,584.773l1.725-.3-.031.9.02,0a1.687,1.687,0,0,1,1.236-1.255l.288-.049-.061,1.762a2.183,2.183,0,0,0-.445.035,1.094,1.094,0,0,0-1.037,1.178l-.107,3.093-1.784.307Z" transform="translate(-498.945 -576.041)" fill="#1d1d1b"/>
              <path id="Path_6939" data-name="Path 6939" d="M574.56,576.509l1.784-.307-.2,5.672-1.784.307Zm.063-1.814,1.784-.307-.049,1.4-1.785.307Z" transform="translate(-512.386 -568.39)" fill="#1d1d1b"/>
              <path id="Path_6940" data-name="Path 6940" d="M585.577,574.884l.595-.1.058-1.667,1.785-.307-.058,1.667.7-.121-.044,1.269-.7.121-.094,2.705c-.011.325.123.417.411.367l.277-.048-.044,1.258a8.494,8.494,0,0,1-.974.23c-1.081.185-1.51.072-1.466-1.187l.1-3.02-.595.1Z" transform="translate(-521.213 -567.141)" fill="#1d1d1b"/>
              <path id="Path_6941" data-name="Path 6941" d="M602.758,580.614l-.026.744c-.022.619.211.725.459.682.317-.055.513-.3.54-1.072l1.606-.276a2.371,2.371,0,0,1-2.176,2.5c-1.715.295-2.251-.437-2.177-2.586.075-2.171.768-3.1,2.384-3.38,1.428-.245,2.128.3,2.057,2.357l-.02.577Zm1.026-1.448c.021-.6-.079-.852-.466-.785-.367.063-.5.356-.516.953l-.009.252.982-.169Z" transform="translate(-533.417 -570.588)" fill="#1d1d1b"/>
              <path id="Path_6942" data-name="Path 6942" d="M637.233,563.119l2.786-.479c1.319-.227,1.908.4,1.869,1.534a1.954,1.954,0,0,1-1.169,1.868v.021c.919-.074,1.276.708,1.249,1.484a2.462,2.462,0,0,1-2.208,2.578l-2.786.479Zm1.633,5.765.516-.089c.347-.06.665-.416.687-1.035.02-.587-.276-.849-.623-.789l-.516.089Zm.109-3.145.446-.077a.827.827,0,0,0,.611-.855c.014-.42-.171-.742-.558-.676l-.446.077Z" transform="translate(-561.86 -559.07)" fill="#1d1d1b"/>
              <path id="Path_6943" data-name="Path 6943" d="M663.4,566.59l1.725-.3-.031.9.02,0a1.687,1.687,0,0,1,1.236-1.255l.287-.049-.061,1.761a2.2,2.2,0,0,0-.445.035,1.094,1.094,0,0,0-1.036,1.178l-.107,3.093-1.785.307Z" transform="translate(-582.582 -561.673)" fill="#1d1d1b"/>
              <path id="Path_6944" data-name="Path 6944" d="M682.044,569.416a2.77,2.77,0,0,1-.087-.621l-.02,0a1.623,1.623,0,0,1-1.237.994c-1.081.186-1.463-.447-1.429-1.412a2.045,2.045,0,0,1,1.551-2.08l.71-.3a.723.723,0,0,0,.547-.709c.012-.346-.13-.5-.438-.446-.347.06-.5.242-.532.842l-1.547.265a2.3,2.3,0,0,1,2.119-2.261c1.249-.215,2.109-.008,2.058,1.46l-.1,2.768a2.6,2.6,0,0,0,.126,1.2Zm-.038-2.037.024-.682-.02,0c-.115.176-.342.195-.614.366a.865.865,0,0,0-.392.8c-.013.378.147.59.415.544C681.815,568.34,681.985,568.008,682.006,567.379Z" transform="translate(-595.281 -559.882)" fill="#1d1d1b"/>
              <path id="Path_6945" data-name="Path 6945" d="M703.891,559.623l1.725-.3-.024.692.02,0a1.68,1.68,0,0,1,1.328-1.062c.783-.135,1.386.085,1.344,1.3l-.149,4.278-1.785.307.13-3.743c.016-.472-.1-.651-.413-.6s-.443.274-.459.746l-.13,3.744-1.785.307Z" transform="translate(-614.581 -556.166)" fill="#1d1d1b"/>
              <path id="Path_6946" data-name="Path 6946" d="M730.911,546.1l1.785-.307-.26,7.487-1.725.3.027-.776-.02,0a1.535,1.535,0,0,1-1.251,1.132c-1.19.2-1.571-.731-1.5-2.828.074-2.139.754-2.975,1.745-3.145a.847.847,0,0,1,1.093.594l.02,0Zm-.712,6.313c.406-.07.508-.442.55-1.658s-.034-1.568-.441-1.5c-.426.073-.518.443-.561,1.67S729.773,552.491,730.2,552.418Z" transform="translate(-633.755 -545.798)" fill="#1d1d1b"/>
              <path id="Path_6947" data-name="Path 6947" d="M753.79,555.488a.885.885,0,0,0,.11.534.344.344,0,0,0,.37.134.618.618,0,0,0,.532-.571c.035-1-2.573.036-2.5-2.114a2.311,2.311,0,0,1,2.193-2.138c1.338-.23,1.992.252,1.951,1.437l-1.547.266c.017-.493-.146-.6-.454-.547a.533.533,0,0,0-.472.518c-.033.944,2.577-.151,2.5,2.03a2.453,2.453,0,0,1-2.217,2.268c-1.5.257-2.079-.3-2.035-1.547Z" transform="translate(-652.926 -550.128)" fill="#1d1d1b"/>
            </g>
          </g>
          <g id="Group_8421" data-name="Group 8421" transform="translate(9.104 7.6)">
            <g id="Group_8420" data-name="Group 8420">
              <path id="Path_6948" data-name="Path 6948" d="M280.045,622.087c1.884-.324,2.49.656,2.393,3.456s-.78,4-2.663,4.325-2.49-.656-2.393-3.456S278.161,622.41,280.045,622.087Zm-.225,6.459c.555-.1.644-.653.714-2.676s.02-2.557-.535-2.462-.644.653-.714,2.676S279.266,628.641,279.821,628.546Z" transform="translate(-277.372 -605.695)" fill="#fff"/>
              <path id="Path_6949" data-name="Path 6949" d="M303.884,626.452l1.725-.3-.024.692.02,0a1.68,1.68,0,0,1,1.328-1.062c.783-.134,1.387.085,1.344,1.3l-.149,4.278-1.785.307.13-3.743c.016-.472-.1-.651-.413-.6s-.443.274-.46.746l-.13,3.743-1.785.307Z" transform="translate(-298.166 -608.634)" fill="#fff"/>
              <path id="Path_6950" data-name="Path 6950" d="M340.027,626.1a1.663,1.663,0,0,0,.395-.026.7.7,0,0,0,.61-.532,2.09,2.09,0,0,0-.065-.406l-1.232-5.1,1.844-.317.413,3.734.02,0,.649-3.916,1.784-.307-1.641,6.108c-.363,1.365-.861,1.795-1.822,1.96a9.867,9.867,0,0,1-1,.13Z" transform="translate(-326.65 -603.476)" fill="#fff"/>
              <path id="Path_6951" data-name="Path 6951" d="M364.279,622.32c-2.092.359-2.233-.961-2.176-2.6.051-1.479.371-3.024,2.384-3.37,2.092-.359,2.233.961,2.177,2.6C366.612,620.429,366.292,621.975,364.279,622.32Zm.042-1.216c.406-.07.507-.421.557-1.847s-.028-1.757-.434-1.687-.507.42-.557,1.857S363.925,621.172,364.321,621.1Z" transform="translate(-344.317 -601.165)" fill="#fff"/>
              <path id="Path_6952" data-name="Path 6952" d="M386.422,612.083l1.785-.307-.13,3.743c-.017.472.1.651.413.6s.443-.274.46-.746l.13-3.744,1.785-.307-.2,5.672-1.725.3.024-.692-.02,0a1.679,1.679,0,0,1-1.328,1.062c-.783.135-1.387-.085-1.345-1.3Z" transform="translate(-363.422 -597.234)" fill="#fff"/>
              <path id="Path_6953" data-name="Path 6953" d="M410.583,608.132l1.725-.3-.031.9.02,0a1.688,1.688,0,0,1,1.236-1.255l.287-.049-.061,1.761a2.2,2.2,0,0,0-.445.035,1.094,1.094,0,0,0-1.036,1.178l-.107,3.093-1.785.307Z" transform="translate(-382.477 -594.16)" fill="#fff"/>
              <path id="Path_6954" data-name="Path 6954" d="M440.179,594.344l4.194-.721-.055,1.594-2.35.4-.044,1.279,2.2-.378-.053,1.531-2.2.378-.107,3.083-1.844.317Z" transform="translate(-405.813 -583.25)" fill="#fff"/>
              <path id="Path_6955" data-name="Path 6955" d="M464.246,604.943a2.759,2.759,0,0,1-.087-.621l-.02,0a1.623,1.623,0,0,1-1.237.994c-1.081.185-1.463-.447-1.429-1.412a2.046,2.046,0,0,1,1.551-2.08l.71-.3a.722.722,0,0,0,.547-.709c.012-.346-.13-.5-.438-.446-.347.06-.5.243-.532.842l-1.547.266a2.3,2.3,0,0,1,2.119-2.261c1.249-.214,2.109-.008,2.058,1.46l-.1,2.768a2.6,2.6,0,0,0,.125,1.2Zm-.038-2.036.023-.681-.02,0c-.115.176-.342.195-.614.366a.864.864,0,0,0-.392.8c-.013.378.147.59.415.544C464.018,603.867,464.187,603.536,464.209,602.906Z" transform="translate(-422.844 -587.617)" fill="#fff"/>
              <path id="Path_6956" data-name="Path 6956" d="M484.852,595.1l1.844-.317.364,3.992.02,0,.638-4.164,1.844-.317-1.506,5.9-2.1.361Z" transform="translate(-441.318 -583.777)" fill="#fff"/>
              <path id="Path_6957" data-name="Path 6957" d="M509.631,597.35c-2.092.359-2.233-.961-2.176-2.6.051-1.479.371-3.024,2.384-3.37,2.092-.359,2.233.961,2.176,2.6C511.964,595.458,511.644,597,509.631,597.35Zm.042-1.216c.407-.07.507-.42.557-1.847s-.027-1.757-.434-1.687-.507.421-.557,1.857S509.277,596.2,509.674,596.133Z" transform="translate(-459.171 -581.434)" fill="#fff"/>
              <path id="Path_6958" data-name="Path 6958" d="M531.775,587.113l1.784-.307-.13,3.743c-.017.472.1.651.413.6s.443-.274.46-.746l.13-3.743,1.785-.307-.2,5.672-1.725.3.024-.692-.02,0a1.679,1.679,0,0,1-1.328,1.062c-.783.135-1.387-.085-1.345-1.3Z" transform="translate(-478.277 -577.503)" fill="#fff"/>
              <path id="Path_6959" data-name="Path 6959" d="M555.936,583.161l1.725-.3-.031.9.02,0a1.689,1.689,0,0,1,1.236-1.255l.287-.049-.061,1.761a2.189,2.189,0,0,0-.445.035,1.094,1.094,0,0,0-1.036,1.179l-.107,3.093-1.784.307Z" transform="translate(-497.332 -574.429)" fill="#fff"/>
              <path id="Path_6960" data-name="Path 6960" d="M572.948,574.9l1.784-.307-.2,5.672-1.784.307Zm.063-1.814,1.785-.307-.049,1.405-1.785.306Z" transform="translate(-510.774 -566.777)" fill="#fff"/>
              <path id="Path_6961" data-name="Path 6961" d="M583.965,573.271l.6-.1.058-1.667,1.784-.307-.058,1.667.7-.121L587,574.01l-.7.121-.094,2.7c-.011.325.123.417.411.367l.278-.048-.044,1.258a8.537,8.537,0,0,1-.974.23c-1.081.186-1.51.072-1.466-1.186l.1-3.02-.6.1Z" transform="translate(-519.601 -565.528)" fill="#fff"/>
              <path id="Path_6962" data-name="Path 6962" d="M601.145,579l-.026.745c-.022.619.211.724.459.682.317-.055.513-.3.54-1.073l1.606-.276a2.371,2.371,0,0,1-2.176,2.5c-1.715.295-2.251-.437-2.177-2.586.076-2.171.768-3.1,2.384-3.38,1.428-.245,2.128.3,2.057,2.357l-.02.577Zm1.026-1.448c.021-.6-.079-.851-.465-.785-.367.063-.5.356-.516.954l-.009.252.981-.168Z" transform="translate(-531.803 -568.976)" fill="#fff"/>
              <path id="Path_6963" data-name="Path 6963" d="M635.62,561.507l2.786-.478c1.319-.227,1.908.4,1.868,1.534a1.954,1.954,0,0,1-1.169,1.868v.021c.919-.075,1.276.708,1.25,1.484a2.463,2.463,0,0,1-2.208,2.579l-2.786.478Zm1.633,5.765.516-.089c.347-.06.665-.417.686-1.035.021-.587-.276-.849-.623-.79l-.516.089Zm.109-3.146.446-.077a.827.827,0,0,0,.611-.856c.015-.419-.171-.742-.558-.675l-.446.077Z" transform="translate(-560.247 -557.458)" fill="#fff"/>
              <path id="Path_6964" data-name="Path 6964" d="M661.783,564.977l1.725-.3-.031.9.019,0a1.689,1.689,0,0,1,1.236-1.255l.287-.049-.061,1.762a2.192,2.192,0,0,0-.445.035,1.094,1.094,0,0,0-1.036,1.179l-.107,3.093-1.785.307Z" transform="translate(-580.97 -560.06)" fill="#fff"/>
              <path id="Path_6965" data-name="Path 6965" d="M680.432,567.8a2.74,2.74,0,0,1-.087-.621l-.02,0a1.623,1.623,0,0,1-1.237.994c-1.081.186-1.463-.447-1.43-1.412a2.046,2.046,0,0,1,1.551-2.08l.71-.3a.723.723,0,0,0,.547-.709c.012-.346-.13-.5-.438-.446-.347.06-.5.243-.532.842l-1.547.266a2.3,2.3,0,0,1,2.119-2.261c1.249-.215,2.109-.008,2.058,1.46l-.1,2.768a2.6,2.6,0,0,0,.126,1.2Zm-.038-2.036.023-.682-.02,0c-.115.176-.342.194-.614.366a.864.864,0,0,0-.392.8c-.013.377.147.59.415.544C680.2,566.728,680.372,566.4,680.394,565.768Z" transform="translate(-593.668 -558.27)" fill="#fff"/>
              <path id="Path_6966" data-name="Path 6966" d="M702.279,558.012l1.725-.3-.024.692.02,0a1.678,1.678,0,0,1,1.328-1.062c.783-.135,1.387.085,1.344,1.3l-.149,4.278-1.785.307.13-3.743c.016-.472-.1-.651-.413-.6s-.443.274-.459.746l-.13,3.743-1.785.307Z" transform="translate(-612.969 -554.554)" fill="#fff"/>
              <path id="Path_6967" data-name="Path 6967" d="M729.3,544.493l1.785-.306-.26,7.486-1.725.3.027-.776-.02,0a1.535,1.535,0,0,1-1.252,1.132c-1.19.2-1.571-.731-1.5-2.828.074-2.139.753-2.975,1.745-3.145a.848.848,0,0,1,1.093.594l.02,0Zm-.712,6.314c.406-.07.508-.441.55-1.658s-.034-1.568-.441-1.5c-.426.073-.518.444-.561,1.67S728.16,550.88,728.587,550.807Z" transform="translate(-632.143 -544.187)" fill="#fff"/>
              <path id="Path_6968" data-name="Path 6968" d="M752.177,553.877a.887.887,0,0,0,.11.533.344.344,0,0,0,.37.135.619.619,0,0,0,.532-.571c.035-1-2.573.036-2.5-2.114a2.311,2.311,0,0,1,2.193-2.138c1.338-.23,1.992.252,1.951,1.437l-1.547.266c.017-.493-.147-.6-.454-.547a.533.533,0,0,0-.471.519c-.033.943,2.578-.151,2.5,2.03a2.452,2.452,0,0,1-2.217,2.268c-1.5.257-2.079-.3-2.035-1.547Z" transform="translate(-651.313 -548.517)" fill="#fff"/>
            </g>
          </g>
        </g>
      </g>
    </g>
  </g>
</svg>
