<svg xmlns="http://www.w3.org/2000/svg" xmlns:xlink="http://www.w3.org/1999/xlink" width="89.964" height="117.925" viewBox="0 0 89.964 117.925">
  <defs>
    <linearGradient id="linear-gradient" x1="-0.381" y1="-19.011" x2="0.638" y2="-19.011" gradientUnits="objectBoundingBox">
      <stop offset="0.311" stop-color="#84002d"/>
      <stop offset="1" stop-color="#ed1c24" stop-opacity="0"/>
    </linearGradient>
    <linearGradient id="linear-gradient-2" x1="0.362" y1="0.593" x2="1.356" y2="0.593" gradientUnits="objectBoundingBox">
      <stop offset="0" stop-color="#b81435"/>
      <stop offset="1" stop-color="#eb3636"/>
    </linearGradient>
    <linearGradient id="linear-gradient-3" x1="-0.235" y1="-14.533" x2="0.684" y2="-14.533" gradientUnits="objectBoundingBox">
      <stop offset="0" stop-color="#84002d"/>
      <stop offset="1" stop-color="#ed1c24" stop-opacity="0"/>
    </linearGradient>
    <linearGradient id="linear-gradient-4" x1="-3.044" y1="14.079" x2="-1.923" y2="14.079" xlink:href="#linear-gradient-2"/>
    <linearGradient id="linear-gradient-5" x1="-1.881" y1="17.234" x2="-0.794" y2="17.234" xlink:href="#linear-gradient-3"/>
    <linearGradient id="linear-gradient-6" x1="-2.467" y1="28.169" x2="-1.514" y2="28.169" xlink:href="#linear-gradient"/>
    <linearGradient id="linear-gradient-7" x1="-3.056" y1="14.868" x2="-1.842" y2="14.868" xlink:href="#linear-gradient-2"/>
    <linearGradient id="linear-gradient-8" x1="-5.215" y1="20.738" x2="-4.038" y2="20.738" xlink:href="#linear-gradient-3"/>
    <linearGradient id="linear-gradient-9" x1="-6.253" y1="35.015" x2="-5.306" y2="35.015" xlink:href="#linear-gradient"/>
    <linearGradient id="linear-gradient-10" x1="180.979" y1="-81.229" x2="181.997" y2="-81.229" xlink:href="#linear-gradient"/>
    <linearGradient id="linear-gradient-11" x1="72.688" y1="-4.245" x2="73.683" y2="-4.245" xlink:href="#linear-gradient-2"/>
    <linearGradient id="linear-gradient-12" x1="112.159" y1="-62.141" x2="113.078" y2="-62.141" xlink:href="#linear-gradient-3"/>
    <linearGradient id="linear-gradient-13" x1="45.827" y1="56.18" x2="46.949" y2="56.18" xlink:href="#linear-gradient-2"/>
    <linearGradient id="linear-gradient-14" x1="118.368" y1="70.24" x2="119.455" y2="70.24" xlink:href="#linear-gradient-3"/>
    <linearGradient id="linear-gradient-15" x1="151.38" y1="116.155" x2="152.333" y2="116.155" xlink:href="#linear-gradient"/>
    <linearGradient id="linear-gradient-16" x1="65.464" y1="59.88" x2="66.678" y2="59.88" xlink:href="#linear-gradient-2"/>
    <linearGradient id="linear-gradient-17" x1="110.884" y1="84.924" x2="112.062" y2="84.924" xlink:href="#linear-gradient-3"/>
    <linearGradient id="linear-gradient-18" x1="132.664" y1="144.836" x2="133.611" y2="144.836" xlink:href="#linear-gradient"/>
    <linearGradient id="linear-gradient-19" x1="180.129" y1="-110.659" x2="181.145" y2="-110.659" xlink:href="#linear-gradient"/>
    <linearGradient id="linear-gradient-20" x1="74.658" y1="-17.462" x2="75.657" y2="-17.462" xlink:href="#linear-gradient-2"/>
    <linearGradient id="linear-gradient-21" x1="107.858" y1="-91.991" x2="108.744" y2="-91.991" xlink:href="#linear-gradient-3"/>
    <linearGradient id="linear-gradient-22" x1="49.118" y1="54.18" x2="50.17" y2="54.18" xlink:href="#linear-gradient-2"/>
    <linearGradient id="linear-gradient-23" x1="127.066" y1="60.262" x2="128.122" y2="60.262" xlink:href="#linear-gradient-3"/>
    <linearGradient id="linear-gradient-24" x1="175.785" y1="94.696" x2="176.787" y2="94.696" xlink:href="#linear-gradient"/>
    <linearGradient id="linear-gradient-25" x1="68.226" y1="59.868" x2="69.337" y2="59.868" xlink:href="#linear-gradient-2"/>
    <linearGradient id="linear-gradient-26" x1="118.588" y1="77.895" x2="119.694" y2="77.895" xlink:href="#linear-gradient-3"/>
    <linearGradient id="linear-gradient-27" x1="154.217" y1="127.353" x2="155.185" y2="127.353" xlink:href="#linear-gradient"/>
    <linearGradient id="linear-gradient-28" x1="11.424" y1="7.178" x2="12.441" y2="7.178" xlink:href="#linear-gradient"/>
    <linearGradient id="linear-gradient-29" x1="3.391" y1="12.57" x2="4.39" y2="12.57" xlink:href="#linear-gradient-2"/>
    <linearGradient id="linear-gradient-30" x1="6.817" y1="5.849" x2="7.703" y2="5.849" xlink:href="#linear-gradient-3"/>
    <linearGradient id="linear-gradient-31" x1="-5.091" y1="24.86" x2="-4.04" y2="24.86" xlink:href="#linear-gradient-2"/>
    <linearGradient id="linear-gradient-32" x1="-4.605" y1="32.024" x2="-3.548" y2="32.024" xlink:href="#linear-gradient-3"/>
    <linearGradient id="linear-gradient-33" x1="-6.41" y1="50.167" x2="-5.408" y2="50.167" xlink:href="#linear-gradient"/>
    <linearGradient id="linear-gradient-34" x1="-5.732" y1="27.152" x2="-4.621" y2="27.152" xlink:href="#linear-gradient-2"/>
    <linearGradient id="linear-gradient-35" x1="-10.029" y1="35.138" x2="-8.923" y2="35.138" xlink:href="#linear-gradient-3"/>
    <linearGradient id="linear-gradient-36" x1="-13.067" y1="57.227" x2="-12.1" y2="57.227" xlink:href="#linear-gradient"/>
    <linearGradient id="linear-gradient-37" x1="-74.23" y1="-26.754" x2="-73.037" y2="-26.754" xlink:href="#linear-gradient-2"/>
    <linearGradient id="linear-gradient-38" x1="-128.009" y1="-32.722" x2="-126.894" y2="-32.722" xlink:href="#linear-gradient-3"/>
    <linearGradient id="linear-gradient-39" x1="-41.376" y1="-29.367" x2="-39.968" y2="-29.367" xlink:href="#linear-gradient-2"/>
    <linearGradient id="linear-gradient-40" x1="-83.732" y1="-58.46" x2="-82.651" y2="-58.46" xlink:href="#linear-gradient-3"/>
    <linearGradient id="linear-gradient-41" x1="-109.117" y1="-98.348" x2="-108.154" y2="-98.348" xlink:href="#linear-gradient"/>
    <linearGradient id="linear-gradient-42" x1="-51.629" y1="-37.215" x2="-50.258" y2="-37.215" xlink:href="#linear-gradient-2"/>
    <linearGradient id="linear-gradient-43" x1="-68.145" y1="-63.994" x2="-67.119" y2="-63.994" xlink:href="#linear-gradient-3"/>
    <linearGradient id="linear-gradient-44" x1="-94.003" y1="-103.342" x2="-93.053" y2="-103.342" xlink:href="#linear-gradient"/>
    <linearGradient id="linear-gradient-45" x1="-49.379" y1="3.208" x2="-48.381" y2="3.208" xlink:href="#linear-gradient-2"/>
    <linearGradient id="linear-gradient-46" x1="-78.552" y1="18.861" x2="-77.626" y2="18.861" xlink:href="#linear-gradient-3"/>
    <linearGradient id="linear-gradient-47" x1="-36.056" y1="-17.323" x2="-34.926" y2="-17.323" xlink:href="#linear-gradient-2"/>
    <linearGradient id="linear-gradient-48" x1="-85.626" y1="-22.754" x2="-84.534" y2="-22.754" xlink:href="#linear-gradient-3"/>
    <linearGradient id="linear-gradient-49" x1="-109.241" y1="-38.376" x2="-108.29" y2="-38.376" xlink:href="#linear-gradient"/>
    <linearGradient id="linear-gradient-50" x1="-50.37" y1="-18.688" x2="-49.143" y2="-18.688" xlink:href="#linear-gradient-2"/>
    <linearGradient id="linear-gradient-51" x1="-86.213" y1="-27.313" x2="-85.027" y2="-27.313" xlink:href="#linear-gradient-3"/>
    <linearGradient id="linear-gradient-52" x1="-102.753" y1="-47.258" x2="-101.805" y2="-47.258" xlink:href="#linear-gradient"/>
    <linearGradient id="linear-gradient-53" x1="-14.831" y1="-33.408" x2="-13.833" y2="-33.408" xlink:href="#linear-gradient-2"/>
    <linearGradient id="linear-gradient-54" x1="-30.402" y1="-72.805" x2="-29.515" y2="-72.805" xlink:href="#linear-gradient-3"/>
    <linearGradient id="linear-gradient-55" x1="-50.972" y1="-87.568" x2="-49.955" y2="-87.568" xlink:href="#linear-gradient"/>
    <linearGradient id="linear-gradient-56" x1="-0.023" y1="-15.147" x2="1.029" y2="-15.147" xlink:href="#linear-gradient-2"/>
    <linearGradient id="linear-gradient-57" x1="-3.208" y1="-26.89" x2="-2.151" y2="-26.89" xlink:href="#linear-gradient-3"/>
    <linearGradient id="linear-gradient-58" x1="-4.471" y1="-42.766" x2="-3.47" y2="-42.766" xlink:href="#linear-gradient"/>
    <linearGradient id="linear-gradient-59" x1="0.767" y1="-16.276" x2="1.878" y2="-16.276" xlink:href="#linear-gradient-2"/>
    <linearGradient id="linear-gradient-60" x1="1.337" y1="-21.616" x2="2.443" y2="-21.616" xlink:href="#linear-gradient-3"/>
    <linearGradient id="linear-gradient-61" x1="1.74" y1="-35.868" x2="2.707" y2="-35.868" xlink:href="#linear-gradient"/>
    <linearGradient id="linear-gradient-62" x1="-19.857" y1="-64.041" x2="-18.781" y2="-64.041" xlink:href="#linear-gradient-2"/>
    <linearGradient id="linear-gradient-63" x1="-49.617" y1="-105.309" x2="-48.58" y2="-105.309" xlink:href="#linear-gradient-3"/>
    <linearGradient id="linear-gradient-64" x1="-70.515" y1="-159.321" x2="-69.507" y2="-159.321" xlink:href="#linear-gradient"/>
    <linearGradient id="linear-gradient-65" x1="11.069" y1="-26.846" x2="12.354" y2="-26.846" xlink:href="#linear-gradient-2"/>
    <linearGradient id="linear-gradient-66" x1="13.545" y1="-54.433" x2="14.712" y2="-54.433" xlink:href="#linear-gradient-3"/>
    <linearGradient id="linear-gradient-67" x1="16.17" y1="-92.359" x2="17.129" y2="-92.359" xlink:href="#linear-gradient"/>
    <linearGradient id="linear-gradient-68" x1="15.641" y1="-30.353" x2="16.976" y2="-30.353" xlink:href="#linear-gradient-2"/>
    <linearGradient id="linear-gradient-69" x1="23.651" y1="-47.708" x2="24.799" y2="-47.708" xlink:href="#linear-gradient-3"/>
    <linearGradient id="linear-gradient-70" x1="29.64" y1="-81.835" x2="30.611" y2="-81.835" xlink:href="#linear-gradient"/>
  </defs>
  <g id="Group_9306" data-name="Group 9306" transform="translate(-1620.036 -905)">
    <g id="Group_8454" data-name="Group 8454" transform="translate(1575.976 784.404)">
      <path id="Path_7016" data-name="Path 7016" d="M108.845,131.53a32.2,32.2,0,0,1,5.814,11.575,22.275,22.275,0,0,1-1.944,16.785,24.172,24.172,0,0,1-8.48,7.963,97.1,97.1,0,0,1-9.614,4.929c-2.511,1.16-5.538,1.708-7.5,3.81a23.431,23.431,0,0,0-2.7,3.985,35.3,35.3,0,0,1-15.99,14.082,13.153,13.153,0,0,1-4.925,1.4,5.851,5.851,0,0,1-4.651-1.788c-2.039-2.353-1.284-5.832-2.617-8.5-1.568-3.137-4.914-4.819-6.955-7.584a9.539,9.539,0,0,1-2.038-6.967c.372-2.373,1.938-4.491,1.987-6.892.105-5.132-6.55-7.611-4.915-13.043a9.756,9.756,0,0,1,5.7-5.891c3.754-1.572,7.7-.726,11.57-1.562a41.346,41.346,0,0,0,8.857-3.257A112.662,112.662,0,0,0,84.8,132.292c.214-.143.851-.762,1.12-.762Z" transform="translate(0 -6.528)" fill="#254a7f"/>
      <path id="Path_7018" data-name="Path 7018" d="M166.269,201.177l-.649-4.5h-6.628l-.664,4.6a2.031,2.031,0,0,1-2.008,1.736c-3.722.008-6.63.205-6.63,1.3,0,1.668,6.839,3.7,12.918,3.7s11.632-2.41,11.632-4.077c0-1.1-2.473-1.132-5.9-1.026A2.032,2.032,0,0,1,166.269,201.177Z" transform="translate(-63.061 -45.421)" fill="#f5c5af"/>
      <g id="Group_8429" data-name="Group 8429" transform="translate(99.758 157.564)">
        <g id="Group_8428" data-name="Group 8428" transform="translate(7.378 0)">
          <path id="Path_7019" data-name="Path 7019" d="M213.3,242.584c-4.727-4.715-9.742-13.1-10.916-15.035-1.526-2.513-.535-7.142-1.745-12.764-.529-2.456,2.281-3.469,5.4-1.156,2.788,2.068,10.911,16.121,14.414,24.931l-2.513-.8S216.159,239.487,213.3,242.584Z" transform="translate(-200.576 -212.329)" fill="#aee2fa"/>
        </g>
        <path id="Path_7020" data-name="Path 7020" d="M211.7,238.36l10.175,17.7-1.905,1.929-6.318-7.475Z" transform="translate(-199.837 -227.869)" fill="#aee2fa" style="mix-blend-mode: multiply;isolation: isolate"/>
        <path id="Path_7021" data-name="Path 7021" d="M210.629,261.876c-1.145-3.195-6.326-12.009-6.326-12.009s2.235,10.409-1.858,11.412c-4.8,1.176-11.875,3.106-20.072,5.966l0,.073-.089,2.951-.012.42a61.782,61.782,0,0,0,16.537.949,63.9,63.9,0,0,0,7.308-1.244,2.455,2.455,0,0,1,.588-.133C207.97,270.3,212.968,268.4,210.629,261.876Z" transform="translate(-182.269 -234.739)" fill="#aee2fa"/>
      </g>
      <path id="Path_7022" data-name="Path 7022" d="M163.626,212.615c-12.346,5.748-17.536.439-20.676.294-1.126-.052-1.115,7.531-2.525,15.363-1.861,10.34-5.906,26.555-3.021,31.278,5.475,8.961,33.318,9.584,34.232-1.178.633-7.456-2.221-21.214-4.626-31.8C165.323,219.155,165.49,211.747,163.626,212.615Z" transform="translate(-55.126 -54.894)" fill="#aee2fa"/>
      <path id="Path_7023" data-name="Path 7023" d="M149.54,295.767a27.056,27.056,0,0,1-11.809-9.221c-1.292,7.364-2.06,14.345-.327,17.182,5.475,8.961,33.318,9.584,34.232-1.178a42.73,42.73,0,0,0-.2-7.471A26.982,26.982,0,0,1,149.54,295.767Z" transform="translate(-55.126 -99.073)" fill="#aee2fa" opacity="0.46" style="mix-blend-mode: multiply;isolation: isolate"/>
      <path id="Path_7037" data-name="Path 7037" d="M171.88,197.688l-.488,3.385A7.636,7.636,0,0,0,175,202.112a8.14,8.14,0,0,0,4.1-1.244l-.474-3.283a12.143,12.143,0,0,1-6.749.1Z" transform="translate(-76.018 -45.963)" fill="#f5c5af" opacity="0.38" style="mix-blend-mode: multiply;isolation: isolate"/>
      <path id="Path_7039" data-name="Path 7039" d="M173.893,140.131c-.1,3.638-3.636,5.883-9.456,6.33-5.717.439-10.671-2.763-10.574-6.4s4.666-6,10.1-5.858S173.99,136.492,173.893,140.131Z" transform="translate(-65.552 -8.118)" fill="#f5c5af"/>
      <g id="Group_8436" data-name="Group 8436" transform="translate(108.622 136.53)">
        <path id="Path_7040" data-name="Path 7040" d="M204.461,162.325s2.115-2.914,3.367-.328-.349,5.366-1.535,5.619-2-1.182-2-1.182" transform="translate(-204.284 -160.607)" fill="#3b4055" opacity="0.4" style="mix-blend-mode: multiply;isolation: isolate"/>
        <path id="Path_7041" data-name="Path 7041" d="M204.429,161.532s2.115-2.914,3.367-.327-.349,5.366-1.535,5.619-2-1.182-2-1.182" transform="translate(-204.265 -160.134)" fill="#f5c5af"/>
        <path id="Path_7042" data-name="Path 7042" d="M204.429,161.532s2.115-2.914,3.367-.327-.349,5.366-1.535,5.619-2-1.182-2-1.182" transform="translate(-204.265 -160.134)" fill="#f5c5af"/>
      </g>
      <g id="Group_8437" data-name="Group 8437" transform="translate(84.991 138.153)">
        <path id="Path_7043" data-name="Path 7043" d="M149.357,166.2s-2.321-2.752-3.382-.081.738,5.327,1.94,5.492,1.9-1.324,1.9-1.324" transform="translate(-145.643 -164.635)" fill="#3b4055" opacity="0.4" style="mix-blend-mode: multiply;isolation: isolate"/>
        <path id="Path_7044" data-name="Path 7044" d="M149.332,165.41s-2.321-2.753-3.382-.082.738,5.327,1.94,5.492,1.9-1.324,1.9-1.324" transform="translate(-145.628 -164.162)" fill="#f5c5af"/>
        <path id="Path_7045" data-name="Path 7045" d="M149.332,165.41s-2.321-2.753-3.382-.082.738,5.327,1.94,5.492,1.9-1.324,1.9-1.324" transform="translate(-145.628 -164.162)" fill="#f5c5af"/>
      </g>
      <path id="Path_7046" data-name="Path 7046" d="M165.076,187.369c-4.652,0-8.651-4.008-10.435-7.762,1.269,5.924,6.374,10.367,10.357,10.367,4.147,0,8.893-4.2,10.264-9.879C173.374,183.585,169.523,187.369,165.076,187.369Z" transform="translate(-66.017 -35.23)" fill="#f5c5af" opacity="0.14" style="mix-blend-mode: multiply;isolation: isolate"/>
      <path id="Path_7047" data-name="Path 7047" d="M142.006,215.322l3.928,3.359,2.474-4.476S145.663,212.412,142.006,215.322Z" transform="translate(-58.474 -55.559)" fill="#aee2fa"/>
      <path id="Path_7049" data-name="Path 7049" d="M132.645,238.84,121.476,257.4l2.264-.177,6.7-7.477Z" transform="translate(-46.218 -70.592)" fill="#aee2fa"/>
      <path id="Path_7050" data-name="Path 7050" d="M154.88,134.194s.539,6.154-9.456,8c-4.9.907-13.333,1.973-14.605,7.411" transform="translate(-51.796 -8.118)" fill="none" stroke="#2690b5" stroke-miterlimit="10" stroke-width="2" style="mix-blend-mode: multiply;isolation: isolate"/>
      <g id="Group_8438" data-name="Group 8438" transform="translate(72.832 157.716)">
        <path id="Path_7051" data-name="Path 7051" d="M122.056,242.677a95.858,95.858,0,0,0,6.246-13.107c1.1-2.725,3.51-9.376,3.8-15.12.129-2.509-3.708-2.285-6.416.5-2.421,2.488-8.19,17.66-10.236,26.918l2.351-1.2S118.74,240.077,122.056,242.677Z" transform="translate(-115.455 -212.706)" fill="#aee2fa"/>
      </g>
      <path id="Path_7052" data-name="Path 7052" d="M129.737,147.709c-4.706,1.647-12.873,3.995-13.3,9.563" transform="translate(-43.212 -16.187)" fill="none" stroke="#2690b5" stroke-miterlimit="10" stroke-width="2" style="mix-blend-mode: multiply;isolation: isolate"/>
      <path id="Path_7053" data-name="Path 7053" d="M135.752,236.5l-8.645,18.455,1.905,1.929,4.79-8.531Z" transform="translate(-49.58 -69.193)" fill="#aee2fa" style="mix-blend-mode: multiply;isolation: isolate"/>
      <g id="Group_8451" data-name="Group 8451" transform="translate(83.5 165.146)">
        <g id="Group_8448" data-name="Group 8448">
          <path id="Path_7054" data-name="Path 7054" d="M193.4,260.663a2.95,2.95,0,0,0,.667.079,2.9,2.9,0,0,1-.648-.147,3.753,3.753,0,0,1-.6-.263c-.108-.062-.214-.127-.316-.2.148.042.3.075.45.1a3.729,3.729,0,0,0,.672.054,2.877,2.877,0,0,0,.648-.073,2.98,2.98,0,0,1-.651,0,3.7,3.7,0,0,1-.641-.121,3.759,3.759,0,0,1-.6-.225,3.373,3.373,0,0,1-.351-.189l.023-.006c.1-.021.2-.05.3-.063a3.852,3.852,0,0,1,.633-.054,3.747,3.747,0,0,1,.65.058,2.884,2.884,0,0,1,.638.183,2.924,2.924,0,0,0-.623-.252,4,4,0,0,0-.671-.132,4.476,4.476,0,0,0-.605-.019,4.262,4.262,0,0,1,.492-.215,3.87,3.87,0,0,1,.636-.16,2.9,2.9,0,0,1,.679-.034,3.041,3.041,0,0,0-.7-.037,4.25,4.25,0,0,0-.684.094,3.484,3.484,0,0,0-.717.171,1.563,1.563,0,0,0-.4.2.35.35,0,0,0-.156.283.388.388,0,0,0,.112.209c.065.079.137.153.21.227.11.113.224.224.341.334.084.08.169.159.257.236l.012.01a4.22,4.22,0,0,0,.567.393,3.019,3.019,0,0,0,.636.281,2.9,2.9,0,0,1-.59-.337,3.917,3.917,0,0,1-.495-.429,4.186,4.186,0,0,1-.368-.451,4.506,4.506,0,0,0,.536.273A3.987,3.987,0,0,0,193.4,260.663Z" transform="translate(-171.54 -247.744)" fill="url(#linear-gradient)" style="mix-blend-mode: multiply;isolation: isolate"/>
          <path id="Path_7055" data-name="Path 7055" d="M187.188,260.073c-2.6.678-4.358,3.111-5.2,5.483a9.918,9.918,0,0,0,.195,6.849,20.513,20.513,0,0,1,.783,7.546" transform="translate(-165.529 -248.414)" fill="none" stroke="#707070" stroke-miterlimit="10" stroke-width="1.225"/>
          <g id="Group_8439" data-name="Group 8439" transform="translate(19.906 5.45)">
            <path id="Path_7056" data-name="Path 7056" d="M192.089,257.306a24.6,24.6,0,0,1,2.247-1.02c1.209-.436,2.975.308,4.161.718a.385.385,0,0,1,.187.108.392.392,0,0,1,.011.346,8.032,8.032,0,0,1-.949,2.351,2.717,2.717,0,0,1-2.087,1.284,3.135,3.135,0,0,1-2.1-.972c-.674-.624-1.343-1.3-1.963-1.981C191.594,258.14,191.361,257.65,192.089,257.306Z" transform="translate(-191.463 -251.524)" fill="url(#linear-gradient-2)"/>
            <path id="Path_7057" data-name="Path 7057" d="M191.9,258.176a8.385,8.385,0,0,1,2.393-.746,6.4,6.4,0,0,1,1.662-.068c.367.107-.137,1.351-.218,1.585a2.693,2.693,0,0,1-.746,1.254c-1.163.945-2.4-.348-3.23-1.18a.361.361,0,0,1-.085-.431C191.722,258.5,191.744,258.259,191.9,258.176Z" transform="translate(-191.509 -252.229)" fill="url(#linear-gradient-3)" style="mix-blend-mode: multiply;isolation: isolate"/>
            <path id="Path_7058" data-name="Path 7058" d="M191.989,250.778c.592-1.233,1.065-2.8,2.15-3.726a6.614,6.614,0,0,1,1.57-.9l2.021-.926a1.274,1.274,0,0,1,.758-.172c.567.115.737.949.9,1.408A5.591,5.591,0,0,1,199.77,250c-.985,3.037-5.169,2.259-7.585,2C192.185,252.006,191.532,251.728,191.989,250.778Z" transform="translate(-191.623 -244.888)" fill="url(#linear-gradient-4)"/>
            <path id="Path_7059" data-name="Path 7059" d="M191.733,254.879a8.3,8.3,0,0,1,1.086-2.426,5.609,5.609,0,0,1,1.108-1.281c.341-.173.967,1.311,1.094,1.58a3.741,3.741,0,0,1,.465,1.672c-.07,1.7-1.95,1.449-3.185,1.314a.467.467,0,0,1-.4-.324C191.867,255.3,191.691,255.065,191.733,254.879Z" transform="translate(-191.563 -248.542)" fill="url(#linear-gradient-5)" style="mix-blend-mode: multiply;isolation: isolate"/>
            <path id="Path_7060" data-name="Path 7060" d="M194.208,257.849a2.466,2.466,0,0,0,.529-.42,2.421,2.421,0,0,1-.568.344,3.184,3.184,0,0,1-.625.2c-.125.024-.25.044-.375.056a3.916,3.916,0,0,0,.395-.239,3.167,3.167,0,0,0,.512-.446,2.607,2.607,0,0,0,.4-.54,2.547,2.547,0,0,1-.454.479,3.047,3.047,0,0,1-.542.363,3.148,3.148,0,0,1-.6.241,2.95,2.95,0,0,1-.394.089l.011-.023c.054-.093.1-.191.163-.279a3.38,3.38,0,0,1,.4-.513,3.191,3.191,0,0,1,.5-.426,2.412,2.412,0,0,1,.59-.3,2.461,2.461,0,0,0-.634.231,3.311,3.311,0,0,0-.572.374,3.877,3.877,0,0,0-.438.427,4.522,4.522,0,0,1,.174-.554A3.75,3.75,0,0,1,193,256.3a2.555,2.555,0,0,1,.448-.53,2.6,2.6,0,0,0-.516.479,3.9,3.9,0,0,0-.4.587,3.335,3.335,0,0,0-.366.68,1.69,1.69,0,0,0-.12.478.482.482,0,0,0,.113.367.446.446,0,0,0,.243.106c.108.023.216.036.326.05.166.021.333.036.5.049.122.009.243.018.365.022h.017a3.818,3.818,0,0,0,.706-.064,2.561,2.561,0,0,0,.666-.215,2.525,2.525,0,0,1-.677.131,3.675,3.675,0,0,1-.683-.021,4.236,4.236,0,0,1-.612-.133,3.9,3.9,0,0,0,.589-.149A3.3,3.3,0,0,0,194.208,257.849Z" transform="translate(-191.749 -251.298)" fill="url(#linear-gradient-6)" style="mix-blend-mode: multiply;isolation: isolate"/>
            <path id="Path_7061" data-name="Path 7061" d="M191.346,250.6c.235-1.4.285-3.057,1.364-4.081a13.689,13.689,0,0,1,1.45-1.147l.872-.628c.549-.4,1.151.8,1.388,1.171a4.752,4.752,0,0,1,.934,2.4c.052,2.794-3.548,2.983-5.577,3.242C191.777,251.561,191.2,251.461,191.346,250.6Z" transform="translate(-191.322 -244.666)" fill="url(#linear-gradient-7)"/>
            <path id="Path_7062" data-name="Path 7062" d="M191.429,253.848a9.15,9.15,0,0,1,.439-2.733,4.935,4.935,0,0,1,1.068-1.372c.312-.221,1.149,1.156,1.313,1.4a3.737,3.737,0,0,1,.7,1.586c.18,1.693-1.77,1.774-3.012,1.822a.469.469,0,0,1-.441-.262A.857.857,0,0,1,191.429,253.848Z" transform="translate(-191.384 -247.683)" fill="url(#linear-gradient-8)" style="mix-blend-mode: multiply;isolation: isolate"/>
            <path id="Path_7063" data-name="Path 7063" d="M193.676,256.494a2.448,2.448,0,0,0,.461-.492,2.428,2.428,0,0,1-.512.424,3.187,3.187,0,0,1-.588.293c-.12.042-.241.079-.363.111a3.979,3.979,0,0,0,.356-.294,3.2,3.2,0,0,0,.441-.516,2.584,2.584,0,0,0,.312-.593,2.539,2.539,0,0,1-.379.54,3.053,3.053,0,0,1-.484.438,3.124,3.124,0,0,1-.557.326,2.974,2.974,0,0,1-.376.146c0-.008,0-.016.007-.024.04-.1.072-.2.12-.3a3.4,3.4,0,0,1,.32-.566,3.185,3.185,0,0,1,.432-.495,2.431,2.431,0,0,1,.54-.388,2.478,2.478,0,0,0-.593.322,3.308,3.308,0,0,0-.511.454,3.852,3.852,0,0,0-.371.487,4.568,4.568,0,0,1,.091-.573,3.773,3.773,0,0,1,.226-.65,2.566,2.566,0,0,1,.366-.59,2.6,2.6,0,0,0-.44.549,3.9,3.9,0,0,0-.314.64,3.313,3.313,0,0,0-.263.726,1.675,1.675,0,0,0-.048.49.482.482,0,0,0,.166.347.444.444,0,0,0,.255.069c.11.007.22,0,.329,0,.168,0,.335-.013.5-.025.122-.008.243-.017.365-.031l.017,0a3.843,3.843,0,0,0,.689-.167,2.559,2.559,0,0,0,.627-.31,2.538,2.538,0,0,1-.651.229,3.686,3.686,0,0,1-.679.079,4.306,4.306,0,0,1-.625-.042,3.835,3.835,0,0,0,.561-.234A3.3,3.3,0,0,0,193.676,256.494Z" transform="translate(-191.456 -250.569)" fill="url(#linear-gradient-9)" style="mix-blend-mode: multiply;isolation: isolate"/>
          </g>
          <g id="Group_8441" data-name="Group 8441" transform="translate(7.202 3.62)">
            <path id="Path_7064" data-name="Path 7064" d="M174.264,256.122a2.928,2.928,0,0,1-.667.079,2.927,2.927,0,0,0,.648-.147,3.793,3.793,0,0,0,.6-.263c.108-.062.214-.127.316-.2-.148.042-.3.075-.45.1a3.724,3.724,0,0,1-.672.054,2.852,2.852,0,0,1-.648-.073,2.927,2.927,0,0,0,.651,0,3.661,3.661,0,0,0,.641-.12,3.761,3.761,0,0,0,.6-.225,3.418,3.418,0,0,0,.352-.189l-.023-.006c-.1-.021-.2-.05-.3-.063a3.81,3.81,0,0,0-.633-.054,3.748,3.748,0,0,0-.65.058,2.909,2.909,0,0,0-.638.183,2.924,2.924,0,0,1,.623-.252,3.963,3.963,0,0,1,.671-.131,4.467,4.467,0,0,1,.605-.019,4.314,4.314,0,0,0-.492-.215,3.873,3.873,0,0,0-.636-.159,2.9,2.9,0,0,0-.679-.035,3.065,3.065,0,0,1,.7-.037,4.255,4.255,0,0,1,.684.094,3.465,3.465,0,0,1,.717.171,1.531,1.531,0,0,1,.4.2.349.349,0,0,1,.156.282.387.387,0,0,1-.112.209c-.065.079-.137.153-.21.227-.11.114-.224.224-.341.334-.084.079-.169.159-.257.235l-.012.011a4.215,4.215,0,0,1-.567.393,3.063,3.063,0,0,1-.636.281,2.918,2.918,0,0,0,.59-.337,3.881,3.881,0,0,0,.495-.429,4.223,4.223,0,0,0,.368-.45,4.462,4.462,0,0,1-.536.272A3.971,3.971,0,0,1,174.264,256.122Z" transform="translate(-167.911 -248.653)" fill="url(#linear-gradient-10)" style="mix-blend-mode: multiply;isolation: isolate"/>
            <path id="Path_7065" data-name="Path 7065" d="M176.062,255.532c2.6.678,4.358,3.111,5.2,5.483a9.916,9.916,0,0,1-.195,6.85,20.52,20.52,0,0,0-.783,7.546" transform="translate(-169.508 -249.323)" fill="none" stroke="#707070" stroke-miterlimit="10" stroke-width="1.225"/>
            <g id="Group_8440" data-name="Group 8440">
              <path id="Path_7066" data-name="Path 7066" d="M169.024,252.765c-.736-.353-1.479-.743-2.247-1.02-1.209-.436-2.975.308-4.161.718a.383.383,0,0,0-.187.109.392.392,0,0,0-.011.346,8.042,8.042,0,0,0,.949,2.351,2.717,2.717,0,0,0,2.087,1.284,3.134,3.134,0,0,0,2.1-.972c.674-.624,1.343-1.3,1.963-1.981C169.519,253.6,169.752,253.109,169.024,252.765Z" transform="translate(-161.342 -246.983)" fill="url(#linear-gradient-11)"/>
              <path id="Path_7067" data-name="Path 7067" d="M173.245,253.636a8.372,8.372,0,0,0-2.393-.746,6.412,6.412,0,0,0-1.662-.068c-.367.107.137,1.351.218,1.585a2.693,2.693,0,0,0,.746,1.254c1.163.945,2.4-.347,3.23-1.18a.361.361,0,0,0,.085-.431C173.42,253.962,173.4,253.718,173.245,253.636Z" transform="translate(-165.327 -247.688)" fill="url(#linear-gradient-12)" style="mix-blend-mode: multiply;isolation: isolate"/>
              <path id="Path_7068" data-name="Path 7068" d="M167.741,246.237c-.592-1.233-1.065-2.8-2.15-3.727a6.614,6.614,0,0,0-1.57-.9L162,240.681a1.274,1.274,0,0,0-.758-.172c-.567.115-.738.949-.9,1.408a5.591,5.591,0,0,0-.383,3.546c.985,3.037,5.169,2.259,7.585,2C167.545,247.465,168.2,247.187,167.741,246.237Z" transform="translate(-159.8 -240.347)" fill="url(#linear-gradient-13)"/>
              <path id="Path_7069" data-name="Path 7069" d="M174.43,250.338a8.3,8.3,0,0,0-1.086-2.426,5.619,5.619,0,0,0-1.108-1.281c-.341-.173-.967,1.312-1.094,1.581a3.738,3.738,0,0,0-.465,1.672c.07,1.7,1.95,1.45,3.185,1.314a.469.469,0,0,0,.4-.324C174.3,250.76,174.473,250.524,174.43,250.338Z" transform="translate(-166.292 -244.001)" fill="url(#linear-gradient-14)" style="mix-blend-mode: multiply;isolation: isolate"/>
              <path id="Path_7070" data-name="Path 7070" d="M173.177,253.308a2.465,2.465,0,0,1-.529-.419,2.431,2.431,0,0,0,.568.344,3.183,3.183,0,0,0,.625.2c.125.024.249.044.375.056a3.972,3.972,0,0,1-.395-.238,3.2,3.2,0,0,1-.512-.446,2.6,2.6,0,0,1-.4-.541,2.549,2.549,0,0,0,.454.479,3.043,3.043,0,0,0,.542.362,3.146,3.146,0,0,0,.6.241,2.967,2.967,0,0,0,.394.089l-.011-.023c-.054-.092-.1-.191-.163-.279a3.418,3.418,0,0,0-.4-.513,3.187,3.187,0,0,0-.5-.426,2.417,2.417,0,0,0-.59-.3,2.465,2.465,0,0,1,.634.231,3.318,3.318,0,0,1,.572.374,3.882,3.882,0,0,1,.438.427,4.542,4.542,0,0,0-.174-.554,3.749,3.749,0,0,0-.319-.609,2.567,2.567,0,0,0-.448-.53,2.594,2.594,0,0,1,.516.479,3.866,3.866,0,0,1,.4.587,3.329,3.329,0,0,1,.366.679,1.68,1.68,0,0,1,.12.478.483.483,0,0,1-.113.368.448.448,0,0,1-.243.106c-.108.023-.216.036-.326.05-.166.021-.333.036-.5.049-.122.009-.243.019-.365.022h-.017a3.815,3.815,0,0,1-.706-.064,2.561,2.561,0,0,1-.666-.215,2.523,2.523,0,0,0,.677.131,3.678,3.678,0,0,0,.683-.021,4.292,4.292,0,0,0,.612-.133,3.8,3.8,0,0,1-.589-.149A3.309,3.309,0,0,1,173.177,253.308Z" transform="translate(-167.329 -246.757)" fill="url(#linear-gradient-15)" style="mix-blend-mode: multiply;isolation: isolate"/>
              <path id="Path_7071" data-name="Path 7071" d="M171.452,246.06c-.235-1.4-.285-3.057-1.364-4.082a13.793,13.793,0,0,0-1.45-1.147l-.872-.628c-.548-.4-1.151.8-1.388,1.171a4.752,4.752,0,0,0-.934,2.4c-.052,2.794,3.548,2.983,5.577,3.242C171.021,247.02,171.6,246.92,171.452,246.06Z" transform="translate(-163.169 -240.125)" fill="url(#linear-gradient-16)"/>
              <path id="Path_7072" data-name="Path 7072" d="M175.062,249.308a9.148,9.148,0,0,0-.439-2.733,4.941,4.941,0,0,0-1.068-1.372c-.312-.221-1.149,1.156-1.313,1.4a3.737,3.737,0,0,0-.7,1.586c-.18,1.693,1.77,1.774,3.012,1.822a.469.469,0,0,0,.441-.262A.856.856,0,0,0,175.062,249.308Z" transform="translate(-166.8 -243.142)" fill="url(#linear-gradient-17)" style="mix-blend-mode: multiply;isolation: isolate"/>
              <path id="Path_7073" data-name="Path 7073" d="M173.682,251.953a2.448,2.448,0,0,1-.461-.492,2.415,2.415,0,0,0,.512.424,3.165,3.165,0,0,0,.588.293c.12.042.241.079.363.111a3.969,3.969,0,0,1-.356-.294,3.194,3.194,0,0,1-.441-.516,2.6,2.6,0,0,1-.312-.593,2.549,2.549,0,0,0,.379.54,3.069,3.069,0,0,0,.484.438,3.162,3.162,0,0,0,.557.326,3.009,3.009,0,0,0,.377.146l-.008-.024c-.04-.1-.072-.2-.12-.3a3.412,3.412,0,0,0-.32-.566,3.171,3.171,0,0,0-.432-.495,2.408,2.408,0,0,0-.54-.387,2.461,2.461,0,0,1,.593.321,3.3,3.3,0,0,1,.511.454,3.877,3.877,0,0,1,.371.487,4.578,4.578,0,0,0-.091-.573,3.768,3.768,0,0,0-.226-.649,2.576,2.576,0,0,0-.366-.59,2.6,2.6,0,0,1,.44.549,3.92,3.92,0,0,1,.314.64,3.311,3.311,0,0,1,.263.726,1.679,1.679,0,0,1,.048.491.482.482,0,0,1-.166.347.444.444,0,0,1-.255.069c-.11.006-.22,0-.329,0-.168,0-.335-.013-.5-.025-.122-.008-.243-.018-.365-.031l-.017,0a3.807,3.807,0,0,1-.689-.167,2.574,2.574,0,0,1-.627-.311,2.538,2.538,0,0,0,.651.229,3.69,3.69,0,0,0,.679.079,4.25,4.25,0,0,0,.625-.042,3.872,3.872,0,0,1-.561-.234A3.313,3.313,0,0,1,173.682,251.953Z" transform="translate(-167.595 -246.028)" fill="url(#linear-gradient-18)" style="mix-blend-mode: multiply;isolation: isolate"/>
            </g>
          </g>
          <g id="Group_8443" data-name="Group 8443" transform="translate(0 4.38)">
            <path id="Path_7074" data-name="Path 7074" d="M157.957,256.152a2.925,2.925,0,0,1-.626.245,2.916,2.916,0,0,0,.59-.305,3.737,3.737,0,0,0,.513-.4c.089-.087.175-.177.256-.269-.133.078-.271.148-.409.212a3.769,3.769,0,0,1-.637.221,2.872,2.872,0,0,1-.645.093,2.94,2.94,0,0,0,.63-.162,3.685,3.685,0,0,0,.59-.278,3.8,3.8,0,0,0,.526-.369,3.406,3.406,0,0,0,.293-.271h-.024c-.1.006-.206,0-.31.016a3.866,3.866,0,0,0-.626.107,3.785,3.785,0,0,0-.615.22,2.906,2.906,0,0,0-.571.338,2.943,2.943,0,0,1,.539-.4,3.989,3.989,0,0,1,.616-.3,4.522,4.522,0,0,1,.581-.171,4.35,4.35,0,0,0-.53-.085,3.917,3.917,0,0,0-.655.006,2.884,2.884,0,0,0-.666.138,3.035,3.035,0,0,1,.665-.211,4.253,4.253,0,0,1,.686-.081,3.509,3.509,0,0,1,.737-.015,1.55,1.55,0,0,1,.44.1.348.348,0,0,1,.222.234.384.384,0,0,1-.055.231c-.043.093-.094.183-.146.273-.078.137-.161.274-.245.409-.062.1-.124.2-.19.293l-.009.013a4.292,4.292,0,0,1-.45.523,3.031,3.031,0,0,1-.545.432,2.887,2.887,0,0,0,.486-.475,3.883,3.883,0,0,0,.371-.54,4.171,4.171,0,0,0,.243-.528,4.5,4.5,0,0,1-.45.4A3.967,3.967,0,0,1,157.957,256.152Z" transform="translate(-150.791 -249.413)" fill="url(#linear-gradient-19)" style="mix-blend-mode: multiply;isolation: isolate"/>
            <path id="Path_7075" data-name="Path 7075" d="M159.4,255.584c2.69,0,5,1.913,6.416,4a9.917,9.917,0,0,1,1.537,6.678,20.517,20.517,0,0,0,1.142,7.5" transform="translate(-152.359 -250.114)" fill="none" stroke="#707070" stroke-miterlimit="10" stroke-width="1.225"/>
            <g id="Group_8442" data-name="Group 8442">
              <path id="Path_7076" data-name="Path 7076" d="M152.291,253.217a24.658,24.658,0,0,0-2.431-.422c-1.279-.118-2.8,1.048-3.845,1.742a.385.385,0,0,0-.154.152.393.393,0,0,0,.076.338,8.04,8.04,0,0,0,1.511,2.036,2.716,2.716,0,0,0,2.343.717,3.131,3.131,0,0,0,1.788-1.47c.5-.773.971-1.6,1.4-2.412C152.981,253.9,153.082,253.366,152.291,253.217Z" transform="translate(-144.266 -248.444)" fill="url(#linear-gradient-20)"/>
              <path id="Path_7077" data-name="Path 7077" d="M156.281,253.871a8.365,8.365,0,0,0-2.5-.119,6.383,6.383,0,0,0-1.625.353c-.328.2.473,1.273.61,1.478a2.689,2.689,0,0,0,1.038,1.026c1.364.622,2.233-.94,2.828-1.955a.36.36,0,0,0-.027-.438C156.534,254.143,156.451,253.912,156.281,253.871Z" transform="translate(-147.985 -248.997)" fill="url(#linear-gradient-21)" style="mix-blend-mode: multiply;isolation: isolate"/>
              <path id="Path_7078" data-name="Path 7078" d="M150.232,248.056c-.884-1.044-1.737-2.444-3.018-3.065a6.615,6.615,0,0,0-1.747-.478l-2.189-.388a1.28,1.28,0,0,0-.777.025c-.52.254-.475,1.1-.515,1.589a5.594,5.594,0,0,0,.522,3.528c1.718,2.691,5.571.885,7.845.027C150.351,249.294,150.913,248.861,150.232,248.056Z" transform="translate(-141.927 -243.244)" fill="url(#linear-gradient-22)"/>
              <path id="Path_7079" data-name="Path 7079" d="M157.6,250.4a8.3,8.3,0,0,0-1.662-2.074,5.6,5.6,0,0,0-1.4-.96c-.373-.082-.606,1.513-.661,1.8a3.746,3.746,0,0,0-.029,1.735c.5,1.629,2.252.912,3.414.47a.467.467,0,0,0,.3-.414C157.574,250.844,157.686,250.571,157.6,250.4Z" transform="translate(-148.991 -245.207)" fill="url(#linear-gradient-23)" style="mix-blend-mode: multiply;isolation: isolate"/>
              <path id="Path_7080" data-name="Path 7080" d="M157,253.587a2.464,2.464,0,0,1-.617-.272,2.418,2.418,0,0,0,.637.19,3.2,3.2,0,0,0,.656.039c.127-.008.253-.021.377-.04a3.935,3.935,0,0,1-.442-.131,3.2,3.2,0,0,1-.608-.3,2.583,2.583,0,0,1-.519-.424,2.543,2.543,0,0,0,.56.349,3.034,3.034,0,0,0,.616.214,3.131,3.131,0,0,0,.64.083,3,3,0,0,0,.4-.013l-.017-.019c-.076-.076-.145-.16-.228-.23a3.412,3.412,0,0,0-.516-.4,3.207,3.207,0,0,0-.592-.287,2.425,2.425,0,0,0-.648-.145,2.474,2.474,0,0,1,.672.064,3.338,3.338,0,0,1,.648.218,3.846,3.846,0,0,1,.532.3,4.49,4.49,0,0,0-.308-.492,3.76,3.76,0,0,0-.462-.51,2.58,2.58,0,0,0-.567-.4,2.589,2.589,0,0,1,.62.334,3.863,3.863,0,0,1,.539.466,3.318,3.318,0,0,1,.526.566,1.678,1.678,0,0,1,.236.432.484.484,0,0,1-.017.384.447.447,0,0,1-.208.163c-.1.049-.2.09-.3.13-.156.062-.314.119-.472.174-.115.04-.231.079-.348.114l-.016,0a3.8,3.8,0,0,1-.7.116,2.583,2.583,0,0,1-.7-.04,2.539,2.539,0,0,0,.688-.044,3.694,3.694,0,0,0,.656-.193,4.3,4.3,0,0,0,.559-.283,3.877,3.877,0,0,1-.608,0A3.3,3.3,0,0,1,157,253.587Z" transform="translate(-150.551 -247.608)" fill="url(#linear-gradient-24)" style="mix-blend-mode: multiply;isolation: isolate"/>
              <path id="Path_7081" data-name="Path 7081" d="M153.8,246.78c-.579-1.293-1.045-2.887-2.347-3.606a13.721,13.721,0,0,0-1.692-.745l-1-.388c-.631-.244-.912,1.068-1.048,1.483a4.75,4.75,0,0,0-.3,2.561c.654,2.717,4.185,1.993,6.214,1.733C153.627,247.817,154.163,247.574,153.8,246.78Z" transform="translate(-145.156 -242.01)" fill="url(#linear-gradient-25)"/>
              <path id="Path_7082" data-name="Path 7082" d="M157.974,249.077a9.159,9.159,0,0,0-1.113-2.534,4.948,4.948,0,0,0-1.379-1.059c-.357-.136-.821,1.408-.918,1.689a3.74,3.74,0,0,0-.283,1.712c.252,1.684,2.16,1.272,3.373,1a.468.468,0,0,0,.361-.365A.854.854,0,0,0,157.974,249.077Z" transform="translate(-149.29 -244.079)" fill="url(#linear-gradient-26)" style="mix-blend-mode: multiply;isolation: isolate"/>
              <path id="Path_7083" data-name="Path 7083" d="M157.049,252.017a2.456,2.456,0,0,1-.571-.36,2.419,2.419,0,0,0,.6.281,3.167,3.167,0,0,0,.643.135c.127.01.253.017.379.016a3.834,3.834,0,0,1-.418-.195,3.176,3.176,0,0,1-.557-.388,2.577,2.577,0,0,1-.451-.5,2.53,2.53,0,0,0,.5.428,3.027,3.027,0,0,0,.578.3,3.147,3.147,0,0,0,.62.175,2.936,2.936,0,0,0,.4.046l-.013-.021c-.064-.086-.12-.18-.192-.26a3.418,3.418,0,0,0-.452-.467,3.206,3.206,0,0,0-.543-.37,2.436,2.436,0,0,0-.619-.239,2.463,2.463,0,0,1,.655.162,3.3,3.3,0,0,1,.609.311,3.859,3.859,0,0,1,.482.378,4.6,4.6,0,0,0-.233-.532,3.763,3.763,0,0,0-.383-.571,2.548,2.548,0,0,0-.5-.479,2.611,2.611,0,0,1,.565.421,3.891,3.891,0,0,1,.465.54,3.319,3.319,0,0,1,.437.637,1.663,1.663,0,0,1,.17.463.483.483,0,0,1-.073.377.447.447,0,0,1-.23.131c-.1.034-.212.059-.318.084-.163.038-.328.072-.492.1-.12.022-.24.044-.361.061l-.017,0a3.819,3.819,0,0,1-.708.012,2.561,2.561,0,0,1-.685-.142,2.512,2.512,0,0,0,.687.057,3.668,3.668,0,0,0,.677-.094,4.274,4.274,0,0,0,.594-.2,3.86,3.86,0,0,1-.6-.085A3.294,3.294,0,0,1,157.049,252.017Z" transform="translate(-150.531 -246.704)" fill="url(#linear-gradient-27)" style="mix-blend-mode: multiply;isolation: isolate"/>
            </g>
          </g>
          <g id="Group_8445" data-name="Group 8445" transform="translate(14.441)">
            <path id="Path_7084" data-name="Path 7084" d="M199.236,245.284a2.944,2.944,0,0,0,.626.244,2.9,2.9,0,0,1-.59-.305,3.769,3.769,0,0,1-.513-.405c-.089-.088-.175-.177-.256-.27.133.078.271.148.409.212a3.741,3.741,0,0,0,.637.221,2.873,2.873,0,0,0,.645.093,2.926,2.926,0,0,1-.63-.163,3.685,3.685,0,0,1-.59-.278,3.767,3.767,0,0,1-.526-.37,3.469,3.469,0,0,1-.293-.271h.024c.1.005.206,0,.31.016a3.708,3.708,0,0,1,1.242.326,2.925,2.925,0,0,1,.571.338,2.947,2.947,0,0,0-.539-.4,4.007,4.007,0,0,0-.616-.3,4.442,4.442,0,0,0-.581-.171,4.272,4.272,0,0,1,.53-.085,3.873,3.873,0,0,1,.655.006,2.878,2.878,0,0,1,.666.138,3.036,3.036,0,0,0-.665-.211,4.256,4.256,0,0,0-.686-.081,3.478,3.478,0,0,0-.737-.015,1.55,1.55,0,0,0-.44.1.348.348,0,0,0-.222.234.384.384,0,0,0,.055.23c.043.093.095.183.146.273.078.138.161.274.245.409.062.1.124.2.19.293l.009.013a4.223,4.223,0,0,0,.45.523,3.024,3.024,0,0,0,.545.433,2.9,2.9,0,0,1-.486-.475,3.905,3.905,0,0,1-.371-.54,4.146,4.146,0,0,1-.243-.529,4.5,4.5,0,0,0,.45.4A4,4,0,0,0,199.236,245.284Z" transform="translate(-189.644 -238.544)" fill="url(#linear-gradient-28)" style="mix-blend-mode: multiply;isolation: isolate"/>
            <path id="Path_7085" data-name="Path 7085" d="M187.477,244.716c-2.69,0-5,1.913-6.416,4a9.917,9.917,0,0,0-1.537,6.678,84.773,84.773,0,0,1-1.763,15.394" transform="translate(-177.762 -239.246)" fill="none" stroke="#707070" stroke-miterlimit="10" stroke-width="1.225"/>
            <g id="Group_8444" data-name="Group 8444" transform="translate(7.986)">
              <path id="Path_7086" data-name="Path 7086" d="M198.4,242.349a24.569,24.569,0,0,1,2.431-.422c1.28-.118,2.8,1.048,3.845,1.742a.385.385,0,0,1,.154.152.392.392,0,0,1-.076.338,8.026,8.026,0,0,1-1.511,2.036,2.717,2.717,0,0,1-2.343.717,3.134,3.134,0,0,1-1.788-1.47c-.5-.773-.971-1.6-1.4-2.412C197.714,243.032,197.612,242.5,198.4,242.349Z" transform="translate(-197.657 -237.576)" fill="url(#linear-gradient-29)"/>
              <path id="Path_7087" data-name="Path 7087" d="M198.152,243a8.377,8.377,0,0,1,2.5-.119,6.415,6.415,0,0,1,1.625.353c.328.2-.473,1.273-.61,1.479a2.691,2.691,0,0,1-1.038,1.026c-1.364.622-2.233-.94-2.828-1.955a.361.361,0,0,1,.027-.438C197.9,243.274,197.983,243.043,198.152,243Z" transform="translate(-197.678 -238.129)" fill="url(#linear-gradient-30)" style="mix-blend-mode: multiply;isolation: isolate"/>
              <path id="Path_7088" data-name="Path 7088" d="M198.238,237.188c.884-1.044,1.737-2.444,3.018-3.065a6.6,6.6,0,0,1,1.747-.478l2.189-.388a1.279,1.279,0,0,1,.777.025c.52.254.475,1.1.515,1.589a5.6,5.6,0,0,1-.522,3.528c-1.718,2.691-5.571.885-7.845.027C198.118,238.425,197.557,237.993,198.238,237.188Z" transform="translate(-197.771 -232.376)" fill="url(#linear-gradient-31)"/>
              <path id="Path_7089" data-name="Path 7089" d="M197.937,239.533a8.3,8.3,0,0,1,1.662-2.074,5.622,5.622,0,0,1,1.4-.96c.373-.082.606,1.513.661,1.8a3.741,3.741,0,0,1,.029,1.735c-.5,1.629-2.252.912-3.414.469a.468.468,0,0,1-.3-.414C197.961,239.975,197.849,239.7,197.937,239.533Z" transform="translate(-197.773 -234.338)" fill="url(#linear-gradient-32)" style="mix-blend-mode: multiply;isolation: isolate"/>
              <path id="Path_7090" data-name="Path 7090" d="M200.139,242.719a2.466,2.466,0,0,0,.617-.272,2.434,2.434,0,0,1-.636.19,3.2,3.2,0,0,1-.656.039c-.127-.008-.253-.021-.377-.04a3.926,3.926,0,0,0,.442-.131,3.188,3.188,0,0,0,.608-.3,2.589,2.589,0,0,0,.519-.424,2.552,2.552,0,0,1-.56.349,3.073,3.073,0,0,1-.617.214,3.158,3.158,0,0,1-.639.082,2.934,2.934,0,0,1-.4-.012l.016-.019c.076-.076.145-.16.228-.229a3.434,3.434,0,0,1,.516-.4,3.208,3.208,0,0,1,.592-.287,2.424,2.424,0,0,1,.648-.145,2.457,2.457,0,0,0-.672.064,3.313,3.313,0,0,0-.648.218,3.9,3.9,0,0,0-.532.3,4.557,4.557,0,0,1,.308-.492,3.731,3.731,0,0,1,.462-.509,2.558,2.558,0,0,1,.567-.4,2.6,2.6,0,0,0-.62.333,3.9,3.9,0,0,0-.539.466,3.311,3.311,0,0,0-.526.565,1.68,1.68,0,0,0-.236.433.482.482,0,0,0,.017.384.445.445,0,0,0,.208.163c.1.049.2.089.3.13.156.062.314.119.472.173.115.04.231.079.348.114l.016,0a3.807,3.807,0,0,0,.7.115,2.55,2.55,0,0,0,.7-.04,2.524,2.524,0,0,1-.688-.044,3.7,3.7,0,0,1-.656-.192,4.342,4.342,0,0,1-.559-.283,3.873,3.873,0,0,0,.608,0A3.338,3.338,0,0,0,200.139,242.719Z" transform="translate(-197.812 -236.74)" fill="url(#linear-gradient-33)" style="mix-blend-mode: multiply;isolation: isolate"/>
              <path id="Path_7091" data-name="Path 7091" d="M197.7,235.912c.579-1.292,1.045-2.887,2.347-3.606a13.726,13.726,0,0,1,1.692-.745l1-.388c.631-.244.912,1.068,1.049,1.482a4.754,4.754,0,0,1,.3,2.561c-.653,2.717-4.184,1.993-6.214,1.733C197.879,236.949,197.343,236.706,197.7,235.912Z" transform="translate(-197.579 -231.142)" fill="url(#linear-gradient-34)"/>
              <path id="Path_7092" data-name="Path 7092" d="M197.713,238.208a9.167,9.167,0,0,1,1.113-2.534,4.947,4.947,0,0,1,1.379-1.059c.357-.135.82,1.408.918,1.689a3.742,3.742,0,0,1,.282,1.713c-.252,1.684-2.159,1.271-3.374,1a.468.468,0,0,1-.361-.365A.854.854,0,0,1,197.713,238.208Z" transform="translate(-197.626 -233.21)" fill="url(#linear-gradient-35)" style="mix-blend-mode: multiply;isolation: isolate"/>
              <path id="Path_7093" data-name="Path 7093" d="M199.936,241.149a2.47,2.47,0,0,0,.571-.36,2.421,2.421,0,0,1-.6.281,3.2,3.2,0,0,1-.643.135c-.127.01-.253.016-.379.016a3.832,3.832,0,0,0,.418-.195,3.186,3.186,0,0,0,.557-.388,2.588,2.588,0,0,0,.451-.5,2.553,2.553,0,0,1-.5.428,3.066,3.066,0,0,1-.579.3,3.145,3.145,0,0,1-.62.175,3,3,0,0,1-.4.046l.013-.021c.064-.086.12-.179.192-.26a3.418,3.418,0,0,1,.452-.467,3.181,3.181,0,0,1,.543-.37,2.418,2.418,0,0,1,.62-.239,2.464,2.464,0,0,0-.655.162,3.3,3.3,0,0,0-.609.311,3.83,3.83,0,0,0-.482.378,4.541,4.541,0,0,1,.233-.532,3.76,3.76,0,0,1,.382-.572,2.559,2.559,0,0,1,.5-.478,2.587,2.587,0,0,0-.564.421,3.9,3.9,0,0,0-.465.54,3.312,3.312,0,0,0-.437.636,1.682,1.682,0,0,0-.17.463.484.484,0,0,0,.073.378.45.45,0,0,0,.23.131c.1.034.212.059.319.084.163.038.328.072.492.1.12.022.24.044.36.061l.017,0a3.786,3.786,0,0,0,.708.012,2.576,2.576,0,0,0,.685-.142,2.532,2.532,0,0,1-.687.057,3.71,3.71,0,0,1-.677-.094,4.327,4.327,0,0,1-.594-.2,3.9,3.9,0,0,0,.6-.085A3.317,3.317,0,0,0,199.936,241.149Z" transform="translate(-197.683 -235.836)" fill="url(#linear-gradient-36)" style="mix-blend-mode: multiply;isolation: isolate"/>
            </g>
          </g>
          <path id="Path_7094" data-name="Path 7094" d="M172.316,292.706a11.624,11.624,0,0,0-.329-7.988c-1.1-2.738-3.6-3.838-6.308-4.524" transform="translate(-156.107 -260.426)" fill="none" stroke="#707070" stroke-miterlimit="10" stroke-width="2.16"/>
          <path id="Path_7095" data-name="Path 7095" d="M163.342,294.385s-.142,1.7,2.382,2.791,4.769,1.293,4.889,3.583" transform="translate(-154.711 -268.899)" fill="none" stroke="#707070" stroke-miterlimit="10" stroke-width="2.772"/>
          <g id="Group_8446" data-name="Group 8446" transform="translate(5.161 19.997)">
            <path id="Path_7096" data-name="Path 7096" d="M158.807,290.538a17.023,17.023,0,0,0-.655-1.578c-.405-.792-1.651-1.25-2.445-1.6a.266.266,0,0,0-.146-.033c-.082.013-.132.1-.17.17a5.572,5.572,0,0,0-.63,1.638,1.882,1.882,0,0,0,.449,1.636,2.169,2.169,0,0,0,1.523.5c.636,0,1.3-.025,1.93-.075C158.663,291.194,159.013,291.056,158.807,290.538Z" transform="translate(-154.733 -284.679)" fill="url(#linear-gradient-37)"/>
            <path id="Path_7097" data-name="Path 7097" d="M161.2,292.323a5.792,5.792,0,0,0-.859-1.508,4.428,4.428,0,0,0-.809-.82c-.236-.119-.569.748-.639.905a1.867,1.867,0,0,0-.215.987c.142,1.028,1.378.958,2.192.929a.25.25,0,0,0,.247-.178C161.13,292.571,161.234,292.437,161.2,292.323Z" transform="translate(-157.08 -286.268)" fill="url(#linear-gradient-38)" style="mix-blend-mode: multiply;isolation: isolate"/>
            <path id="Path_7098" data-name="Path 7098" d="M159.445,286.8a7.435,7.435,0,0,0,.673-2.9,4.582,4.582,0,0,0-.368-1.2l-.585-1.424a.887.887,0,0,0-.3-.445c-.341-.21-.822.132-1.12.288a3.877,3.877,0,0,0-1.87,1.614c-.937,2,1.549,3.586,2.894,4.6C158.765,287.328,159.226,287.5,159.445,286.8Z" transform="translate(-155.29 -280.763)" fill="url(#linear-gradient-39)"/>
            <path id="Path_7099" data-name="Path 7099" d="M161.874,292.109a5.755,5.755,0,0,0,.6-1.741,3.89,3.89,0,0,0,.044-1.172c-.091-.249-1.109.207-1.3.283a2.587,2.587,0,0,0-1.025.627c-.769.894.3,1.655.991,2.171a.325.325,0,0,0,.355.024C161.606,292.259,161.808,292.224,161.874,292.109Z" transform="translate(-157.831 -285.754)" fill="url(#linear-gradient-40)" style="mix-blend-mode: multiply;isolation: isolate"/>
            <path id="Path_7100" data-name="Path 7100" d="M160.739,293.1a1.7,1.7,0,0,1-.069-.462,1.672,1.672,0,0,0,.125.442,2.2,2.2,0,0,0,.22.4c.052.071.106.14.163.206a2.76,2.76,0,0,1-.087-.307,2.21,2.21,0,0,1-.048-.468,1.8,1.8,0,0,1,.055-.461,1.768,1.768,0,0,0,0,.457,2.086,2.086,0,0,0,.1.44,2.188,2.188,0,0,0,.189.4,2.109,2.109,0,0,0,.158.231l0-.017c.017-.073.039-.145.05-.218a2.351,2.351,0,0,0,.04-.449,2.195,2.195,0,0,0-.052-.452,1.684,1.684,0,0,0-.155-.433,1.712,1.712,0,0,1,.212.417,2.281,2.281,0,0,1,.112.459,2.65,2.65,0,0,1,.02.424,3.08,3.08,0,0,0,.173-.363,2.554,2.554,0,0,0,.127-.459,1.77,1.77,0,0,0,.024-.48,1.82,1.82,0,0,1,.035.486,2.727,2.727,0,0,1-.073.488,2.3,2.3,0,0,1-.136.517,1.169,1.169,0,0,1-.165.3.335.335,0,0,1-.231.133.308.308,0,0,1-.172-.061c-.065-.039-.127-.084-.189-.129-.094-.069-.186-.139-.276-.212-.066-.052-.132-.106-.2-.161l-.008-.008a2.62,2.62,0,0,1-.327-.366,1.775,1.775,0,0,1-.235-.424,1.739,1.739,0,0,0,.281.386,2.541,2.541,0,0,0,.356.312,2.98,2.98,0,0,0,.372.222,2.664,2.664,0,0,1-.228-.354A2.291,2.291,0,0,1,160.739,293.1Z" transform="translate(-157.957 -287.715)" fill="url(#linear-gradient-41)" style="mix-blend-mode: multiply;isolation: isolate"/>
            <path id="Path_7101" data-name="Path 7101" d="M161.779,288.87c.541-.818,1.3-1.682,1.238-2.71a9.479,9.479,0,0,0-.192-1.266q-.072-.365-.144-.73c-.091-.459-.962-.137-1.255-.063a3.287,3.287,0,0,0-1.609.775c-1.347,1.39.386,3.186,1.29,4.276C161.108,289.152,161.449,289.376,161.779,288.87Z" transform="translate(-157.473 -282.649)" fill="url(#linear-gradient-42)"/>
            <path id="Path_7102" data-name="Path 7102" d="M162.72,292.178a6.345,6.345,0,0,0,1.069-1.591,3.418,3.418,0,0,0,.108-1.2c-.053-.259-1.127.042-1.327.09a2.586,2.586,0,0,0-1.106.47c-.891.772.057,1.734.663,2.345a.324.324,0,0,0,.347.076A.588.588,0,0,0,162.72,292.178Z" transform="translate(-158.534 -285.85)" fill="url(#linear-gradient-43)" style="mix-blend-mode: multiply;isolation: isolate"/>
            <path id="Path_7103" data-name="Path 7103" d="M161.811,292.736a1.7,1.7,0,0,1,0-.467,1.68,1.68,0,0,0,.059.456,2.223,2.223,0,0,0,.16.426c.041.078.084.154.131.227a2.644,2.644,0,0,1-.041-.317,2.2,2.2,0,0,1,.02-.469,1.793,1.793,0,0,1,.122-.448,1.749,1.749,0,0,0-.064.453,2.128,2.128,0,0,0,.037.451,2.16,2.16,0,0,0,.128.428,1.985,1.985,0,0,0,.122.252l.007-.016c.027-.069.06-.137.081-.209a2.342,2.342,0,0,0,.106-.438,2.2,2.2,0,0,0,.015-.455,1.692,1.692,0,0,0-.09-.451,1.724,1.724,0,0,1,.148.443,2.33,2.33,0,0,1,.044.472,2.713,2.713,0,0,1-.042.422,3.13,3.13,0,0,0,.224-.334,2.585,2.585,0,0,0,.193-.436,1.777,1.777,0,0,0,.094-.471,1.813,1.813,0,0,1-.037.486,2.7,2.7,0,0,1-.143.472,2.3,2.3,0,0,1-.21.492,1.159,1.159,0,0,1-.208.271.335.335,0,0,1-.247.1.309.309,0,0,1-.162-.086c-.058-.048-.113-.1-.167-.155-.083-.081-.164-.165-.243-.25-.058-.062-.115-.124-.17-.188l-.008-.009a2.654,2.654,0,0,1-.27-.41,1.785,1.785,0,0,1-.171-.453,1.773,1.773,0,0,0,.221.423,2.584,2.584,0,0,0,.306.361,2.937,2.937,0,0,0,.336.274,2.634,2.634,0,0,1-.173-.383A2.3,2.3,0,0,1,161.811,292.736Z" transform="translate(-158.611 -287.558)" fill="url(#linear-gradient-44)" style="mix-blend-mode: multiply;isolation: isolate"/>
          </g>
          <g id="Group_8447" data-name="Group 8447" transform="translate(2.756 13.428)">
            <path id="Path_7104" data-name="Path 7104" d="M157.88,277.193a24.6,24.6,0,0,0-2.219-1.078c-1.2-.467-2.982.231-4.177.609a.383.383,0,0,0-.19.1.391.391,0,0,0-.02.346,8.023,8.023,0,0,0,.888,2.374,2.716,2.716,0,0,0,2.053,1.338,3.132,3.132,0,0,0,2.125-.917c.69-.606,1.377-1.268,2.014-1.929C158.353,278.04,158.6,277.555,157.88,277.193Z" transform="translate(-150.244 -271.326)" fill="url(#linear-gradient-45)"/>
            <path id="Path_7105" data-name="Path 7105" d="M162.107,278.057a8.362,8.362,0,0,0-2.373-.808,6.4,6.4,0,0,0-1.66-.111c-.369.1.1,1.354.177,1.589a2.7,2.7,0,0,0,.714,1.273c1.138.975,2.406-.285,3.259-1.1a.362.362,0,0,0,.1-.429C162.274,278.388,162.258,278.143,162.107,278.057Z" transform="translate(-154.239 -272.018)" fill="url(#linear-gradient-46)" style="mix-blend-mode: multiply;isolation: isolate"/>
            <path id="Path_7106" data-name="Path 7106" d="M156.657,270.559c-.56-1.247-.992-2.829-2.052-3.781a6.615,6.615,0,0,0-1.547-.943l-2-.979a1.278,1.278,0,0,0-.754-.191c-.57.1-.762.929-.935,1.383a5.6,5.6,0,0,0-.475,3.535c.906,3.062,5.108,2.393,7.531,2.2C156.429,271.781,157.089,271.521,156.657,270.559Z" transform="translate(-148.765 -264.578)" fill="url(#linear-gradient-47)"/>
            <path id="Path_7107" data-name="Path 7107" d="M163.266,274.829a8.313,8.313,0,0,0-1.023-2.453,5.616,5.616,0,0,0-1.075-1.309c-.336-.182-1,1.286-1.134,1.552a3.743,3.743,0,0,0-.508,1.66c.026,1.7,1.911,1.5,3.15,1.4a.468.468,0,0,0,.406-.314C163.12,275.248,163.3,275.017,163.266,274.829Z" transform="translate(-155.189 -268.397)" fill="url(#linear-gradient-48)" style="mix-blend-mode: multiply;isolation: isolate"/>
            <path id="Path_7108" data-name="Path 7108" d="M161.962,277.767a2.464,2.464,0,0,1-.517-.432,2.437,2.437,0,0,0,.559.359,3.219,3.219,0,0,0,.619.219c.124.027.249.05.374.066a3.929,3.929,0,0,1-.388-.249,3.2,3.2,0,0,1-.5-.459,2.6,2.6,0,0,1-.381-.551,2.536,2.536,0,0,0,.442.491,3.061,3.061,0,0,0,.533.376,3.114,3.114,0,0,0,.592.256,2.946,2.946,0,0,0,.392.1l-.01-.023c-.052-.094-.1-.194-.156-.283a3.358,3.358,0,0,0-.386-.523,3.192,3.192,0,0,0-.489-.439,2.433,2.433,0,0,0-.582-.319,2.446,2.446,0,0,1,.627.247,3.3,3.3,0,0,1,.562.389,3.9,3.9,0,0,1,.427.439,4.5,4.5,0,0,0-.16-.559,3.766,3.766,0,0,0-.3-.617,2.556,2.556,0,0,0-.434-.541,2.6,2.6,0,0,1,.5.492,3.874,3.874,0,0,1,.389.6,3.3,3.3,0,0,1,.349.689,1.683,1.683,0,0,1,.107.481.482.482,0,0,1-.123.364.448.448,0,0,1-.245.1c-.108.02-.218.031-.327.041-.167.016-.334.027-.5.036-.122.006-.244.012-.366.013h-.017a3.844,3.844,0,0,1-.7-.083,2.571,2.571,0,0,1-.66-.233,2.526,2.526,0,0,0,.673.149,3.69,3.69,0,0,0,.684,0,4.315,4.315,0,0,0,.615-.117,3.928,3.928,0,0,1-.585-.164A3.333,3.333,0,0,1,161.962,277.767Z" transform="translate(-156.18 -271.18)" fill="url(#linear-gradient-49)" style="mix-blend-mode: multiply;isolation: isolate"/>
            <path id="Path_7109" data-name="Path 7109" d="M160.379,270.5c-.2-1.4-.2-3.064-1.257-4.115a13.77,13.77,0,0,0-1.42-1.184l-.855-.65c-.538-.409-1.172.773-1.418,1.134a4.749,4.749,0,0,0-1,2.378c-.125,2.792,3.469,3.074,5.491,3.386C159.924,271.447,160.507,271.362,160.379,270.5Z" transform="translate(-152.147 -264.464)" fill="url(#linear-gradient-50)"/>
            <path id="Path_7110" data-name="Path 7110" d="M163.923,273.833a9.156,9.156,0,0,0-.368-2.743,4.942,4.942,0,0,0-1.032-1.4c-.305-.229-1.178,1.126-1.349,1.369a3.743,3.743,0,0,0-.746,1.567c-.224,1.688,1.723,1.82,2.963,1.9a.469.469,0,0,0,.448-.251A.855.855,0,0,0,163.923,273.833Z" transform="translate(-155.718 -267.569)" fill="url(#linear-gradient-51)" style="mix-blend-mode: multiply;isolation: isolate"/>
            <path id="Path_7111" data-name="Path 7111" d="M162.512,276.44a2.464,2.464,0,0,1-.449-.5,2.434,2.434,0,0,0,.5.436,3.182,3.182,0,0,0,.581.308c.118.045.238.086.359.12a3.892,3.892,0,0,1-.348-.3,3.179,3.179,0,0,1-.428-.527,2.59,2.59,0,0,1-.3-.6,2.538,2.538,0,0,0,.365.55,3.042,3.042,0,0,0,.472.451,3.124,3.124,0,0,0,.548.34,3.013,3.013,0,0,0,.373.156l-.007-.024c-.037-.1-.066-.206-.112-.3a3.384,3.384,0,0,0-.305-.574,3.2,3.2,0,0,0-.419-.506,2.424,2.424,0,0,0-.53-.4,2.466,2.466,0,0,1,.585.336,3.314,3.314,0,0,1,.5.467,3.837,3.837,0,0,1,.358.5,4.5,4.5,0,0,0-.076-.576,3.758,3.758,0,0,0-.21-.655,2.553,2.553,0,0,0-.35-.6,2.605,2.605,0,0,1,.426.561,3.91,3.91,0,0,1,.3.648,3.323,3.323,0,0,1,.244.733,1.678,1.678,0,0,1,.035.492.482.482,0,0,1-.174.343.447.447,0,0,1-.257.062c-.11,0-.22,0-.33-.007-.167-.008-.334-.022-.5-.038-.121-.012-.243-.024-.364-.041l-.017,0a3.837,3.837,0,0,1-.684-.185,2.571,2.571,0,0,1-.619-.326,2.525,2.525,0,0,0,.644.245,3.719,3.719,0,0,0,.677.1,4.318,4.318,0,0,0,.625-.026,3.846,3.846,0,0,1-.555-.248A3.289,3.289,0,0,1,162.512,276.44Z" transform="translate(-156.475 -270.472)" fill="url(#linear-gradient-52)" style="mix-blend-mode: multiply;isolation: isolate"/>
          </g>
        </g>
        <g id="Group_8449" data-name="Group 8449" transform="translate(18.122 12.82)">
          <path id="Path_7112" data-name="Path 7112" d="M196.84,274.167c.8-.157,1.618-.348,2.431-.424,1.279-.119,2.8,1.046,3.847,1.739a.387.387,0,0,1,.154.152.393.393,0,0,1-.076.338,8.031,8.031,0,0,1-1.509,2.037,2.715,2.715,0,0,1-2.343.719,3.132,3.132,0,0,1-1.789-1.469c-.5-.773-.973-1.6-1.4-2.41C196.152,274.85,196.049,274.317,196.84,274.167Z" transform="translate(-192.419 -269.391)" fill="url(#linear-gradient-53)"/>
          <path id="Path_7113" data-name="Path 7113" d="M196.59,274.822a8.362,8.362,0,0,1,2.5-.121,6.409,6.409,0,0,1,1.625.352c.328.2-.471,1.273-.609,1.479a2.7,2.7,0,0,1-1.038,1.027c-1.364.623-2.234-.939-2.83-1.953a.362.362,0,0,1,.026-.438C196.338,275.094,196.42,274.863,196.59,274.822Z" transform="translate(-192.439 -269.945)" fill="url(#linear-gradient-54)" style="mix-blend-mode: multiply;isolation: isolate"/>
          <path id="Path_7114" data-name="Path 7114" d="M197.675,277.1a2.924,2.924,0,0,0,.626.244,2.91,2.91,0,0,1-.59-.3,3.769,3.769,0,0,1-.513-.4c-.089-.088-.176-.177-.257-.269.133.078.271.148.409.212a3.731,3.731,0,0,0,.638.22,2.849,2.849,0,0,0,.645.092,2.929,2.929,0,0,1-.631-.162,3.628,3.628,0,0,1-.59-.278,3.743,3.743,0,0,1-.527-.369,3.521,3.521,0,0,1-.293-.271h.024c.1.005.206,0,.31.015a3.861,3.861,0,0,1,.626.106,3.8,3.8,0,0,1,.615.219,2.923,2.923,0,0,1,.572.338,2.947,2.947,0,0,0-.54-.4,3.966,3.966,0,0,0-.616-.3,4.52,4.52,0,0,0-.581-.171,4.267,4.267,0,0,1,.53-.085,3.866,3.866,0,0,1,.655.005,2.91,2.91,0,0,1,.667.137,3.044,3.044,0,0,0-.665-.211,4.314,4.314,0,0,0-.686-.081,3.491,3.491,0,0,0-.737-.014,1.535,1.535,0,0,0-.44.1.348.348,0,0,0-.222.234.384.384,0,0,0,.055.23c.044.093.095.183.146.273.078.137.161.274.246.409.062.1.124.2.19.293l.009.013a4.294,4.294,0,0,0,.451.523,3.052,3.052,0,0,0,.545.432,2.91,2.91,0,0,1-.486-.474,3.858,3.858,0,0,1-.371-.54,4.139,4.139,0,0,1-.244-.528,4.5,4.5,0,0,0,.451.4A4,4,0,0,0,197.675,277.1Z" transform="translate(-192.392 -270.362)" fill="url(#linear-gradient-55)" style="mix-blend-mode: multiply;isolation: isolate"/>
          <path id="Path_7115" data-name="Path 7115" d="M196.675,269c.883-1.045,1.735-2.445,3.016-3.067a6.614,6.614,0,0,1,1.747-.48l2.189-.389a1.28,1.28,0,0,1,.777.024c.52.253.476,1.1.517,1.588a5.6,5.6,0,0,1-.52,3.529c-1.716,2.693-5.57.889-7.845.032C196.557,270.239,195.995,269.807,196.675,269Z" transform="translate(-192.533 -264.186)" fill="url(#linear-gradient-56)"/>
          <path id="Path_7116" data-name="Path 7116" d="M196.375,271.352a8.3,8.3,0,0,1,1.661-2.075,5.618,5.618,0,0,1,1.394-.961c.373-.082.607,1.512.662,1.8a3.745,3.745,0,0,1,.029,1.735c-.495,1.63-2.251.913-3.413.472a.467.467,0,0,1-.3-.413C196.4,271.794,196.287,271.522,196.375,271.352Z" transform="translate(-192.535 -266.153)" fill="url(#linear-gradient-57)" style="mix-blend-mode: multiply;isolation: isolate"/>
          <path id="Path_7117" data-name="Path 7117" d="M198.577,274.537a2.456,2.456,0,0,0,.617-.273,2.432,2.432,0,0,1-.636.19,3.2,3.2,0,0,1-.656.039c-.127-.008-.253-.021-.377-.039a3.927,3.927,0,0,0,.442-.132,3.188,3.188,0,0,0,.607-.3,2.578,2.578,0,0,0,.519-.424,2.533,2.533,0,0,1-.56.35,3.025,3.025,0,0,1-.616.215,3.152,3.152,0,0,1-.639.083,3.01,3.01,0,0,1-.4-.012l.016-.019c.076-.076.145-.16.228-.229a3.388,3.388,0,0,1,.516-.4,3.164,3.164,0,0,1,.591-.287,2.411,2.411,0,0,1,.648-.146,2.471,2.471,0,0,0-.671.065,3.336,3.336,0,0,0-.648.219,3.832,3.832,0,0,0-.532.3,4.508,4.508,0,0,1,.307-.492,3.759,3.759,0,0,1,.462-.51,2.573,2.573,0,0,1,.567-.4,2.6,2.6,0,0,0-.62.334,3.883,3.883,0,0,0-.538.466,3.323,3.323,0,0,0-.526.566,1.685,1.685,0,0,0-.236.433.482.482,0,0,0,.017.384.444.444,0,0,0,.208.163c.1.049.2.089.3.13.156.062.314.119.472.173.115.04.231.079.348.114l.016,0a3.842,3.842,0,0,0,.7.115,2.567,2.567,0,0,0,.7-.041,2.524,2.524,0,0,1-.688-.044,3.657,3.657,0,0,1-.656-.192,4.294,4.294,0,0,1-.559-.282,3.875,3.875,0,0,0,.608,0A3.307,3.307,0,0,0,198.577,274.537Z" transform="translate(-192.574 -268.556)" fill="url(#linear-gradient-58)" style="mix-blend-mode: multiply;isolation: isolate"/>
          <path id="Path_7118" data-name="Path 7118" d="M193.438,274.608c-2.062-.06-3.789,1.439-4.825,3.1a8.136,8.136,0,0,0-1.02,5.381,17.132,17.132,0,0,1-.7,6.057" transform="translate(-186.895 -269.911)" fill="none" stroke="#707070" stroke-miterlimit="10" stroke-width="0.966"/>
          <path id="Path_7119" data-name="Path 7119" d="M196.142,267.728c.578-1.293,1.043-2.888,2.345-3.608a13.736,13.736,0,0,1,1.691-.746l1-.389c.63-.245.912,1.067,1.049,1.481a4.751,4.751,0,0,1,.3,2.561c-.651,2.717-4.183,2-6.212,1.738C196.318,268.765,195.781,268.522,196.142,267.728Z" transform="translate(-192.341 -262.955)" fill="url(#linear-gradient-59)"/>
          <path id="Path_7120" data-name="Path 7120" d="M196.151,270.028a9.162,9.162,0,0,1,1.111-2.535,4.947,4.947,0,0,1,1.378-1.06c.357-.136.822,1.407.919,1.688a3.741,3.741,0,0,1,.284,1.712c-.251,1.685-2.158,1.273-3.373,1.007a.468.468,0,0,1-.361-.364A.852.852,0,0,1,196.151,270.028Z" transform="translate(-192.388 -265.026)" fill="url(#linear-gradient-60)" style="mix-blend-mode: multiply;isolation: isolate"/>
          <path id="Path_7121" data-name="Path 7121" d="M198.373,272.967a2.454,2.454,0,0,0,.57-.36,2.407,2.407,0,0,1-.6.281,3.185,3.185,0,0,1-.643.135c-.127.01-.253.017-.379.016a3.956,3.956,0,0,0,.418-.2,3.2,3.2,0,0,0,.557-.388,2.576,2.576,0,0,0,.451-.5,2.529,2.529,0,0,1-.5.428,3.042,3.042,0,0,1-.578.3,3.123,3.123,0,0,1-.62.176,2.939,2.939,0,0,1-.4.047l.013-.021c.064-.086.12-.18.192-.261a3.411,3.411,0,0,1,.452-.468,3.2,3.2,0,0,1,.542-.37,2.425,2.425,0,0,1,.62-.239,2.474,2.474,0,0,0-.655.162,3.325,3.325,0,0,0-.609.312,3.858,3.858,0,0,0-.481.378,4.49,4.49,0,0,1,.232-.532,3.776,3.776,0,0,1,.382-.572,2.561,2.561,0,0,1,.5-.479,2.6,2.6,0,0,0-.564.421,3.867,3.867,0,0,0-.464.54,3.321,3.321,0,0,0-.437.637,1.681,1.681,0,0,0-.17.463.482.482,0,0,0,.073.377.443.443,0,0,0,.23.131c.1.034.212.059.318.084.163.038.328.071.492.1.12.023.24.044.361.061l.017,0a3.816,3.816,0,0,0,.708.011,2.58,2.58,0,0,0,.685-.143,2.513,2.513,0,0,1-.687.058,3.664,3.664,0,0,1-.677-.094,4.279,4.279,0,0,1-.594-.2,3.852,3.852,0,0,0,.6-.085A3.321,3.321,0,0,0,198.373,272.967Z" transform="translate(-192.445 -267.652)" fill="url(#linear-gradient-61)" style="mix-blend-mode: multiply;isolation: isolate"/>
        </g>
        <g id="Group_8450" data-name="Group 8450" transform="translate(13.162 9.658)">
          <path id="Path_7122" data-name="Path 7122" d="M176.473,269.853a24.565,24.565,0,0,1,1.767-1.722c.989-.821,2.9-.721,4.157-.738a.383.383,0,0,1,.213.039.393.393,0,0,1,.128.322,8.033,8.033,0,0,1-.095,2.533,2.718,2.718,0,0,1-1.527,1.917,3.132,3.132,0,0,1-2.306-.2c-.846-.358-1.706-.77-2.519-1.2C176.29,270.806,175.9,270.423,176.473,269.853Z" transform="translate(-175.528 -262.441)" fill="url(#linear-gradient-62)"/>
          <path id="Path_7123" data-name="Path 7123" d="M176.411,270.91a8.4,8.4,0,0,1,2-1.514,6.4,6.4,0,0,1,1.54-.627c.381-.024.33,1.317.333,1.564a2.694,2.694,0,0,1-.276,1.434c-.773,1.284-2.374.487-3.438-.013a.361.361,0,0,1-.226-.376C176.357,271.278,176.294,271.04,176.411,270.91Z" transform="translate(-175.633 -263.263)" fill="url(#linear-gradient-63)" style="mix-blend-mode: multiply;isolation: isolate"/>
          <path id="Path_7124" data-name="Path 7124" d="M178.337,273.592a2.931,2.931,0,0,0,.654-.152,2.916,2.916,0,0,1-.659.082,3.8,3.8,0,0,1-.652-.044c-.123-.022-.245-.047-.363-.077.154-.011.307-.031.458-.056a3.8,3.8,0,0,0,.65-.178,2.855,2.855,0,0,0,.584-.289,2.944,2.944,0,0,1-.612.222,3.767,3.767,0,0,1-1.286.1,3.352,3.352,0,0,1-.395-.058l.019-.014c.088-.054.171-.115.264-.162a3.708,3.708,0,0,1,1.209-.433,2.909,2.909,0,0,1,.663-.044,2.931,2.931,0,0,0-.671-.026,4.007,4.007,0,0,0-.675.1,4.465,4.465,0,0,0-.576.188,4.29,4.29,0,0,1,.389-.37,3.9,3.9,0,0,1,.544-.366,2.878,2.878,0,0,1,.627-.263,3.027,3.027,0,0,0-.668.2,4.238,4.238,0,0,0-.611.321,3.459,3.459,0,0,0-.616.4,1.557,1.557,0,0,0-.308.329.349.349,0,0,0-.051.318.388.388,0,0,0,.176.159c.088.052.182.1.275.142.143.069.287.135.434.2.106.046.213.092.322.134l.015.006a4.2,4.2,0,0,0,.667.177,3.029,3.029,0,0,0,.694.049,2.907,2.907,0,0,1-.669-.117,3.938,3.938,0,0,1-.611-.235,4.14,4.14,0,0,1-.5-.3,4.486,4.486,0,0,0,.6.075A3.974,3.974,0,0,0,178.337,273.592Z" transform="translate(-175.571 -265.045)" fill="url(#linear-gradient-64)" style="mix-blend-mode: multiply;isolation: isolate"/>
          <path id="Path_7125" data-name="Path 7125" d="M176.4,262.708c.139-1.361.05-3,.756-4.235a6.638,6.638,0,0,1,1.171-1.382l1.587-1.558a1.279,1.279,0,0,1,.655-.419c.572-.084,1.016.642,1.323,1.019a5.6,5.6,0,0,1,1.565,3.205c.1,3.191-4.095,3.88-6.455,4.458C177,263.8,176.293,263.757,176.4,262.708Z" transform="translate(-175.663 -255.107)" fill="url(#linear-gradient-65)"/>
          <path id="Path_7126" data-name="Path 7126" d="M176.275,268.846a8.3,8.3,0,0,1,.2-2.651,5.612,5.612,0,0,1,.607-1.581c.262-.278,1.355.906,1.566,1.115a3.744,3.744,0,0,1,1,1.415c.512,1.624-1.342,2.025-2.55,2.317a.467.467,0,0,1-.484-.17C176.545,269.2,176.3,269.035,176.275,268.846Z" transform="translate(-175.572 -260.758)" fill="url(#linear-gradient-66)" style="mix-blend-mode: multiply;isolation: isolate"/>
          <path id="Path_7127" data-name="Path 7127" d="M178.837,271.241a2.484,2.484,0,0,0,.355-.574,2.428,2.428,0,0,1-.417.516,3.18,3.18,0,0,1-.519.4c-.109.065-.22.126-.334.181a3.893,3.893,0,0,0,.291-.358,3.2,3.2,0,0,0,.33-.593,2.6,2.6,0,0,0,.188-.643,2.539,2.539,0,0,1-.264.6,3.019,3.019,0,0,1-.387.525,3.128,3.128,0,0,1-.48.43,2.933,2.933,0,0,1-.341.218c0-.008,0-.017,0-.025.019-.106.029-.214.058-.318a3.418,3.418,0,0,1,.2-.618,3.192,3.192,0,0,1,.326-.571,2.419,2.419,0,0,1,.452-.487,2.466,2.466,0,0,0-.518.432,3.338,3.338,0,0,0-.411.546,3.838,3.838,0,0,0-.267.551,4.49,4.49,0,0,1-.024-.58,3.76,3.76,0,0,1,.093-.681,2.558,2.558,0,0,1,.241-.65,2.609,2.609,0,0,0-.323.626,3.885,3.885,0,0,0-.181.689,3.313,3.313,0,0,0-.114.764,1.676,1.676,0,0,0,.05.49.482.482,0,0,0,.231.307.444.444,0,0,0,.264.017c.109-.015.216-.039.323-.064.164-.037.326-.079.488-.124.118-.032.235-.065.351-.1l.016-.005a3.836,3.836,0,0,0,.642-.3,2.567,2.567,0,0,0,.553-.429,2.52,2.52,0,0,1-.592.353,3.7,3.7,0,0,1-.65.212,4.322,4.322,0,0,1-.62.083,3.9,3.9,0,0,0,.5-.341A3.344,3.344,0,0,0,178.837,271.241Z" transform="translate(-175.906 -263.729)" fill="url(#linear-gradient-67)" style="mix-blend-mode: multiply;isolation: isolate"/>
          <path id="Path_7128" data-name="Path 7128" d="M177.848,270.362c-1.736,1.115-2.314,3.328-2.232,5.28a8.138,8.138,0,0,0,2.2,5.017,17.131,17.131,0,0,1,2.846,5.393" transform="translate(-175.198 -264.214)" fill="none" stroke="#707070" stroke-miterlimit="10" stroke-width="0.966"/>
          <path id="Path_7129" data-name="Path 7129" d="M175.02,264.087c-.254-1.393-.771-2.972-.1-4.3a13.73,13.73,0,0,1,.974-1.571l.607-.886c.382-.558,1.356.365,1.7.629a4.754,4.754,0,0,1,1.7,1.943c1,2.61-2.324,4.01-4.145,4.943C175.75,264.843,175.17,264.946,175.02,264.087Z" transform="translate(-174.589 -256.327)" fill="url(#linear-gradient-68)"/>
          <path id="Path_7130" data-name="Path 7130" d="M175.13,268.315a9.163,9.163,0,0,1-.515-2.72,4.945,4.945,0,0,1,.538-1.653c.218-.314,1.473.7,1.712.874a3.738,3.738,0,0,1,1.2,1.253c.745,1.532-1.061,2.27-2.214,2.736a.468.468,0,0,1-.5-.1A.852.852,0,0,1,175.13,268.315Z" transform="translate(-174.601 -260.346)" fill="url(#linear-gradient-69)" style="mix-blend-mode: multiply;isolation: isolate"/>
          <path id="Path_7131" data-name="Path 7131" d="M177.829,270.317a2.467,2.467,0,0,0,.267-.619,2.434,2.434,0,0,1-.337.572,3.21,3.21,0,0,1-.454.475c-.1.08-.2.156-.3.227a3.992,3.992,0,0,0,.235-.4,3.187,3.187,0,0,0,.24-.635,2.585,2.585,0,0,0,.092-.664,2.546,2.546,0,0,1-.173.637,3.092,3.092,0,0,1-.306.576,3.168,3.168,0,0,1-.413.5,3.018,3.018,0,0,1-.3.265c0-.008,0-.017,0-.025,0-.107,0-.216.011-.323a3.385,3.385,0,0,1,.109-.642,3.186,3.186,0,0,1,.239-.612,2.412,2.412,0,0,1,.376-.548,2.458,2.458,0,0,0-.449.5,3.31,3.31,0,0,0-.326.6,3.822,3.822,0,0,0-.183.584,4.537,4.537,0,0,1-.109-.57,3.771,3.771,0,0,1-.008-.688,2.579,2.579,0,0,1,.143-.679,2.609,2.609,0,0,0-.227.666,3.894,3.894,0,0,0-.078.708,3.328,3.328,0,0,0,0,.772,1.687,1.687,0,0,0,.121.478.482.482,0,0,0,.274.27.448.448,0,0,0,.264-.022c.105-.031.208-.071.31-.111.156-.06.311-.126.464-.194.112-.049.223-.1.332-.153l.015-.008a3.8,3.8,0,0,0,.591-.391,2.554,2.554,0,0,0,.485-.5,2.518,2.518,0,0,1-.534.436,3.666,3.666,0,0,1-.612.305,4.224,4.224,0,0,1-.6.172,3.834,3.834,0,0,0,.448-.41A3.317,3.317,0,0,0,177.829,270.317Z" transform="translate(-175.336 -263.313)" fill="url(#linear-gradient-70)" style="mix-blend-mode: multiply;isolation: isolate"/>
        </g>
      </g>
      <g id="Group_8452" data-name="Group 8452" transform="translate(73 185.679)" opacity="0.44" style="mix-blend-mode: multiply;isolation: isolate">
        <path id="Path_7132" data-name="Path 7132" d="M199.106,287.85c-1.07,2.11-4.459,2.337-5.476,2.276s-.01-1.424.6-1.9,1.751-1.775-.009-1.288-3.033,2.734-4.653,3.695a6.667,6.667,0,0,1-3.026.66l.089,2.952a42.2,42.2,0,0,0,6.351-.245c5.014-.577,6.554-3.369,7.288-5S200.177,285.74,199.106,287.85Z" transform="translate(-158.061 -284.919)" fill="#aee2fa"/>
        <path id="Path_7133" data-name="Path 7133" d="M116.094,283.02a15.284,15.284,0,0,1,8.184-.6c4.8,1.176,11.875,3.105,20.072,5.966l0,.073.089,2.952.013.42a61.786,61.786,0,0,1-16.538.949,64.027,64.027,0,0,1-7.308-1.244C120.411,291.5,114.694,289.811,116.094,283.02Z" transform="translate(-115.873 -282.093)" fill="#aee2fa"/>
      </g>
      <path id="Path_7134" data-name="Path 7134" d="M149.2,283.122c1.07,2.109,4.459,2.337,5.477,2.276s.01-1.424-.6-1.9-1.751-1.775.009-1.288,3.032,2.734,4.653,3.694a6.671,6.671,0,0,0,3.026.66l-.089,2.951a42.236,42.236,0,0,1-6.35-.245c-5.014-.578-6.554-3.369-7.288-5S148.133,281.013,149.2,283.122Z" transform="translate(-61.911 -96.419)" fill="#f5c5af"/>
      <g id="Group_9303" data-name="Group 9303">
        <path id="Path_7017" data-name="Path 7017" d="M106.555,159.611a9.1,9.1,0,0,1-6.828,5.688c-5.48,1.219-9.055-3.483-15.224,1.225s-6.169,12.057-1.791,16.044-.613,14.578.008,20.034,8.036,7.59,15.954,1.145,34.947-22.338,33.175-40.554S106.555,159.611,106.555,159.611Z" transform="translate(-21.232 -19.972)" fill="#254a7f" opacity="0.5" style="mix-blend-mode: multiply;isolation: isolate"/>
        <g id="Group_8435" data-name="Group 8435" transform="translate(58.517 200.445)">
          <g id="Group_8430" data-name="Group 8430" transform="translate(0 17.76)">
            <path id="Path_7024" data-name="Path 7024" d="M103.238,366.785a4.51,4.51,0,0,0-.532-.364c-1.706,1.627-5.655,1.2-5.655,1.2a38.922,38.922,0,0,0-7.005,5.766c-2.586,2.723-.469,4.755.593,5.461.155-.124.677-.383.841-.513a32.7,32.7,0,0,1,4.2-2.828,30.657,30.657,0,0,1,5.779-2.474,65.559,65.559,0,0,1,7.035-1.691c.077-.015.835-.179.842-.158l-2.24-6.09Z" transform="translate(-85.234 -364.175)" fill="#f5c5af"/>
            <path id="Path_7025" data-name="Path 7025" d="M85.2,372.061c.843-.888,1.687-1.678,2.478-2.364a14.872,14.872,0,0,1,6.866-3.379,5.875,5.875,0,0,0,2.89-1.277c-1.177-.708-2.35-3.049-6.738-1.947-.105.027-3.812,3.766-4.908,5.034a43.635,43.635,0,0,0-3.472,4.584,12.793,12.793,0,0,0-2.21,4.651c-.231,1.386-.374,2.465.615,3.384a1.192,1.192,0,0,0,1.337.2c.734-.277,1.068-.874,1.534-1.479a11.738,11.738,0,0,1,2.116-2.119C84.641,376.641,82.61,374.784,85.2,372.061Z" transform="translate(-79.933 -362.804)" fill="#254a7f"/>
          </g>
          <g id="Group_8434" data-name="Group 8434" transform="translate(6.984)">
            <path id="Path_7026" data-name="Path 7026" d="M160.255,320.776a38.446,38.446,0,0,0,10.627,13.37c3.914,2.968-25.627,4.142-25.627,4.142l-32.824-8.549-.025-4.9a4.559,4.559,0,0,1,5.777-4.418C127.211,322.915,145.142,326.453,160.255,320.776Z" transform="translate(-106.304 -319.644)" fill="#fff"/>
            <path id="Path_7027" data-name="Path 7027" d="M160.251,320.51l-15,17.512-32.824-8.549-.028-5.4a4.176,4.176,0,0,1,5.3-4.047C126.562,322.52,144.866,326.29,160.251,320.51Z" transform="translate(-106.299 -319.411)" fill="#aee2fa" opacity="0.16" style="mix-blend-mode: multiply;isolation: isolate"/>
            <path id="Path_7028" data-name="Path 7028" d="M172.778,337.338s9.5,7.088,19.459-.017l5.7,5.359-4.111,6.275-19.7-4.487Z" transform="translate(-142.346 -329.831)" fill="#4051a4" opacity="0.4" style="mix-blend-mode: multiply;isolation: isolate"/>
            <g id="Group_8433" data-name="Group 8433">
              <g id="Group_8432" data-name="Group 8432">
                <g id="Group_8431" data-name="Group 8431" transform="translate(37.939 14.982)">
                  <path id="Path_7029" data-name="Path 7029" d="M198.609,358.767a4.471,4.471,0,0,1,.622-.169c1.078,2.1,4.948,2.992,4.948,2.992a38.927,38.927,0,0,1,4.728,7.744c1.55,3.421-1.115,4.646-2.351,4.965-.105-.168-.513-.584-.626-.76a32.741,32.741,0,0,0-3.037-4.047,30.652,30.652,0,0,0-4.649-4.232,65.531,65.531,0,0,0-6.092-3.9c-.067-.04-.73-.442-.744-.426l4.113-5.019Z" transform="translate(-191.407 -355.912)" fill="#f5c5af"/>
                  <path id="Path_7030" data-name="Path 7030" d="M220.027,371.825c-.506-1.116-1.044-2.139-1.567-3.046a14.871,14.871,0,0,0-5.379-5.443,5.875,5.875,0,0,1-2.312-2.154c1.344-.283,3.22-2.111,7,.369.091.06,2.366,4.807,2.986,6.365a43.645,43.645,0,0,1,1.778,5.469,12.79,12.79,0,0,1,.564,5.118c-.236,1.385-.455,2.452-1.691,3a1.192,1.192,0,0,1-1.328-.251,3.663,3.663,0,0,1-.965-1.9,11.725,11.725,0,0,0-1.3-2.7C219.049,376.334,221.577,375.245,220.027,371.825Z" transform="translate(-202.967 -358.513)" fill="#254a7f"/>
                </g>
                <path id="Path_7031" data-name="Path 7031" d="M146.9,337.294c-.525-2.123-20.4-12.815-27.492-14.79-11.18-3.112-17.563-1.062-18.828,3.486s2.826,10.469,14.005,13.581c6.835,1.9,27.83,8.093,31.175,4.473C146.921,342.786,147.555,339.944,146.9,337.294Z" transform="translate(-99.111 -320.095)" fill="#aee2fa" style="mix-blend-mode: multiply;isolation: isolate"/>
                <path id="Path_7032" data-name="Path 7032" d="M145.171,337.408c-.393-2.152-21.608-14.158-28.568-16.564-10.968-3.793-17.464-2.138-19.006,2.323s2.178,10.623,13.145,14.415c6.705,2.318,29.316,9.9,32.877,6.492C144.855,342.891,145.663,340.093,145.171,337.408Z" transform="translate(-97.263 -318.735)" fill="#fff8fb"/>
              </g>
              <path id="Path_7033" data-name="Path 7033" d="M144.13,344.819c-3.859,3.066-25.678-6.562-32.141-9.487-8.306-3.759-12.022-8.561-12.291-12.533a5.675,5.675,0,0,0-2.1,2.794c-1.543,4.461,2.178,10.623,13.145,14.415,6.705,2.318,29.316,9.9,32.877,6.492a5.8,5.8,0,0,0,1.4-2.7A4.327,4.327,0,0,1,144.13,344.819Z" transform="translate(-97.263 -321.161)" fill="#aee2fa" opacity="0.4" style="mix-blend-mode: multiply;isolation: isolate"/>
            </g>
          </g>
          <path id="Path_7034" data-name="Path 7034" d="M125.837,347.441c2.582,1.111,31.419-3.615,36.8-4.805,10.592-2.342,13.141-8.922,11.657-13.092s-8.363-8.135-17.733-2.8c-7.7,4.384-24.842,11.533-30.09,13.692C125.486,340.844,125.036,347.1,125.837,347.441Z" transform="translate(-107.092 -321.979)" fill="#aee2fa" style="mix-blend-mode: multiply;isolation: isolate"/>
          <path id="Path_7035" data-name="Path 7035" d="M125.379,345.293c2.881,1.286,35.593-3.848,41.711-5.158,12.035-2.576,15.119-10.048,13.574-14.809s-9.188-9.336-19.936-3.339c-10.5,5.856-36.186,16.047-36.186,16.047a2.842,2.842,0,0,0-1.6,3.51C123.5,343.193,124.485,344.894,125.379,345.293Z" transform="translate(-105.526 -318.969)" fill="#fff8fb"/>
          <path id="Path_7036" data-name="Path 7036" d="M180.667,333.33a6.806,6.806,0,0,0-.319-.8c-.682,4.155-4.356,8.842-12.847,11.359-6,1.779-38.216,9.426-41.187,8.365-.922-.329-2.04-1.949-2.715-3.55a2.8,2.8,0,0,1-.093-1.9,2.822,2.822,0,0,0-.556,2.738c.55,1.649,1.539,3.35,2.433,3.749,2.881,1.286,35.593-3.848,41.711-5.158C179.128,345.563,182.212,338.092,180.667,333.33Z" transform="translate(-105.529 -326.974)" fill="#aee2fa" opacity="0.4" style="mix-blend-mode: multiply;isolation: isolate"/>
        </g>
        <g id="Group_9302" data-name="Group 9302">
          <path id="Path_7038" data-name="Path 7038" d="M174.869,153.283c0,7.254-5.747,13.134-10.654,13.134-4.584,0-10.886-6.649-10.886-13.9s-.232-12.365,10.886-12.365C173.9,140.149,174.869,143.706,174.869,153.283Z" transform="translate(-65.234 -11.673)" fill="#f5c5af"/>
        </g>
        <path id="Path_7048" data-name="Path 7048" d="M137.651,122.112A6.59,6.59,0,0,1,141,130.95a14.545,14.545,0,0,1-5.739,5.817c-9.187,5.638-13.773-1.2-19.828,5.756S97.5,145.143,97.5,145.143s7.313-12.625,20.238-20.078C117.74,125.065,127.164,117.437,137.651,122.112Z" transform="translate(-31.905)" fill="#254a7f"/>
        <g id="Group_8453" data-name="Group 8453" transform="translate(72.321 165.932)">
          <path id="Path_7135" data-name="Path 7135" d="M197.6,286.229c-1.07,2.11-4.459,2.337-5.477,2.276s-.01-1.424.6-1.9,1.751-1.776-.009-1.288-3.032,2.734-4.653,3.695a6.679,6.679,0,0,1-3.026.66l.089,2.952a42.2,42.2,0,0,0,6.351-.245c5.014-.578,6.554-3.369,7.288-5S198.671,284.12,197.6,286.229Z" transform="translate(-156.483 -264.206)" fill="#f5c5af"/>
          <path id="Path_7136" data-name="Path 7136" d="M114.481,253.115s5.9-21.132,9.092-19.974c2.717.986-5,18.375-.908,19.378,4.8,1.176,11.875,3.106,20.071,5.966l0,.073.089,2.952.013.42a61.776,61.776,0,0,1-16.538.949C123.824,262.621,112.21,263.1,114.481,253.115Z" transform="translate(-114.188 -233.095)" fill="#aee2fa"/>
        </g>
      </g>
    </g>
  </g>
</svg>
