<svg id="Wishlisted" xmlns="http://www.w3.org/2000/svg" width="27.832" height="25.36" viewBox="0 0 27.832 25.36">
  <path id="Path_7765" data-name="Path 7765" d="M3236.219,3958.7a2.64,2.64,0,0,1-.906-.163l-.07-.025c-10.38-4.118-13.873-11.959-12.735-17.9a8.243,8.243,0,0,1,8.1-7.246,10.587,10.587,0,0,1,5.625,1.774,10.858,10.858,0,0,1,5.561-1.715,8.269,8.269,0,0,1,8.125,7.162l.017.082c1.105,5.873-2.4,13.644-12.731,17.834a.869.869,0,0,1-.119.044,2.564,2.564,0,0,1-.86.178Z" transform="translate(-3222.303 -3933.367)" fill="#8f9bb3"/>
  <path id="Path_7766" data-name="Path 7766" d="M3235.647,3956.19h0c9.486-3.911,12.766-10.839,11.808-16l-.013-.068a7.072,7.072,0,0,0-2.12-3.958,5.4,5.4,0,0,0-3.616-1.352,8.629,8.629,0,0,0-4.4,1.381l-1.675,1.084-1.661-1.126a8.3,8.3,0,0,0-4.413-1.417,5.341,5.341,0,0,0-3.624,1.365,7.09,7.09,0,0,0-2.093,4.026h0c-.991,5.218,2.276,12.193,11.8,16.037" transform="translate(-3221.725 -3932.787)" fill="#fcfcfc"/>
</svg>
