<svg xmlns="http://www.w3.org/2000/svg" xmlns:xlink="http://www.w3.org/1999/xlink" width="93.981" height="25.743" viewBox="0 0 93.981 25.743">
  <defs>
    <radialGradient id="radial-gradient" cx="0.409" cy="0.476" r="1.086" gradientTransform="matrix(0.271, 0, 0, -0.999, 11.224, 205.74)" gradientUnits="objectBoundingBox">
      <stop offset="0" stop-color="#faa93a"/>
      <stop offset="1" stop-color="#ef5764"/>
    </radialGradient>
  </defs>
  <g id="Group_8061-2" data-name="Group 8061-2" transform="translate(0 0)">
    <path id="Path_6387-2" data-name="Path 6387-2" d="M533.653-243.412H463.793a12.869,12.869,0,0,1-12.873-12.867v0h0a12.87,12.87,0,0,1,12.869-12.873H544.9s-7.609,5.826-5.938,13.584S533.653-243.412,533.653-243.412Z" transform="translate(-450.92 269.155)" fill="url(#radial-gradient)"/>
    <g id="Discover_Wellness-2" data-name="Discover Wellness-2" transform="translate(30.298 4.636)">
      <g id="Group_7771-2" data-name="Group 7771-2">
        <path id="Path_6388-2" data-name="Path 6388-2" d="M481.881-252.625l.785-2.355a10.867,10.867,0,0,0,.8-3.649v-.2a3.288,3.288,0,0,1,1.848.895,1.926,1.926,0,0,1,.491,1.216,3.6,3.6,0,0,1-.277,1.275l-1.963,6.565a3.3,3.3,0,0,1-1.586-.933,1.852,1.852,0,0,1-.393-1.143A6.08,6.08,0,0,1,481.881-252.625Zm5.15-9.349a.96.96,0,0,1,.294.7,1.735,1.735,0,0,1-.262.846,4.87,4.87,0,0,1-1.171,1.158,1.344,1.344,0,0,1-.665.209q-.631,0-.963-.928a3.4,3.4,0,0,1-.113-.846,3,3,0,0,1,.135-.882,1.142,1.142,0,0,1,1.01-.895h.093a2.455,2.455,0,0,1,1.647.641Z" transform="translate(-481.587 264.519)" fill="#fff"/>
        <path id="Path_6389-2" data-name="Path 6389-2" d="M487.845-248.877a3.1,3.1,0,0,1-1.784-.91,2.123,2.123,0,0,1-.543-1.391,3.812,3.812,0,0,1,.172-1.08l2.062-6.578a3.683,3.683,0,0,1,1.7.934,1.684,1.684,0,0,1,.417,1.073,5.1,5.1,0,0,1-.392,1.716l1.89-3.235a1.138,1.138,0,0,1,.916-.5,1.337,1.337,0,0,1,.491.1,3.714,3.714,0,0,1,1.545,1.23,1.611,1.611,0,0,1,.207.859,4.342,4.342,0,0,1-.126.95,24.565,24.565,0,0,1-.824,2.644c-.294.79-.531,1.516-.721,2.181a6.281,6.281,0,0,0-.286,1.689,1.833,1.833,0,0,0,.01.244,3.35,3.35,0,0,1-1.975-.963,2.089,2.089,0,0,1-.515-1.31,4.062,4.062,0,0,1,.311-1.426l1.579-4.594-3.338,5.387a10.5,10.5,0,0,1-.286,1.054c-.107.347-.211.7-.309,1.043A7.868,7.868,0,0,0,487.845-248.877Z" transform="translate(-481.634 264.519)" fill="#fff"/>
        <path id="Path_6390-2" data-name="Path 6390-2" d="M494.246-251.5a1.164,1.164,0,0,1,.5-1.073,1.807,1.807,0,0,1,.934-.307,1.918,1.918,0,0,1,.482.07c-.016.174-.024.332-.024.487a2.955,2.955,0,0,0,.242,1.265.876.876,0,0,0,.846.568,1.28,1.28,0,0,0,.289-.034.968.968,0,0,0,.474-.5,1.817,1.817,0,0,0,.156-.744A8.373,8.373,0,0,0,496.688-254l-.537-.731a2.693,2.693,0,0,1-.45-1.484,3.062,3.062,0,0,1,.069-.615,2.192,2.192,0,0,1,1.09-1.577,3.547,3.547,0,0,1,1.661-.452,6.793,6.793,0,0,1,1.8.29,2.353,2.353,0,0,1,1.571,1.937,1.258,1.258,0,0,1-.5,1.108,1.773,1.773,0,0,1-1.029.347,1.425,1.425,0,0,1-.253-.023,2.019,2.019,0,0,0,.012-.244,2.58,2.58,0,0,0-.491-1.59,1,1,0,0,0-.814-.5,1.154,1.154,0,0,0-.513.139,1.042,1.042,0,0,0-.356.732.641.641,0,0,0,.046.243,2.374,2.374,0,0,0,.445.812c.061.077.126.155.2.231.251.318.516.634.792.952a8.218,8.218,0,0,1,.906,1.23,3.757,3.757,0,0,1,.4,1.612,3.024,3.024,0,0,1-.1.776,2.387,2.387,0,0,1-1.5,1.647,2.728,2.728,0,0,1-1.043.243c-.406.024-.647.035-.724.035a4,4,0,0,1-1.913-.487A2.489,2.489,0,0,1,494.246-251.5Z" transform="translate(-481.739 264.519)" fill="#fff"/>
        <path id="Path_6391-2" data-name="Path 6391-2" d="M510.079-260.61h.092a.637.637,0,0,1,.436.139.388.388,0,0,1,.151.32.255.255,0,0,1-.185.248l-3.542.487-2.484,8.2,1.248-2.006a.271.271,0,0,1,.217-.094.875.875,0,0,1,.208.047.7.7,0,0,1,.307.243.4.4,0,0,1,.1.256.382.382,0,0,1-.036.161l-1.877,3.236a1.05,1.05,0,0,1-.834.476l-.317-.01a1.709,1.709,0,0,1-.845-.51,2.526,2.526,0,0,1-.836-.985,1.406,1.406,0,0,1-.147-.685,6.574,6.574,0,0,1,.491-2.123q.147-.463.656-2.115T504-259.008l-.529.069a7.75,7.75,0,0,1-.963.07q-1.464,0-1.465-.9a2.139,2.139,0,0,1,.217-.836,16.742,16.742,0,0,0,2.958.209h.2q.471-1.576.773-2.714a8.994,8.994,0,0,0,.316-1.414q2.189.336,2.187,2.259a5.189,5.189,0,0,1-.239,1.449l-.1.337Q508.684-260.534,510.079-260.61Z" transform="translate(-481.821 264.519)" fill="#fff"/>
        <path id="Path_6392-2" data-name="Path 6392-2" d="M515.232-257.386a7.38,7.38,0,0,0-3.829,2.506A6.61,6.61,0,0,0,509.794-251c0,.184.041.3.125.325a.653.653,0,0,0,.184.046.326.326,0,0,0,.23-.116,57.181,57.181,0,0,0,3.8-5.6,3.5,3.5,0,0,1,1.433,1.01,1.776,1.776,0,0,1,.378,1.009,2.325,2.325,0,0,1-.184.846l-1.56,4.616-.732-.441a1.254,1.254,0,0,1-.124-.092,2.412,2.412,0,0,1-.625-.541,1.1,1.1,0,0,1-.223-.712,1.633,1.633,0,0,1,.012-.209,5.52,5.52,0,0,1,.608-1.647l-1.4,2.48q-.713,1.089-1.262,1.119l-.6.028a2.325,2.325,0,0,1-1.835-1.147,4.372,4.372,0,0,1-.412-1.889,6.918,6.918,0,0,1,.5-2.458,7.811,7.811,0,0,1,2.935-3.862,3.969,3.969,0,0,1,2.014-.6,2.76,2.76,0,0,1,.436.034A2.173,2.173,0,0,1,515.232-257.386Z" transform="translate(-481.9 264.519)" fill="#fff"/>
        <path id="Path_6393-2" data-name="Path 6393-2" d="M518.734-248.877a3.1,3.1,0,0,1-1.782-.91,2.116,2.116,0,0,1-.545-1.391,3.882,3.882,0,0,1,.172-1.08l2.062-6.578a3.7,3.7,0,0,1,1.7.934,1.691,1.691,0,0,1,.419,1.073,5.122,5.122,0,0,1-.392,1.716l1.888-3.235a1.137,1.137,0,0,1,.917-.5,1.317,1.317,0,0,1,.491.1,3.692,3.692,0,0,1,1.545,1.23,1.62,1.62,0,0,1,.208.859,4.289,4.289,0,0,1-.126.95,25.164,25.164,0,0,1-.825,2.644c-.294.79-.531,1.516-.723,2.181a6.359,6.359,0,0,0-.286,1.689c0,.081,0,.163.012.244a3.356,3.356,0,0,1-1.977-.963,2.084,2.084,0,0,1-.516-1.31,4.1,4.1,0,0,1,.311-1.426l1.581-4.594-3.338,5.387a10.466,10.466,0,0,1-.286,1.054c-.107.341-.208.688-.309,1.043A7.866,7.866,0,0,0,518.734-248.877Z" transform="translate(-482.006 264.519)" fill="#fff"/>
        <path id="Path_6394-2" data-name="Path 6394-2" d="M533.752-260.61h.091a.643.643,0,0,1,.436.139.4.4,0,0,1,.154.32.259.259,0,0,1-.189.248l-3.541.487-2.487,8.2,1.249-2.006a.277.277,0,0,1,.218-.094.852.852,0,0,1,.206.047.712.712,0,0,1,.311.243.4.4,0,0,1,.1.256.415.415,0,0,1-.037.161l-1.878,3.236a1.053,1.053,0,0,1-.838.476l-.316-.01a1.7,1.7,0,0,1-.842-.51,2.529,2.529,0,0,1-.837-.985,1.4,1.4,0,0,1-.149-.685,6.651,6.651,0,0,1,.49-2.123q.15-.463.659-2.115t1.117-3.683l-.527.069a7.777,7.777,0,0,1-.963.07q-1.469,0-1.466-.9a2.1,2.1,0,0,1,.216-.836,16.709,16.709,0,0,0,2.955.209h.2q.468-1.576.773-2.714a9.7,9.7,0,0,0,.316-1.414q2.189.336,2.19,2.259a5.155,5.155,0,0,1-.244,1.449l-.1.337Q532.355-260.534,533.752-260.61Z" transform="translate(-482.106 264.519)" fill="#fff"/>
      </g>
    </g>
    <g id="scooter-2" transform="translate(7.171 4.631)">
      <path id="Path_6584-2" data-name="Path 6584-2" d="M476.979-252.48a.57.57,0,0,0,.535-.574,2.936,2.936,0,0,0-2.915-2.953h-.623l-.677-3.251a1.874,1.874,0,0,0,.954-2.456,1.841,1.841,0,0,0-1.685-1.121H469.95a.57.57,0,0,0-.568.573v0h0v.715h-1.4a.573.573,0,0,0-.592.551.573.573,0,0,0,.544.6h1.443v.716a.57.57,0,0,0,.566.575h.254a3.245,3.245,0,0,0-.754,2.087v3.272a.026.026,0,0,1-.025.03h-2.3a.028.028,0,0,1-.029-.022l-.617-2.118a1.185,1.185,0,0,0,.859-1.143,2.34,2.34,0,0,0-2.324-2.354h-5.1a1.759,1.759,0,0,0-1.731,1.786,1.763,1.763,0,0,0,1.487,1.732,4.468,4.468,0,0,0-1.466,3.313v1.789a.571.571,0,0,0,.567.575h.492a2.882,2.882,0,0,0,3.39,2.287,2.9,2.9,0,0,0,2.26-2.287h6.941a2.884,2.884,0,0,0,3.391,2.291A2.916,2.916,0,0,0,477.5-251.3a2.938,2.938,0,0,0-.525-1.186Zm-.688-1.149h-1.282a2.84,2.84,0,0,0-.929.042v-1.268h.447a1.827,1.827,0,0,1,1.76,1.225Zm-5.768-8.05h2.044a.712.712,0,0,1,.707.716.712.712,0,0,1-.707.716h-2.044Zm-3.4,9.116h2.291a1.172,1.172,0,0,0,1.166-1.179h0v-3.274a2.081,2.081,0,0,1,1.6-2.025l.766,3.677v2.3a2.935,2.935,0,0,0-1.1,1.76h-5.642a4.067,4.067,0,0,0-4.05-3.607,3.858,3.858,0,0,0-2.449.843,3.259,3.259,0,0,1,2.87-1.746h2.727l.7,2.4a1.173,1.173,0,0,0,1.117.845Zm-7.743,1.263a3.061,3.061,0,0,1,.752-1.59,2.722,2.722,0,0,1,2.025-.868,2.927,2.927,0,0,1,2.9,2.457h-5.677Zm.529-5.664a.615.615,0,0,1-.611-.619.615.615,0,0,1,.611-.618h5.112a1.2,1.2,0,0,1,1.189,1.2c0,.025-.043.04-.113.033h-6.188Zm2.176,8.006a1.751,1.751,0,0,1-1.652-1.193h3.3a1.751,1.751,0,0,1-1.651,1.193Zm12.59,0a1.759,1.759,0,0,1-1.752-1.767,1.759,1.759,0,0,1,1.746-1.773,1.759,1.759,0,0,1,1.752,1.766h0a1.76,1.76,0,0,1-1.748,1.77Z" transform="translate(-458.178 264.524)" fill="#fff"/>
      <ellipse id="Ellipse_618-2" data-name="Ellipse 618-2" cx="0.571" cy="0.578" rx="0.571" ry="0.578" transform="translate(15.926 13.217)" fill="#fff"/>
      <path id="Path_6585-2" data-name="Path 6585-2" d="M458.759-261.027h5.088a.571.571,0,0,0,.592-.551.574.574,0,0,0-.544-.6h-5.135a.573.573,0,0,0-.544.6A.572.572,0,0,0,458.759-261.027Z" transform="translate(-458.178 264.524)" fill="#fff"/>
      <path id="Path_6586-2" data-name="Path 6586-2" d="M460.666-263.374H465.8a.573.573,0,0,0,.544-.6.572.572,0,0,0-.544-.551h-5.132a.573.573,0,0,0-.544.6A.572.572,0,0,0,460.666-263.374Z" transform="translate(-458.201 264.524)" fill="#fff"/>
    </g>
  </g>
</svg>
