<svg xmlns="http://www.w3.org/2000/svg" xmlns:xlink="http://www.w3.org/1999/xlink" width="146.954" height="146.954" viewBox="0 0 146.954 146.954">
  <defs>
    <linearGradient id="linear-gradient" y1="0.5" x2="1" y2="0.5" gradientUnits="objectBoundingBox">
      <stop offset="0" stop-color="#73c733"/>
      <stop offset="1" stop-color="#46a82a"/>
    </linearGradient>
    <linearGradient id="linear-gradient-2" x1="0.5" y1="0.581" x2="0.5" y2="-0.399" gradientUnits="objectBoundingBox">
      <stop offset="0.004" stop-color="#fff" stop-opacity="0"/>
      <stop offset="1" stop-color="#231f20"/>
    </linearGradient>
  </defs>
  <g id="Group_9305" data-name="Group 9305" transform="translate(-249.821 -23.88)">
    <circle id="Ellipse_5" data-name="Ellipse 5" cx="51.456" cy="51.456" r="51.456" transform="translate(250.529 97.357) rotate(-45)" stroke="#7bff50" stroke-miterlimit="10" stroke-width="1" fill="url(#linear-gradient)"/>
    <g id="Group_9301" data-name="Group 9301" transform="translate(-3 -0.167)">
      <circle id="Ellipse_6" data-name="Ellipse 6" cx="36.007" cy="36.007" r="36.007" transform="translate(287.291 61.349)" fill="#f1f2f2"/>
      <path id="Path_6969" data-name="Path 6969" d="M344.167,84.418a36,36,0,0,1,35.98,34.908c.011-.366.027-.731.027-1.1a36.007,36.007,0,1,0-72.015,0c0,.369.017.734.028,1.1A36,36,0,0,1,344.167,84.418Z" transform="translate(-20.869 -20.869)" fill="url(#linear-gradient-2)" style="mix-blend-mode: multiply;isolation: isolate"/>
      <path id="Path_6970" data-name="Path 6970" d="M345.277,175.138s7.092-29.943,44.634-20.463C389.911,154.675,373.785,187.126,345.277,175.138Z" transform="translate(-34.31 -46.435)" fill="#46a82a"/>
      <g id="Group_9300" data-name="Group 9300">
        <g id="Group_8423" data-name="Group 8423" transform="translate(291.909 83.667)">
          <path id="Path_6972" data-name="Path 6972" d="M322.189,117.409l-2.884,18.2-3.41,1.038,2.559-16.152-2.652,1.325-.4-1.065Z" transform="translate(-315.399 -117.28)" fill="#231f20"/>
          <path id="Path_6973" data-name="Path 6973" d="M333.194,136.214a6.306,6.306,0,0,1-4.177-1.338,6.593,6.593,0,0,1-2.171-3.505,11.233,11.233,0,0,1-.174-4.636,13.424,13.424,0,0,1,1.647-4.662,10.41,10.41,0,0,1,3.283-3.519,8.135,8.135,0,0,1,4.6-1.35,6.275,6.275,0,0,1,4.161,1.35,6.7,6.7,0,0,1,2.194,3.531,11.192,11.192,0,0,1,.186,4.649,13.267,13.267,0,0,1-1.655,4.622,10.345,10.345,0,0,1-3.309,3.519A8.187,8.187,0,0,1,333.194,136.214Zm2-17.71a4.011,4.011,0,0,0-3.353,1.74,9.753,9.753,0,0,0-1.721,4.389,14.586,14.586,0,0,0,0,4.648,8.73,8.73,0,0,0,1.461,3.8,3.282,3.282,0,0,0,2.75,1.493,4.077,4.077,0,0,0,3.379-1.74,9.574,9.574,0,0,0,1.747-4.388,14.382,14.382,0,0,0-.019-4.636A8.745,8.745,0,0,0,337.956,120,3.313,3.313,0,0,0,335.194,118.5Z" transform="translate(-319.423 -117.206)" fill="#231f20"/>
          <path id="Path_6974" data-name="Path 6974" d="M359.615,136.214a6.307,6.307,0,0,1-4.177-1.338,6.589,6.589,0,0,1-2.171-3.505,11.235,11.235,0,0,1-.174-4.636,13.424,13.424,0,0,1,1.647-4.662,10.4,10.4,0,0,1,3.283-3.519,8.133,8.133,0,0,1,4.6-1.35,6.275,6.275,0,0,1,4.161,1.35,6.708,6.708,0,0,1,2.194,3.531,11.2,11.2,0,0,1,.186,4.649,13.267,13.267,0,0,1-1.655,4.622,10.351,10.351,0,0,1-3.309,3.519A8.187,8.187,0,0,1,359.615,136.214Zm2-17.71a4.01,4.01,0,0,0-3.353,1.74,9.754,9.754,0,0,0-1.721,4.389,14.586,14.586,0,0,0,0,4.648,8.73,8.73,0,0,0,1.461,3.8,3.281,3.281,0,0,0,2.75,1.493,4.078,4.078,0,0,0,3.379-1.74,9.574,9.574,0,0,0,1.747-4.388,14.4,14.4,0,0,0-.019-4.636A8.745,8.745,0,0,0,364.377,120,3.313,3.313,0,0,0,361.615,118.5Z" transform="translate(-328.99 -117.206)" fill="#231f20"/>
          <path id="Path_6975" data-name="Path 6975" d="M386.141,128a3.483,3.483,0,0,1-2.276-.714,3.6,3.6,0,0,1-1.2-1.87,5.7,5.7,0,0,1-.117-2.455,6.938,6.938,0,0,1,.9-2.467,5.619,5.619,0,0,1,1.792-1.882,4.5,4.5,0,0,1,2.5-.714,3.39,3.39,0,0,1,3.5,2.6,5.787,5.787,0,0,1,.115,2.467,6.818,6.818,0,0,1-.895,2.455,5.592,5.592,0,0,1-1.8,1.87A4.559,4.559,0,0,1,386.141,128Zm1.091-9.348a1.845,1.845,0,0,0-1.56.908,5.515,5.515,0,0,0-.842,2.286,8.617,8.617,0,0,0-.034,2.428,4.811,4.811,0,0,0,.666,2.025,1.5,1.5,0,0,0,1.29.792,1.811,1.811,0,0,0,1.546-.91,5.692,5.692,0,0,0,.834-2.31,8.382,8.382,0,0,0,.034-2.428,4.943,4.943,0,0,0-.657-2A1.473,1.473,0,0,0,387.233,118.65Zm13.134.363-13.131,16.828L386,134.932l13.282-16.8Zm-1.761,17.347a3.482,3.482,0,0,1-2.276-.714,3.6,3.6,0,0,1-1.2-1.87,5.7,5.7,0,0,1-.117-2.455,6.836,6.836,0,0,1,.895-2.454,5.6,5.6,0,0,1,1.8-1.87,4.513,4.513,0,0,1,2.49-.714,3.534,3.534,0,0,1,2.288.714,3.571,3.571,0,0,1,1.211,1.87,5.7,5.7,0,0,1,.117,2.454,6.823,6.823,0,0,1-.895,2.455,5.592,5.592,0,0,1-1.8,1.87A4.559,4.559,0,0,1,398.606,136.361Zm1.087-9.323a1.844,1.844,0,0,0-1.56.909,5.52,5.52,0,0,0-.842,2.285,8.484,8.484,0,0,0-.033,2.416,4.806,4.806,0,0,0,.669,2.012,1.5,1.5,0,0,0,1.29.792,1.814,1.814,0,0,0,1.544-.9,5.6,5.6,0,0,0,.83-2.3,8.553,8.553,0,0,0,.036-2.441,4.819,4.819,0,0,0-.657-2A1.482,1.482,0,0,0,399.693,127.038Z" transform="translate(-339.686 -117.456)" fill="#231f20"/>
        </g>
      </g>
      <path id="Path_6976" data-name="Path 6976" d="M361.516,177.608s-17.643-16.1-37.767-17.388" transform="translate(-26.514 -49.115)" fill="none" stroke="#707070" stroke-linecap="round" stroke-linejoin="round" stroke-width="1.376"/>
      <g id="Group_8424" data-name="Group 8424" transform="translate(280.314 51.885)">
        <path id="Path_6977" data-name="Path 6977" d="M304.2,111.4l-.244.6-5.168.132,4.38,1.8-.244.6-5.7-2.337.244-.6,5.176-.129-4.388-1.8.244-.6Z" transform="translate(-297.223 -82.474)" fill="#fff"/>
        <path id="Path_6978" data-name="Path 6978" d="M307.543,103.021l1.112,1.176-.362.564-4.289-4.725.32-.5,6.082,1.937-.367.571-1.532-.523Zm-2.554-2.7,2.157,2.277.811-1.261Z" transform="translate(-299.679 -79.025)" fill="#fff"/>
        <path id="Path_6979" data-name="Path 6979" d="M311.1,90.476l4.167,3.711-.423.475-4.167-3.711-.833.936-.434-.386,2.09-2.346.432.386Z" transform="translate(-301.636 -75.265)" fill="#fff"/>
        <path id="Path_6980" data-name="Path 6980" d="M321.5,87.164a1.77,1.77,0,0,1-.693-.543l-2.867-3.587.5-.4,2.844,3.559a1.174,1.174,0,0,0,.7.475.988.988,0,0,0,1.079-.869,1.179,1.179,0,0,0-.306-.785l-2.844-3.559.5-.4,2.867,3.587a1.631,1.631,0,0,1,.4,1.207,1.534,1.534,0,0,1-.614,1.068,1.626,1.626,0,0,1-.769.352A1.438,1.438,0,0,1,321.5,87.164Z" transform="translate(-304.726 -72.331)" fill="#fff"/>
        <path id="Path_6981" data-name="Path 6981" d="M330.787,78.784l1.278,2.375-.567.3-2.922-5.427,1.414-.76a1.455,1.455,0,0,1,1.232-.175,1.99,1.99,0,0,1,.945.982,1.492,1.492,0,0,1-.022,1.858l2.272,1.952-.605.326-2.164-1.9Zm.568-.954a.8.8,0,0,0,.464-.579,1.431,1.431,0,0,0-.219-.861,1.5,1.5,0,0,0-.594-.669.792.792,0,0,0-.748.072l-.839.451,1.1,2.037Z" transform="translate(-308.577 -70.151)" fill="#fff"/>
        <path id="Path_6982" data-name="Path 6982" d="M342.855,75.04l.116,1.615-.638.207-.323-6.376.563-.182,3.478,5.351-.646.21-.854-1.375Zm-.265-3.708.226,3.129L344.243,74Z" transform="translate(-313.441 -68.439)" fill="#fff"/>
        <path id="Path_6983" data-name="Path 6983" d="M353.146,67.813l.79,5.523,2.043-.292.082.575-2.68.382-.873-6.1Z" transform="translate(-317.242 -67.537)" fill="#fff"/>
        <path id="Path_6984" data-name="Path 6984" d="M375.075,69.6q-.25,1.741-1.8,1.519l-.925-.133-.373,2.58-.637-.092.88-6.1,1.563.225a1.454,1.454,0,0,1,1.11.615A2.061,2.061,0,0,1,375.075,69.6Zm-.628-.091a1.465,1.465,0,0,0-.1-.952.889.889,0,0,0-.68-.387l-.89-.128-.341,2.368.89.128a.9.9,0,0,0,.76-.17A1.392,1.392,0,0,0,374.447,69.514Z" transform="translate(-324.063 -67.381)" fill="#fff"/>
        <path id="Path_6985" data-name="Path 6985" d="M383.338,73.327l-.85,2.56-.611-.2,1.941-5.849,1.524.5a1.458,1.458,0,0,1,.973.775,1.983,1.983,0,0,1-.066,1.361q-.415,1.254-1.365,1.26l.141,2.992-.653-.217-.105-2.876Zm1.084-.243a.8.8,0,0,0,.74-.061,1.422,1.422,0,0,0,.477-.75,1.5,1.5,0,0,0,.078-.892.8.8,0,0,0-.566-.493l-.9-.3-.728,2.195Z" transform="translate(-327.877 -68.27)" fill="#fff"/>
        <path id="Path_6986" data-name="Path 6986" d="M393.5,78.725l1.245-2.251a1.955,1.955,0,0,1,1.076-1.017,1.782,1.782,0,0,1,2.1,1.162,1.955,1.955,0,0,1-.289,1.452l-1.244,2.251a1.934,1.934,0,0,1-1.074,1,1.763,1.763,0,0,1-2.1-1.16A1.947,1.947,0,0,1,393.5,78.725Zm2.319,1.294,1.219-2.2a1.66,1.66,0,0,0,.267-1.011.875.875,0,0,0-.486-.652.9.9,0,0,0-.827-.08,1.673,1.673,0,0,0-.713.769l-1.22,2.2q-.612,1.11.274,1.6a.9.9,0,0,0,.8.08A1.469,1.469,0,0,0,395.823,80.02Z" transform="translate(-331.969 -70.282)" fill="#fff"/>
        <path id="Path_6987" data-name="Path 6987" d="M407.107,82.6a1.582,1.582,0,0,1,.626,1.114,1.943,1.943,0,0,1-.54,1.37l-1.539,1.88a1.948,1.948,0,0,1-1.232.8,1.574,1.574,0,0,1-1.218-.392l-1.222-1,3.9-4.768Zm-2.761,4.537a1.5,1.5,0,0,0,.806-.575l1.5-1.838a1.666,1.666,0,0,0,.443-.947.876.876,0,0,0-.361-.728l-.723-.593-3.167,3.871.723.592A.892.892,0,0,0,404.346,87.136Z" transform="translate(-335.158 -72.53)" fill="#fff"/>
        <path id="Path_6988" data-name="Path 6988" d="M411.325,94.07a1.777,1.777,0,0,1,.522-.709l3.5-2.972.417.491-3.475,2.948a1.175,1.175,0,0,0-.454.715.882.882,0,0,0,.233.71.872.872,0,0,0,.666.343,1.179,1.179,0,0,0,.775-.328l3.475-2.949.416.491-3.5,2.971a1.632,1.632,0,0,1-1.195.436,1.528,1.528,0,0,1-1.086-.582,1.629,1.629,0,0,1-.374-.758A1.44,1.44,0,0,1,411.325,94.07Z" transform="translate(-338.503 -75.712)" fill="#fff"/>
        <path id="Path_6989" data-name="Path 6989" d="M418.971,103.173l2.229-1.284a1.949,1.949,0,0,1,1.445-.309,1.6,1.6,0,0,1,1.007.809,1.624,1.624,0,0,1,.2,1.247,1.8,1.8,0,0,1-.94,1.07l-.07.04-.321-.558.054-.031a1.353,1.353,0,0,0,.671-.7.927.927,0,0,0-.1-.77.915.915,0,0,0-.665-.5,1.658,1.658,0,0,0-1.014.289l-2.182,1.257q-1.1.633-.588,1.519a.919.919,0,0,0,.616.479,1.317,1.317,0,0,0,.913-.221l.07-.04.312.542-.077.045a1.794,1.794,0,0,1-1.381.277,1.588,1.588,0,0,1-.964-.788,1.609,1.609,0,0,1-.2-1.281A1.921,1.921,0,0,1,418.971,103.173Z" transform="translate(-340.933 -79.75)" fill="#fff"/>
        <path id="Path_6990" data-name="Path 6990" d="M428.158,113.623l-5.238,1.922-.219-.6,5.238-1.922-.432-1.176.545-.2,1.081,2.949-.544.2Z" transform="translate(-342.66 -83.411)" fill="#fff"/>
      </g>
    </g>
    <g id="Group_8425" data-name="Group 8425" transform="translate(306.508 64.609)">
      <path id="Path_6991" data-name="Path 6991" d="M342.362,97.245a1.962,1.962,0,0,0-.144.692l-.077,1.909.873-.1a3.348,3.348,0,0,0,1.86-.766l.211.216a3.14,3.14,0,0,1-2.445,1.464l-.534.063-.1,2.553a3.376,3.376,0,0,1-.476,1.654,5.036,5.036,0,0,1-1.307,1.364l-.26-.292a2.216,2.216,0,0,0,.378-1.341l.151-3.75-1.186.14.686-.95.535-.063.046-1.129a3.663,3.663,0,0,1,1.309-2.226l-1.785.2a2.36,2.36,0,0,0-1.546,1l-.262-.25a7.6,7.6,0,0,1,1.3-1.463,2.791,2.791,0,0,1,1.5-.658l3.115-.366a7.72,7.72,0,0,0,1.268-.262,2.408,2.408,0,0,0,.994-.524l.186.218a4.421,4.421,0,0,1-1.192,1.244,3.433,3.433,0,0,1-1.622.639l-1.081.126A3.624,3.624,0,0,0,342.362,97.245Z" transform="translate(-338.287 -89.871)"/>
      <path id="Path_6992" data-name="Path 6992" d="M352.01,100.827l-.036-.05a2.292,2.292,0,0,1-1.079.394,1.873,1.873,0,0,1-.737-.047l-.923,1.967-.524-.179.948-1.958c-.024-.024-.1-.09-.239-.2a.665.665,0,0,1-.246-.345l1.31-1.6a1.687,1.687,0,0,0,.516.894,1.089,1.089,0,0,0,.9.3,3.5,3.5,0,0,0,1.692-.787l.225.227a8.572,8.572,0,0,0-1.359,1.872,4.711,4.711,0,0,0-.616,2.065,1.5,1.5,0,0,0,.265,1,.89.89,0,0,0,.876.313,1.78,1.78,0,0,0,.846-.394l.186.219a3.72,3.72,0,0,1-.938.9,2.555,2.555,0,0,1-1.113.424,1.147,1.147,0,0,1-1.088-.36,1.7,1.7,0,0,1-.341-1.2,5.014,5.014,0,0,1,.468-1.774A7.153,7.153,0,0,1,352.01,100.827Z" transform="translate(-342.061 -91.488)"/>
      <path id="Path_6993" data-name="Path 6993" d="M362.723,98.028a1.164,1.164,0,0,1,.461,1.09,2.6,2.6,0,0,1-.686,1.426,12.619,12.619,0,0,1-3.071,2.654,1.485,1.485,0,0,0,1.567.711,2.69,2.69,0,0,0,1.193-.48,4.157,4.157,0,0,0,1.045-1.026l.248.293A7.275,7.275,0,0,1,362,104.213a3.714,3.714,0,0,1-1.8.685,2.619,2.619,0,0,1-1.476-.214,2.172,2.172,0,0,1-.986-.948,2.819,2.819,0,0,1-.311-1.481,4.348,4.348,0,0,1,.62-2.019,5.365,5.365,0,0,1,1.5-1.668,4.054,4.054,0,0,1,1.925-.788A1.782,1.782,0,0,1,362.723,98.028ZM359.8,99.215a3.083,3.083,0,0,0-.651,1.019,3.626,3.626,0,0,0-.271,1.222,2.428,2.428,0,0,0,.284,1.345,7.542,7.542,0,0,0,1.055-.906,6.908,6.908,0,0,0,.949-1.188,2.319,2.319,0,0,0,.406-1.091.891.891,0,0,0-.211-.7.77.77,0,0,0-.661-.177A1.486,1.486,0,0,0,359.8,99.215Z" transform="translate(-345.218 -91.107)"/>
      <path id="Path_6994" data-name="Path 6994" d="M370.457,96.885a1.552,1.552,0,0,1-.152.579,3.477,3.477,0,0,1-.271.461c-.1.137-.163.228-.2.277a4.566,4.566,0,0,0,.589.506,4.861,4.861,0,0,1,.626.535,1.873,1.873,0,0,1,.389.649,2.58,2.58,0,0,1,.128,1.009,2.873,2.873,0,0,1-.384,1.322,3.083,3.083,0,0,1-.943,1.027,2.8,2.8,0,0,1-1.278.484,3.06,3.06,0,0,1-1.048-.064,1.447,1.447,0,0,1-.8-.428l1-1.428a2.838,2.838,0,0,0,.621.689.985.985,0,0,0,.742.247,1.378,1.378,0,0,0,.847-.434,1.311,1.311,0,0,0,.387-.888,1.09,1.09,0,0,0-.306-.78,9.026,9.026,0,0,0-.925-.868,6.672,6.672,0,0,1-.526-.46l-.94,1.434-.457-.267,1.076-1.57a2.1,2.1,0,0,1-.216-1.085,1.984,1.984,0,0,1,.328-1.062,1.141,1.141,0,0,1,.85-.507C370.191,96.194,370.477,96.4,370.457,96.885Zm-1.09.048a.6.6,0,0,0-.064.275.811.811,0,0,0,.041.29q.046.142.1.282a1.093,1.093,0,0,0,.262-.352.993.993,0,0,0,.119-.388.214.214,0,0,0-.064-.173.22.22,0,0,0-.186-.052A.254.254,0,0,0,369.367,96.933Z" transform="translate(-348.726 -90.56)"/>
      <path id="Path_6995" data-name="Path 6995" d="M377.231,96.414l.052-.006a9.57,9.57,0,0,1,1.036-2.516,2.3,2.3,0,0,1,1.647-1.291.668.668,0,0,1,.647.206,1.163,1.163,0,0,1,.24.633,6.888,6.888,0,0,1,.015.928l-.15,3.723a.452.452,0,0,0,.085.291.272.272,0,0,0,.274.108q.313-.036.67-.547l.212.23a2.749,2.749,0,0,1-.67.854,1.706,1.706,0,0,1-.926.429q-1.238.146-1.181-1.266l.142-3.52a.75.75,0,0,0-.047-.309.169.169,0,0,0-.2-.117q-.548.064-.983,1.051a11.311,11.311,0,0,0-.7,2.249,12.921,12.921,0,0,0-.3,2.028l-1.579.533.485-12.029,1.586-.747Z" transform="translate(-351.771 -87.329)"/>
    </g>
  </g>
</svg>
