<svg id="Component_314_1" data-name="Component 314 – 1" xmlns="http://www.w3.org/2000/svg" width="32.604" height="52.319" viewBox="0 0 32.604 52.319">
  <path id="Path_1" data-name="Path 1" d="M376.65,177.445l-9.887-8.393-9.537,8.309s-4.841,3.7-6.193,8.1c2.3.983,10.745,5.1,10.745,12.627,0,4.135.093,11.9.108,12.975h5.13c-.134-.783-1.736-10.062-3.2-15.058a40.774,40.774,0,0,0-4.843-10.03s1.383,1.195,1.483.884a2.205,2.205,0,0,1,.3-.576l.1,1.283s1.881,3.712,5.737,3.754,5.831-3.532,5.831-3.532l.048-1.326a5.357,5.357,0,0,1,.4.4c.2.22,1.381-.8,1.381-.8s-2.123,2.831-3.953,9.591c-1.745,6.455-3.129,14.675-3.25,15.41H372c.012-1.079.105-8.84.105-12.975,0-7.682,8.794-11.815,10.878-12.686C381.914,181.8,376.65,177.445,376.65,177.445Zm-9.9,12.589a1.691,1.691,0,1,1,1.263-1.634A1.485,1.485,0,0,1,366.752,190.034Z" transform="translate(-350.376 -169.052)" fill="#102858"/>
  <path id="Path_2" data-name="Path 2" d="M448.783,283.112h8.969V259.437c-1.611.715-8.969,4.44-8.969,12.868Z" transform="translate(-428.299 -241.104)" fill="#102858"/>
  <path id="Path_3" data-name="Path 3" d="M349.463,259.682v23.431h8.986V272.305c0-8.428-7.357-12.155-8.968-12.868C349.479,259.519,349.463,259.6,349.463,259.682Z" transform="translate(-349.124 -241.104)" fill="#102858"/>
  <path id="Path_4" data-name="Path 4" d="M355.821,390.088l-.326,3.025h-7.7v-.236h.289a1.2,1.2,0,0,0,.608-.133.579.579,0,0,0,.256-.3,2.608,2.608,0,0,0,.07-.8v-5.669a2.816,2.816,0,0,0-.07-.826.638.638,0,0,0-.285-.289,1.155,1.155,0,0,0-.579-.124h-.289v-.236h4.625v.236h-.377a1.206,1.206,0,0,0-.608.133.609.609,0,0,0-.263.305,2.608,2.608,0,0,0-.07.8v5.491a2.771,2.771,0,0,0,.077.842.508.508,0,0,0,.3.27,3.067,3.067,0,0,0,.774.057h.723a2.461,2.461,0,0,0,1.152-.242,2.139,2.139,0,0,0,.8-.761,6.152,6.152,0,0,0,.636-1.538Z" transform="translate(-347.794 -340.796)" fill="#941467"/>
  <path id="Path_5" data-name="Path 5" d="M395.5,392.878v.236h-4.535v-.236h.289a1.2,1.2,0,0,0,.607-.133.579.579,0,0,0,.256-.305,2.593,2.593,0,0,0,.07-.8v-5.669a2.817,2.817,0,0,0-.07-.826.637.637,0,0,0-.285-.289,1.154,1.154,0,0,0-.577-.124h-.289v-.236H395.5v.236h-.289a1.206,1.206,0,0,0-.608.133.609.609,0,0,0-.262.305,2.6,2.6,0,0,0-.07.8v5.67a2.7,2.7,0,0,0,.073.826.656.656,0,0,0,.289.289,1.154,1.154,0,0,0,.578.124Z" transform="translate(-382.209 -340.796)" fill="#941467"/>
  <path id="Path_6" data-name="Path 6" d="M419.565,384.991v3.54h.249a2.215,2.215,0,0,0,.94-.172,1.471,1.471,0,0,0,.617-.578,2.636,2.636,0,0,0,.329-1.1h.224v4.327H421.7a2.2,2.2,0,0,0-.662-1.617,2.039,2.039,0,0,0-1.225-.391h-.249v2.638a2.7,2.7,0,0,0,.073.826.656.656,0,0,0,.289.289,1.154,1.154,0,0,0,.577.124h.289v.236h-4.535v-.236h.289a1.2,1.2,0,0,0,.608-.133.578.578,0,0,0,.256-.3,2.6,2.6,0,0,0,.07-.8v-5.67a2.815,2.815,0,0,0-.07-.826.637.637,0,0,0-.285-.289,1.153,1.153,0,0,0-.577-.124h-.289v-.236h7.318v2.473h-.263a2.287,2.287,0,0,0-.457-1.29,2.007,2.007,0,0,0-1.065-.591,6.952,6.952,0,0,0-1.42-.1Z" transform="translate(-402.371 -340.796)" fill="#941467"/>
  <path id="Path_7" data-name="Path 7" d="M458.858,384.99V388.5h.173a1.374,1.374,0,0,0,1.2-.515,3.155,3.155,0,0,0,.472-1.519h.243v4.512H460.7a3.364,3.364,0,0,0-.323-1.208,1.387,1.387,0,0,0-.573-.632,2.187,2.187,0,0,0-.947-.162V391.4a3.471,3.471,0,0,0,.061.871.522.522,0,0,0,.227.26,1.07,1.07,0,0,0,.537.1h.518a2.793,2.793,0,0,0,3-2.262h.236l-.39,2.739h-7.5v-.236h.289a1.2,1.2,0,0,0,.608-.133.579.579,0,0,0,.256-.305,2.609,2.609,0,0,0,.07-.8v-5.668a4.521,4.521,0,0,0-.032-.718.609.609,0,0,0-.236-.343,1.106,1.106,0,0,0-.665-.178h-.289v-.236h7.26v2.548h-.243a3.093,3.093,0,0,0-.521-1.341,1.939,1.939,0,0,0-.95-.6,5.177,5.177,0,0,0-1.343-.114Z" transform="translate(-433.695 -340.795)" fill="#941467"/>
</svg>
