<svg id="Group_9247" data-name="Group 9247" xmlns="http://www.w3.org/2000/svg" width="88.539" height="34.972" viewBox="0 0 88.539 34.972">
  <g id="Group_8773" data-name="Group 8773">
    <g id="Group_8049-3" data-name="Group 8049-3" transform="translate(0)">
      <path id="Path_6428-3" data-name="Path 6428-3" d="M11.087,119.6H99.626L88.189,147.712h-77.1Z" transform="translate(-11.087 -119.601)" fill="#48c0bc"/>
      <g id="NEW-3" transform="translate(16.121 1.296)" style="isolation: isolate">
        <text id="NEW" transform="translate(0 18)" fill="#fff" font-size="17" font-family="Poppins-SemiBold, Poppins" font-weight="600" style="isolation: isolate"><tspan x="0" y="0">NEW</tspan></text>
      </g>
      <path id="Path_6410-3" data-name="Path 6410-3" d="M44.88,123.574a2.114,2.114,0,0,1-2.1-2.126.7.7,0,1,0-1.4-.053v.053a2.114,2.114,0,0,1-2.1,2.126h0a.71.71,0,0,0,0,1.419,2.114,2.114,0,0,1,2.1,2.128h0a.7.7,0,0,0,1.4,0,2.114,2.114,0,0,1,2.1-2.128h0a.71.71,0,0,0,0-1.419Zm-2.8,1.419a3.608,3.608,0,0,0-.7-.709,3.606,3.606,0,0,0,.7-.709,3.553,3.553,0,0,0,.7.709A3.554,3.554,0,0,0,42.079,124.993Z" transform="translate(28.114 -116.825)" fill="#fff"/>
      <path id="Path_6411-3" data-name="Path 6411-3" d="M42.987,128.707a1.531,1.531,0,0,1-1.522-1.54h0a.506.506,0,1,0-1.012,0,1.531,1.531,0,0,1-1.522,1.54.512.512,0,0,0,0,1.025,1.531,1.531,0,0,1,1.522,1.54.506.506,0,1,0,1.012,0h0a1.531,1.531,0,0,1,1.522-1.54.512.512,0,0,0,0-1.025Zm-2.029,1.025a2.6,2.6,0,0,0-.505-.513,2.539,2.539,0,0,0,.505-.511,2.6,2.6,0,0,0,.507.511A2.669,2.669,0,0,0,40.958,129.732Z" transform="translate(25.757 -110.269)" fill="#fff"/>
      <path id="Path_6412-3" data-name="Path 6412-3" d="M38.454,122.6l-.8-.336-.329-.808a.376.376,0,1,0-.753,0h0a1.138,1.138,0,0,1-1.126,1.144.381.381,0,0,0,0,.762h0a1.135,1.135,0,0,1,1.128,1.142.376.376,0,1,0,.753,0,1.135,1.135,0,0,1,1.128-1.142.381.381,0,0,0,0-.762Zm-1.506.762a1.879,1.879,0,0,0-.375-.382,1.923,1.923,0,0,0,.375-.38,1.989,1.989,0,0,0,.377.38A1.943,1.943,0,0,0,36.948,123.36Z" transform="translate(22.411 -119.092)" fill="#fff"/>
    </g>
    <path id="Path_7459" data-name="Path 7459" d="M11.087,133.51l9.7,6.861V133.51Z" transform="translate(-11.087 -105.399)" fill="#379fa4"/>
  </g>
</svg>
