<svg xmlns="http://www.w3.org/2000/svg" xmlns:xlink="http://www.w3.org/1999/xlink" width="22" height="20" viewBox="0 0 22 20">
  <defs>
    <clipPath id="clip-path">
      <path id="icon_book-open" data-name="icon / book-open" d="M11,20a.947.947,0,0,1-1-1,2,2,0,0,0-2-2H1a.947.947,0,0,1-1-1V1A.947.947,0,0,1,1,0H7a5.092,5.092,0,0,1,4,2,5.094,5.094,0,0,1,4-2h6a.947.947,0,0,1,1,1V16a.947.947,0,0,1-1,1H14a2,2,0,0,0-2,2A.947.947,0,0,1,11,20ZM15,2a2.947,2.947,0,0,0-3,3V15.5a4.574,4.574,0,0,1,2-.5h6V2ZM2,2V15H8a4.563,4.563,0,0,1,2,.5V5A2.947,2.947,0,0,0,7,2Z" transform="translate(1 2)" fill="#1169d2"/>
    </clipPath>
  </defs>
  <g transform="translate(-1 -2)">
    <path id="icon_book-open-2" data-name="icon / book-open" d="M11,20a.947.947,0,0,1-1-1,2,2,0,0,0-2-2H1a.947.947,0,0,1-1-1V1A.947.947,0,0,1,1,0H7a5.092,5.092,0,0,1,4,2,5.094,5.094,0,0,1,4-2h6a.947.947,0,0,1,1,1V16a.947.947,0,0,1-1,1H14a2,2,0,0,0-2,2A.947.947,0,0,1,11,20ZM15,2a2.947,2.947,0,0,0-3,3V15.5a4.574,4.574,0,0,1,2-.5h6V2ZM2,2V15H8a4.563,4.563,0,0,1,2,.5V5A2.947,2.947,0,0,0,7,2Z" transform="translate(1 2)" fill="#1169d2"/>
  </g>
</svg>
