<svg xmlns="http://www.w3.org/2000/svg" width="15.519" height="15.066" viewBox="0 0 15.519 15.066">
  <path id="Path_6482-3" data-name="Path 6482-3" d="M38.477,325.661a1.134,1.134,0,0,1-.944,1.289,1.111,1.111,0,0,1-.669-.109l-3.1-1.576a1.1,1.1,0,0,0-1,0l-3.111,1.55a1.114,1.114,0,0,1-1.5-.513,1.142,1.142,0,0,1-.1-.675l.525-3.472a1.138,1.138,0,0,0-.306-.962l-2.418-2.52a1.144,1.144,0,0,1,.02-1.6,1.1,1.1,0,0,1,.6-.305l3.422-.568a1.116,1.116,0,0,0,.811-.59l1.615-3.1a1.117,1.117,0,0,1,1.987.008l1.589,3.119a1.119,1.119,0,0,0,.807.6l3.418.6a1.14,1.14,0,0,1,.605,1.916l-2.44,2.494a1.149,1.149,0,0,0-.313.962Z" transform="translate(-25.536 -311.897)" fill="#fcb729"/>
</svg>
