<svg id="TRENDING" xmlns="http://www.w3.org/2000/svg" width="138.788" height="34.972" viewBox="0 0 138.788 34.972">
  <g id="Group_8048-3" data-name="Group 8048-3">
    <path id="Path_6427-3" data-name="Path 6427-3" d="M43.491,119.6H182.279l-14.44,28.111H43.491Z" transform="translate(-43.491 -119.601)" fill="#e64a4a"/>
    <text id="TRENDING-2" data-name="TRENDING" transform="translate(17.057 19.093)" fill="#fff" font-size="17" font-family="Poppins-SemiBold, Poppins" font-weight="600" letter-spacing="-0.009em" style="isolation: isolate"><tspan x="0" y="0">TRENDING</tspan></text>
    <path id="Path_6410-3" data-name="Path 6410-3" d="M49.026,125.464a3.509,3.509,0,0,1-3.488-3.53,1.165,1.165,0,1,0-2.327-.087v.087a3.51,3.51,0,0,1-3.491,3.53h0a1.179,1.179,0,0,0,0,2.356,3.51,3.51,0,0,1,3.491,3.533h0a1.164,1.164,0,0,0,2.327,0,3.51,3.51,0,0,1,3.488-3.533h0a1.179,1.179,0,0,0,0-2.356Zm-4.651,2.356a5.99,5.99,0,0,0-1.164-1.178,5.988,5.988,0,0,0,1.164-1.178,5.9,5.9,0,0,0,1.164,1.178A5.9,5.9,0,0,0,44.374,127.82Z" transform="translate(71.116 -112.544)" fill="#fff"/>
  </g>
  <path id="Path_7465" data-name="Path 7465" d="M11.087,133.51l9.7,6.861V133.51Z" transform="translate(-11.087 -105.399)" fill="#a72929"/>
</svg>
