<svg xmlns="http://www.w3.org/2000/svg" xmlns:xlink="http://www.w3.org/1999/xlink" width="775" height="375" viewBox="0 0 775 375">
  <defs>
    <filter id="Path_7810" x="0" y="0" width="775" height="375" filterUnits="userSpaceOnUse">
      <feOffset dy="1" input="SourceAlpha"/>
      <feGaussianBlur stdDeviation="1" result="blur"/>
      <feFlood flood-opacity="0.161"/>
      <feComposite operator="in" in2="blur"/>
      <feComposite in="SourceGraphic"/>
    </filter>
  </defs>
  <g transform="matrix(1, 0, 0, 1, 0, 0)" filter="url(#Path_7810)">
    <g id="Path_7810-2" data-name="Path 7810" transform="translate(3 2)" fill="#fff1c4">
      <path d="M 759 368.5 L 10 368.5 C 4.76170015335083 368.5 0.5 364.2383117675781 0.5 359 L 0.5 10 C 0.5 4.76170015335083 4.76170015335083 0.5 10 0.5 L 759 0.5 C 764.23828125 0.5 768.5 4.76170015335083 768.5 10 L 768.5 359 C 768.5 364.2383117675781 764.23828125 368.5 759 368.5 Z" stroke="none"/>
      <path d="M 10 1 C 5.03741455078125 1 1 5.03741455078125 1 10 L 1 359 C 1 363.9625854492188 5.03741455078125 368 10 368 L 759 368 C 763.9625854492188 368 768 363.9625854492188 768 359 L 768 10 C 768 5.03741455078125 763.9625854492188 1 759 1 L 10 1 M 10 0 L 759 0 C 764.5228271484375 0 769 4.47711181640625 769 10 L 769 359 C 769 364.5228881835938 764.5228271484375 369 759 369 L 10 369 C 4.4771728515625 369 0 364.5228881835938 0 359 L 0 10 C 0 4.47711181640625 4.4771728515625 0 10 0 Z" stroke="none" fill="#ededed"/>
    </g>
  </g>
</svg>
